M48
; DRILL file KiCad 10.0.5 date 2026-08-11T16:57:32
; FORMAT={-:-/ absolute / metric / decimal}
; #@! TF.CreationDate,2026-08-11T16:57:32+01:00
; #@! TF.GenerationSoftware,Kicad,Pcbnew,10.0.5
; #@! TF.FileFunction,Plated,1,2,PTH
FMAT,2
METRIC
; #@! TA.AperFunction,Plated,PTH,ComponentDrill
T1C0.750
; #@! TA.AperFunction,Plated,PTH,ComponentDrill
T2C0.800
; #@! TA.AperFunction,Plated,PTH,ComponentDrill
T3C0.950
; #@! TA.AperFunction,Plated,PTH,ComponentDrill
T4C1.000
%
G90
G05
T1
X112.65Y-103.2
X114.65Y-103.2
X116.65Y-103.2
X118.65Y-103.2
X120.65Y-103.2
X122.65Y-103.2
T2
X134.03Y-74.72
X134.03Y-103.77
X136.57Y-74.72
X136.57Y-103.77
X139.11Y-74.72
X139.11Y-103.77
X141.65Y-74.72
X141.65Y-103.77
X144.19Y-74.72
X144.19Y-103.77
X146.73Y-74.72
X146.73Y-103.77
X149.27Y-74.72
X149.27Y-103.77
X160.5Y-57.98
X160.5Y-60.52
X160.5Y-63.06
X160.5Y-65.6
X160.5Y-68.14
X160.5Y-70.68
X160.5Y-73.22
X160.5Y-75.76
X160.5Y-78.3
X160.5Y-80.84
X160.5Y-83.38
X160.5Y-85.92
X160.5Y-88.46
X160.5Y-91.0
X160.5Y-93.54
X160.5Y-96.08
X160.5Y-98.62
X160.5Y-101.16
X160.5Y-103.7
X160.5Y-106.24
X160.5Y-108.78
X160.5Y-111.32
X185.9Y-57.98
X185.9Y-60.52
X185.9Y-63.06
X185.9Y-65.6
X185.9Y-68.14
X185.9Y-70.68
X185.9Y-73.22
X185.9Y-75.76
X185.9Y-78.3
X185.9Y-80.84
X185.9Y-83.38
X185.9Y-85.92
X185.9Y-88.46
X185.9Y-91.0
X185.9Y-93.54
X185.9Y-96.08
X185.9Y-98.62
X185.9Y-101.16
X185.9Y-103.7
X185.9Y-106.24
X185.9Y-108.78
X185.9Y-111.32
X196.93Y-70.14
X196.93Y-72.68
X196.93Y-75.22
X196.93Y-77.76
X196.93Y-80.3
X196.93Y-82.84
X196.93Y-85.38
X196.93Y-87.92
X196.93Y-90.46
X196.93Y-93.0
X196.93Y-95.54
X196.93Y-98.08
X196.93Y-100.62
X196.93Y-103.16
T3
X113.9Y-67.825
X116.4Y-67.825
X118.9Y-67.825
X121.4Y-67.825
T4
X98.325Y-101.45
X98.325Y-103.95
M30
