%TF.GenerationSoftware,KiCad,Pcbnew,10.0.5*%
%TF.CreationDate,2026-08-11T17:44:50+01:00*%
%TF.ProjectId,Internet_Radio,496e7465-726e-4657-945f-526164696f2e,rev?*%
%TF.SameCoordinates,Original*%
%TF.FileFunction,Copper,L1,Top*%
%TF.FilePolarity,Positive*%
%FSLAX46Y46*%
G04 Gerber Fmt 4.6, Leading zero omitted, Abs format (unit mm)*
G04 Created by KiCad (PCBNEW 10.0.5) date 2026-08-11 17:44:50*
%MOMM*%
%LPD*%
G01*
G04 APERTURE LIST*
G04 Aperture macros list*
%AMRoundRect*
0 Rectangle with rounded corners*
0 $1 Rounding radius*
0 $2 $3 $4 $5 $6 $7 $8 $9 X,Y pos of 4 corners*
0 Add a 4 corners polygon primitive as box body*
4,1,4,$2,$3,$4,$5,$6,$7,$8,$9,$2,$3,0*
0 Add four circle primitives for the rounded corners*
1,1,$1+$1,$2,$3*
1,1,$1+$1,$4,$5*
1,1,$1+$1,$6,$7*
1,1,$1+$1,$8,$9*
0 Add four rect primitives between the rounded corners*
20,1,$1+$1,$2,$3,$4,$5,0*
20,1,$1+$1,$4,$5,$6,$7,0*
20,1,$1+$1,$6,$7,$8,$9,0*
20,1,$1+$1,$8,$9,$2,$3,0*%
G04 Aperture macros list end*
%TA.AperFunction,ComponentPad*%
%ADD10C,1.500000*%
%TD*%
%TA.AperFunction,ComponentPad*%
%ADD11RoundRect,0.250000X0.350000X0.625000X-0.350000X0.625000X-0.350000X-0.625000X0.350000X-0.625000X0*%
%TD*%
%TA.AperFunction,ComponentPad*%
%ADD12O,1.200000X1.750000*%
%TD*%
%TA.AperFunction,ComponentPad*%
%ADD13RoundRect,0.250000X0.600000X0.725000X-0.600000X0.725000X-0.600000X-0.725000X0.600000X-0.725000X0*%
%TD*%
%TA.AperFunction,ComponentPad*%
%ADD14O,1.700000X1.950000*%
%TD*%
%TA.AperFunction,ComponentPad*%
%ADD15RoundRect,0.250000X0.750000X-0.600000X0.750000X0.600000X-0.750000X0.600000X-0.750000X-0.600000X0*%
%TD*%
%TA.AperFunction,ComponentPad*%
%ADD16O,2.000000X1.700000*%
%TD*%
%TA.AperFunction,HeatsinkPad*%
%ADD17C,1.500000*%
%TD*%
G04 APERTURE END LIST*
D10*
%TO.P,J1,1,T_IRQ_1*%
%TO.N,unconnected-(J1-T_IRQ-Pad1)*%
X196930000Y-70140000D03*
%TO.P,J1,2,T_DO_2*%
%TO.N,/GPIO13*%
X196930000Y-72680000D03*
%TO.P,J1,3,T_DIN_3*%
%TO.N,/GPIO11*%
X196930000Y-75220000D03*
%TO.P,J1,4,T_CS_4*%
%TO.N,/GPIO14*%
X196930000Y-77760000D03*
%TO.P,J1,5,T_CLK_5*%
%TO.N,/GPIO12*%
X196930000Y-80300000D03*
%TO.P,J1,6,MISO(SDO)_6*%
%TO.N,unconnected-(J1-MISO(SDO)-Pad6)*%
X196930000Y-82840000D03*
%TO.P,J1,7,LED_7*%
%TO.N,/3V3*%
X196930000Y-85380000D03*
%TO.P,J1,8,SCK_8*%
%TO.N,/GPIO12*%
X196930000Y-87920000D03*
%TO.P,J1,9,MOSI(SDI)_9*%
%TO.N,/GPIO11*%
X196930000Y-90460000D03*
%TO.P,J1,10,DC/RS_10*%
%TO.N,/GPIO9*%
X196930000Y-93000000D03*
%TO.P,J1,11,RESET_11*%
%TO.N,/GPIO8*%
X196930000Y-95540000D03*
%TO.P,J1,12,CS_12*%
%TO.N,/GPIO10*%
X196930000Y-98080000D03*
%TO.P,J1,13,GND_13*%
%TO.N,/GND*%
X196930000Y-100620000D03*
%TO.P,J1,14,VCC_14*%
%TO.N,/3V3*%
X196930000Y-103160000D03*
%TD*%
D11*
%TO.P,J2,1,Pin_1_1*%
%TO.N,/GND*%
X122650000Y-103200000D03*
D12*
%TO.P,J2,2,Pin_2_2*%
%TO.N,/D+*%
X120650000Y-103200000D03*
%TO.P,J2,3,Pin_3_3*%
%TO.N,/D-*%
X118650000Y-103200000D03*
%TO.P,J2,4,Pin_4_4*%
%TO.N,/CC2*%
X116650000Y-103200000D03*
%TO.P,J2,5,Pin_5_5*%
%TO.N,/CC1*%
X114650000Y-103200000D03*
%TO.P,J2,6,Pin_6_6*%
%TO.N,/+5V*%
X112650000Y-103200000D03*
%TD*%
D10*
%TO.P,U4,1,LRC_1*%
%TO.N,/GPIO7*%
X149270000Y-103770000D03*
%TO.P,U4,2,BCLK_2*%
%TO.N,/GPIO6*%
X146730000Y-103770000D03*
%TO.P,U4,3,DIN_3*%
%TO.N,/GPIO5*%
X144190000Y-103770000D03*
%TO.P,U4,4,GAIN_4*%
%TO.N,/3V3*%
X141650000Y-103770000D03*
%TO.P,U4,5,SD_5*%
%TO.N,unconnected-(U4-SD-Pad5)*%
X139110000Y-103770000D03*
%TO.P,U4,6,GND_6*%
%TO.N,/GND*%
X136570000Y-103770000D03*
%TO.P,U4,7,Vin_7*%
%TO.N,/+5V_SW*%
X134030000Y-103770000D03*
%TD*%
%TO.P,U3,1,LRC_1*%
%TO.N,/GPIO7*%
X149270000Y-74720000D03*
%TO.P,U3,2,BCLK_2*%
%TO.N,/GPIO6*%
X146730000Y-74720000D03*
%TO.P,U3,3,DIN_3*%
%TO.N,/GPIO5*%
X144190000Y-74720000D03*
%TO.P,U3,4,GAIN_4*%
%TO.N,/3V3*%
X141650000Y-74720000D03*
%TO.P,U3,5,SD_5*%
%TO.N,unconnected-(U3-SD-Pad5)*%
X139110000Y-74720000D03*
%TO.P,U3,6,GND_6*%
%TO.N,/GND*%
X136570000Y-74720000D03*
%TO.P,U3,7,Vin_7*%
%TO.N,/+5V_SW*%
X134030000Y-74720000D03*
%TD*%
D13*
%TO.P,J4,1,Pin_1_1*%
%TO.N,/GND*%
X121400000Y-67825000D03*
D14*
%TO.P,J4,2,Pin_2_2*%
%TO.N,/D+*%
X118900000Y-67825000D03*
%TO.P,J4,3,Pin_3_3*%
%TO.N,/D-*%
X116400000Y-67825000D03*
%TO.P,J4,4,Pin_4_4*%
%TO.N,/+5V_SW*%
X113900000Y-67825000D03*
%TD*%
D15*
%TO.P,J5,1,Pin_1_1*%
%TO.N,/+5V*%
X98325000Y-103950000D03*
D16*
%TO.P,J5,2,Pin_2_2*%
%TO.N,/+5V_SW*%
X98325000Y-101450000D03*
%TD*%
D17*
%TO.P,U1,1,3V3_1*%
%TO.N,/3V3*%
X160500000Y-111320000D03*
%TO.P,U1,2,3V3_2*%
X160500000Y-108780000D03*
%TO.P,U1,3,RST_3*%
%TO.N,unconnected-(U1-RST-Pad3)*%
X160500000Y-106240000D03*
%TO.P,U1,4,GPIO4_4*%
%TO.N,unconnected-(U1-GPIO4-Pad4)*%
X160500000Y-103700000D03*
%TO.P,U1,5,GPIO5_5*%
%TO.N,/GPIO5*%
X160500000Y-101160000D03*
%TO.P,U1,6,GPIO6_6*%
%TO.N,/GPIO6*%
X160500000Y-98620000D03*
%TO.P,U1,7,GPIO7_7*%
%TO.N,/GPIO7*%
X160500000Y-96080000D03*
%TO.P,U1,8,GPIO15_8*%
%TO.N,unconnected-(U1-GPIO15-Pad8)*%
X160500000Y-93540000D03*
%TO.P,U1,9,GPIO16_9*%
%TO.N,unconnected-(U1-GPIO16-Pad9)*%
X160500000Y-91000000D03*
%TO.P,U1,10,GPIO17_10*%
%TO.N,unconnected-(U1-GPIO17-Pad10)*%
X160500000Y-88460000D03*
%TO.P,U1,11,GPIO18_11*%
%TO.N,unconnected-(U1-GPIO18-Pad11)*%
X160500000Y-85920000D03*
%TO.P,U1,12,GPIO8_12*%
%TO.N,/GPIO8*%
X160500000Y-83380000D03*
%TO.P,U1,13,GPIO3_13*%
%TO.N,unconnected-(U1-GPIO3-Pad13)*%
X160500000Y-80840000D03*
%TO.P,U1,14,GPIO46_14*%
%TO.N,unconnected-(U1-GPIO46-Pad14)*%
X160500000Y-78300000D03*
%TO.P,U1,15,GPIO9_15*%
%TO.N,/GPIO9*%
X160500000Y-75760000D03*
%TO.P,U1,16,GPIO10_16*%
%TO.N,/GPIO10*%
X160500000Y-73220000D03*
%TO.P,U1,17,GPIO11_17*%
%TO.N,/GPIO11*%
X160500000Y-70680000D03*
%TO.P,U1,18,GPIO12_18*%
%TO.N,/GPIO12*%
X160500000Y-68140000D03*
%TO.P,U1,19,GPIO13_19*%
%TO.N,/GPIO13*%
X160500000Y-65600000D03*
%TO.P,U1,20,GPIO14_20*%
%TO.N,/GPIO14*%
X160500000Y-63060000D03*
%TO.P,U1,21,5Vin_21*%
%TO.N,/+5V_SW*%
X160500000Y-60520000D03*
%TO.P,U1,22,GND_22*%
%TO.N,/GND*%
X160500000Y-57980000D03*
D10*
%TO.P,U1,23,GND_23*%
X185900000Y-111320000D03*
%TO.P,U1,24,TX_24*%
%TO.N,unconnected-(U1-TX-Pad24)*%
X185900000Y-108780000D03*
%TO.P,U1,25,RX_25*%
%TO.N,unconnected-(U1-RX-Pad25)*%
X185900000Y-106240000D03*
%TO.P,U1,26,GPIO1_26*%
%TO.N,unconnected-(U1-GPIO1-Pad26)*%
X185900000Y-103700000D03*
%TO.P,U1,27,GPIO2_27*%
%TO.N,unconnected-(U1-GPIO2-Pad27)*%
X185900000Y-101160000D03*
%TO.P,U1,28,GPIO42_28*%
%TO.N,unconnected-(U1-GPIO42-Pad28)*%
X185900000Y-98620000D03*
%TO.P,U1,29,GPIO41_29*%
%TO.N,unconnected-(U1-GPIO41-Pad29)*%
X185900000Y-96080000D03*
%TO.P,U1,30,GPIO40_30*%
%TO.N,unconnected-(U1-GPIO40-Pad30)*%
X185900000Y-93540000D03*
%TO.P,U1,31,GPIO39_31*%
%TO.N,unconnected-(U1-GPIO39-Pad31)*%
X185900000Y-91000000D03*
%TO.P,U1,32,GPIO38_32*%
%TO.N,unconnected-(U1-GPIO38-Pad32)*%
X185900000Y-88460000D03*
%TO.P,U1,33,GPIO37_33*%
%TO.N,unconnected-(U1-GPIO37-Pad33)*%
X185900000Y-85920000D03*
%TO.P,U1,34,GPIO36_34*%
%TO.N,unconnected-(U1-GPIO36-Pad34)*%
X185900000Y-83380000D03*
%TO.P,U1,35,GPIO35_35*%
%TO.N,unconnected-(U1-GPIO35-Pad35)*%
X185900000Y-80840000D03*
%TO.P,U1,36,GPIO0_36*%
%TO.N,unconnected-(U1-GPIO0-Pad36)*%
X185900000Y-78300000D03*
%TO.P,U1,37,GPIO45_37*%
%TO.N,unconnected-(U1-GPIO45-Pad37)*%
X185900000Y-75760000D03*
%TO.P,U1,38,GPIO48_38*%
%TO.N,unconnected-(U1-GPIO48-Pad38)*%
X185900000Y-73220000D03*
%TO.P,U1,39,GPIO47_39*%
%TO.N,unconnected-(U1-GPIO47-Pad39)*%
X185900000Y-70680000D03*
%TO.P,U1,40,GPIO21_40*%
%TO.N,unconnected-(U1-GPIO21-Pad40)*%
X185900000Y-68140000D03*
%TO.P,U1,41,GPIO20_41*%
%TO.N,unconnected-(U1-GPIO20-Pad41)*%
X185900000Y-65600000D03*
%TO.P,U1,42,GPIO19_42*%
%TO.N,unconnected-(U1-GPIO19-Pad42)*%
X185900000Y-63060000D03*
%TO.P,U1,43,GND_43*%
%TO.N,unconnected-(U1-GND-Pad43)*%
X185900000Y-60520000D03*
%TO.P,U1,44,GND_44*%
%TO.N,unconnected-(U1-GND-Pad44)*%
X185900000Y-57980000D03*
%TD*%
%TA.AperFunction,Conductor*%
%TO.N,/GND*%
G36*
X188415853Y-56719636D02*
G01*
X188436400Y-56736066D01*
X198845846Y-67050013D01*
X199263139Y-67463477D01*
X199296906Y-67524645D01*
X199299863Y-67551888D01*
X199200174Y-105383848D01*
X199180312Y-105450835D01*
X199144957Y-105486695D01*
X188131170Y-112829219D01*
X188064471Y-112850027D01*
X188062539Y-112850045D01*
X106392074Y-112949948D01*
X106325010Y-112930345D01*
X106316581Y-112924435D01*
X95548386Y-104687014D01*
X95507100Y-104630648D01*
X95499728Y-104589081D01*
X95497742Y-104144124D01*
X95485240Y-101343713D01*
X96824500Y-101343713D01*
X96824500Y-101556286D01*
X96837763Y-101640029D01*
X96857754Y-101766243D01*
X96904301Y-101909500D01*
X96923444Y-101968414D01*
X97019951Y-102157820D01*
X97144890Y-102329786D01*
X97283705Y-102468601D01*
X97317190Y-102529924D01*
X97312206Y-102599616D01*
X97270334Y-102655549D01*
X97261121Y-102661821D01*
X97106342Y-102757289D01*
X96982289Y-102881342D01*
X96890187Y-103030663D01*
X96890185Y-103030668D01*
X96885570Y-103044595D01*
X96835001Y-103197203D01*
X96835001Y-103197204D01*
X96835000Y-103197204D01*
X96824500Y-103299983D01*
X96824500Y-104600001D01*
X96824501Y-104600018D01*
X96835000Y-104702796D01*
X96835001Y-104702799D01*
X96890185Y-104869331D01*
X96890187Y-104869336D01*
X96913720Y-104907489D01*
X96982288Y-105018656D01*
X97106344Y-105142712D01*
X97255666Y-105234814D01*
X97422203Y-105289999D01*
X97524991Y-105300500D01*
X99125008Y-105300499D01*
X99227797Y-105289999D01*
X99394334Y-105234814D01*
X99543656Y-105142712D01*
X99667712Y-105018656D01*
X99759814Y-104869334D01*
X99814999Y-104702797D01*
X99825500Y-104600009D01*
X99825499Y-103299992D01*
X99824658Y-103291763D01*
X99814999Y-103197203D01*
X99814998Y-103197200D01*
X99787713Y-103114859D01*
X99759814Y-103030666D01*
X99722238Y-102969745D01*
X99678364Y-102898613D01*
X99667712Y-102881344D01*
X99624757Y-102838389D01*
X111549500Y-102838389D01*
X111549500Y-103561610D01*
X111561919Y-103640025D01*
X111576598Y-103732701D01*
X111630127Y-103897445D01*
X111708768Y-104051788D01*
X111810586Y-104191928D01*
X111933072Y-104314414D01*
X112073212Y-104416232D01*
X112227555Y-104494873D01*
X112392299Y-104548402D01*
X112563389Y-104575500D01*
X112563390Y-104575500D01*
X112736610Y-104575500D01*
X112736611Y-104575500D01*
X112907701Y-104548402D01*
X113072445Y-104494873D01*
X113226788Y-104416232D01*
X113366928Y-104314414D01*
X113489414Y-104191928D01*
X113549682Y-104108975D01*
X113605012Y-104066311D01*
X113674626Y-104060332D01*
X113736421Y-104092938D01*
X113750315Y-104108973D01*
X113810586Y-104191928D01*
X113933072Y-104314414D01*
X114073212Y-104416232D01*
X114227555Y-104494873D01*
X114392299Y-104548402D01*
X114563389Y-104575500D01*
X114563390Y-104575500D01*
X114736610Y-104575500D01*
X114736611Y-104575500D01*
X114907701Y-104548402D01*
X115072445Y-104494873D01*
X115226788Y-104416232D01*
X115366928Y-104314414D01*
X115489414Y-104191928D01*
X115549682Y-104108975D01*
X115605012Y-104066311D01*
X115674626Y-104060332D01*
X115736421Y-104092938D01*
X115750315Y-104108973D01*
X115810586Y-104191928D01*
X115933072Y-104314414D01*
X116073212Y-104416232D01*
X116227555Y-104494873D01*
X116392299Y-104548402D01*
X116563389Y-104575500D01*
X116563390Y-104575500D01*
X116736610Y-104575500D01*
X116736611Y-104575500D01*
X116907701Y-104548402D01*
X117072445Y-104494873D01*
X117226788Y-104416232D01*
X117366928Y-104314414D01*
X117489414Y-104191928D01*
X117549682Y-104108975D01*
X117605012Y-104066311D01*
X117674626Y-104060332D01*
X117736421Y-104092938D01*
X117750315Y-104108973D01*
X117810586Y-104191928D01*
X117933072Y-104314414D01*
X118073212Y-104416232D01*
X118227555Y-104494873D01*
X118392299Y-104548402D01*
X118563389Y-104575500D01*
X118563390Y-104575500D01*
X118736610Y-104575500D01*
X118736611Y-104575500D01*
X118907701Y-104548402D01*
X119072445Y-104494873D01*
X119226788Y-104416232D01*
X119366928Y-104314414D01*
X119489414Y-104191928D01*
X119549682Y-104108975D01*
X119605012Y-104066311D01*
X119674626Y-104060332D01*
X119736421Y-104092938D01*
X119750315Y-104108973D01*
X119810586Y-104191928D01*
X119933072Y-104314414D01*
X120073212Y-104416232D01*
X120227555Y-104494873D01*
X120392299Y-104548402D01*
X120563389Y-104575500D01*
X120563390Y-104575500D01*
X120736610Y-104575500D01*
X120736611Y-104575500D01*
X120907701Y-104548402D01*
X121072445Y-104494873D01*
X121226788Y-104416232D01*
X121366928Y-104314414D01*
X121474836Y-104206505D01*
X121536155Y-104173023D01*
X121605847Y-104178007D01*
X121661781Y-104219878D01*
X121668053Y-104229093D01*
X121707682Y-104293343D01*
X121831654Y-104417315D01*
X121980875Y-104509356D01*
X121980880Y-104509358D01*
X122147302Y-104564505D01*
X122147309Y-104564506D01*
X122250019Y-104574999D01*
X122399999Y-104574999D01*
X122400000Y-104574998D01*
X122400000Y-103480330D01*
X122419745Y-103500075D01*
X122505255Y-103549444D01*
X122600630Y-103575000D01*
X122699370Y-103575000D01*
X122794745Y-103549444D01*
X122880255Y-103500075D01*
X122900000Y-103480330D01*
X122900000Y-104574999D01*
X123049972Y-104574999D01*
X123049986Y-104574998D01*
X123152697Y-104564505D01*
X123319119Y-104509358D01*
X123319124Y-104509356D01*
X123468345Y-104417315D01*
X123592315Y-104293345D01*
X123684356Y-104144124D01*
X123684358Y-104144119D01*
X123739505Y-103977697D01*
X123739506Y-103977690D01*
X123749999Y-103874986D01*
X123750000Y-103874973D01*
X123750000Y-103671577D01*
X132779500Y-103671577D01*
X132779500Y-103868422D01*
X132810290Y-104062826D01*
X132871117Y-104250029D01*
X132955802Y-104416231D01*
X132960476Y-104425405D01*
X133076172Y-104584646D01*
X133215354Y-104723828D01*
X133374595Y-104839524D01*
X133413830Y-104859515D01*
X133549970Y-104928882D01*
X133549972Y-104928882D01*
X133549975Y-104928884D01*
X133616502Y-104950500D01*
X133737173Y-104989709D01*
X133931578Y-105020500D01*
X133931583Y-105020500D01*
X134128422Y-105020500D01*
X134322826Y-104989709D01*
X134367141Y-104975310D01*
X134510025Y-104928884D01*
X134685405Y-104839524D01*
X134844646Y-104723828D01*
X134983828Y-104584646D01*
X135099524Y-104425405D01*
X135188884Y-104250025D01*
X135188884Y-104250022D01*
X135189795Y-104248236D01*
X135237769Y-104197440D01*
X135305590Y-104180644D01*
X135371725Y-104203181D01*
X135410765Y-104248235D01*
X135500905Y-104425145D01*
X135526319Y-104460125D01*
X135526320Y-104460125D01*
X136170000Y-103816445D01*
X136170000Y-103822661D01*
X136197259Y-103924394D01*
X136249920Y-104015606D01*
X136324394Y-104090080D01*
X136415606Y-104142741D01*
X136517339Y-104170000D01*
X136523553Y-104170000D01*
X135879873Y-104813677D01*
X135879873Y-104813678D01*
X135914858Y-104839096D01*
X136090164Y-104928418D01*
X136277294Y-104989221D01*
X136471618Y-105020000D01*
X136668382Y-105020000D01*
X136862705Y-104989221D01*
X137049835Y-104928418D01*
X137225143Y-104839095D01*
X137260125Y-104813678D01*
X137260126Y-104813678D01*
X136616448Y-104170000D01*
X136622661Y-104170000D01*
X136724394Y-104142741D01*
X136815606Y-104090080D01*
X136890080Y-104015606D01*
X136942741Y-103924394D01*
X136970000Y-103822661D01*
X136970000Y-103816448D01*
X137613678Y-104460126D01*
X137613678Y-104460125D01*
X137639097Y-104425141D01*
X137729234Y-104248236D01*
X137777208Y-104197439D01*
X137845029Y-104180644D01*
X137911164Y-104203181D01*
X137950204Y-104248235D01*
X137951115Y-104250024D01*
X137951116Y-104250025D01*
X138040476Y-104425405D01*
X138156172Y-104584646D01*
X138295354Y-104723828D01*
X138454595Y-104839524D01*
X138493830Y-104859515D01*
X138629970Y-104928882D01*
X138629972Y-104928882D01*
X138629975Y-104928884D01*
X138696502Y-104950500D01*
X138817173Y-104989709D01*
X139011578Y-105020500D01*
X139011583Y-105020500D01*
X139208422Y-105020500D01*
X139402826Y-104989709D01*
X139447141Y-104975310D01*
X139590025Y-104928884D01*
X139765405Y-104839524D01*
X139924646Y-104723828D01*
X140063828Y-104584646D01*
X140179524Y-104425405D01*
X140233800Y-104318882D01*
X140269515Y-104248787D01*
X140317489Y-104197990D01*
X140385310Y-104181195D01*
X140451445Y-104203732D01*
X140490485Y-104248787D01*
X140580474Y-104425403D01*
X140605702Y-104460125D01*
X140696172Y-104584646D01*
X140835354Y-104723828D01*
X140994595Y-104839524D01*
X141033830Y-104859515D01*
X141169970Y-104928882D01*
X141169972Y-104928882D01*
X141169975Y-104928884D01*
X141236502Y-104950500D01*
X141357173Y-104989709D01*
X141551578Y-105020500D01*
X141551583Y-105020500D01*
X141748422Y-105020500D01*
X141942826Y-104989709D01*
X141987141Y-104975310D01*
X142130025Y-104928884D01*
X142305405Y-104839524D01*
X142464646Y-104723828D01*
X142603828Y-104584646D01*
X142719524Y-104425405D01*
X142773800Y-104318882D01*
X142809515Y-104248787D01*
X142857489Y-104197990D01*
X142925310Y-104181195D01*
X142991445Y-104203732D01*
X143030485Y-104248787D01*
X143120474Y-104425403D01*
X143145702Y-104460125D01*
X143236172Y-104584646D01*
X143375354Y-104723828D01*
X143534595Y-104839524D01*
X143573830Y-104859515D01*
X143709970Y-104928882D01*
X143709972Y-104928882D01*
X143709975Y-104928884D01*
X143776502Y-104950500D01*
X143897173Y-104989709D01*
X144091578Y-105020500D01*
X144091583Y-105020500D01*
X144288422Y-105020500D01*
X144482826Y-104989709D01*
X144527141Y-104975310D01*
X144670025Y-104928884D01*
X144845405Y-104839524D01*
X145004646Y-104723828D01*
X145143828Y-104584646D01*
X145259524Y-104425405D01*
X145313800Y-104318882D01*
X145349515Y-104248787D01*
X145397489Y-104197990D01*
X145465310Y-104181195D01*
X145531445Y-104203732D01*
X145570485Y-104248787D01*
X145660474Y-104425403D01*
X145685702Y-104460125D01*
X145776172Y-104584646D01*
X145915354Y-104723828D01*
X146074595Y-104839524D01*
X146113830Y-104859515D01*
X146249970Y-104928882D01*
X146249972Y-104928882D01*
X146249975Y-104928884D01*
X146316502Y-104950500D01*
X146437173Y-104989709D01*
X146631578Y-105020500D01*
X146631583Y-105020500D01*
X146828422Y-105020500D01*
X147022826Y-104989709D01*
X147067141Y-104975310D01*
X147210025Y-104928884D01*
X147385405Y-104839524D01*
X147544646Y-104723828D01*
X147683828Y-104584646D01*
X147799524Y-104425405D01*
X147853800Y-104318882D01*
X147889515Y-104248787D01*
X147937489Y-104197990D01*
X148005310Y-104181195D01*
X148071445Y-104203732D01*
X148110485Y-104248787D01*
X148200474Y-104425403D01*
X148225702Y-104460125D01*
X148316172Y-104584646D01*
X148455354Y-104723828D01*
X148614595Y-104839524D01*
X148653830Y-104859515D01*
X148789970Y-104928882D01*
X148789972Y-104928882D01*
X148789975Y-104928884D01*
X148856502Y-104950500D01*
X148977173Y-104989709D01*
X149171578Y-105020500D01*
X149171583Y-105020500D01*
X149368422Y-105020500D01*
X149562826Y-104989709D01*
X149607141Y-104975310D01*
X149750025Y-104928884D01*
X149925405Y-104839524D01*
X150084646Y-104723828D01*
X150223828Y-104584646D01*
X150339524Y-104425405D01*
X150428884Y-104250025D01*
X150489709Y-104062826D01*
X150503675Y-103974647D01*
X150520500Y-103868422D01*
X150520500Y-103671577D01*
X150489709Y-103477173D01*
X150443925Y-103336267D01*
X150428884Y-103289975D01*
X150428882Y-103289972D01*
X150428882Y-103289970D01*
X150381613Y-103197200D01*
X150339524Y-103114595D01*
X150223828Y-102955354D01*
X150084646Y-102816172D01*
X149925405Y-102700476D01*
X149750029Y-102611117D01*
X149562826Y-102550290D01*
X149368422Y-102519500D01*
X149368417Y-102519500D01*
X149171583Y-102519500D01*
X149171578Y-102519500D01*
X148977173Y-102550290D01*
X148789970Y-102611117D01*
X148614594Y-102700476D01*
X148551700Y-102746172D01*
X148455354Y-102816172D01*
X148455352Y-102816174D01*
X148455351Y-102816174D01*
X148316174Y-102955351D01*
X148316174Y-102955352D01*
X148316172Y-102955354D01*
X148266485Y-103023741D01*
X148200476Y-103114594D01*
X148110485Y-103291213D01*
X148062511Y-103342009D01*
X147994690Y-103358804D01*
X147928555Y-103336267D01*
X147889515Y-103291213D01*
X147841615Y-103197204D01*
X147799524Y-103114595D01*
X147683828Y-102955354D01*
X147544646Y-102816172D01*
X147385405Y-102700476D01*
X147210029Y-102611117D01*
X147022826Y-102550290D01*
X146828422Y-102519500D01*
X146828417Y-102519500D01*
X146631583Y-102519500D01*
X146631578Y-102519500D01*
X146437173Y-102550290D01*
X146249970Y-102611117D01*
X146074594Y-102700476D01*
X146011700Y-102746172D01*
X145915354Y-102816172D01*
X145915352Y-102816174D01*
X145915351Y-102816174D01*
X145776174Y-102955351D01*
X145776174Y-102955352D01*
X145776172Y-102955354D01*
X145726485Y-103023741D01*
X145660476Y-103114594D01*
X145570485Y-103291213D01*
X145522511Y-103342009D01*
X145454690Y-103358804D01*
X145388555Y-103336267D01*
X145349515Y-103291213D01*
X145301615Y-103197204D01*
X145259524Y-103114595D01*
X145143828Y-102955354D01*
X145004646Y-102816172D01*
X144845405Y-102700476D01*
X144670029Y-102611117D01*
X144482826Y-102550290D01*
X144288422Y-102519500D01*
X144288417Y-102519500D01*
X144091583Y-102519500D01*
X144091578Y-102519500D01*
X143897173Y-102550290D01*
X143709970Y-102611117D01*
X143534594Y-102700476D01*
X143471700Y-102746172D01*
X143375354Y-102816172D01*
X143375352Y-102816174D01*
X143375351Y-102816174D01*
X143236174Y-102955351D01*
X143236174Y-102955352D01*
X143236172Y-102955354D01*
X143186485Y-103023741D01*
X143120476Y-103114594D01*
X143030485Y-103291213D01*
X142982511Y-103342009D01*
X142914690Y-103358804D01*
X142848555Y-103336267D01*
X142809515Y-103291213D01*
X142761615Y-103197204D01*
X142719524Y-103114595D01*
X142603828Y-102955354D01*
X142464646Y-102816172D01*
X142305405Y-102700476D01*
X142130029Y-102611117D01*
X141942826Y-102550290D01*
X141748422Y-102519500D01*
X141748417Y-102519500D01*
X141551583Y-102519500D01*
X141551578Y-102519500D01*
X141357173Y-102550290D01*
X141169970Y-102611117D01*
X140994594Y-102700476D01*
X140931700Y-102746172D01*
X140835354Y-102816172D01*
X140835352Y-102816174D01*
X140835351Y-102816174D01*
X140696174Y-102955351D01*
X140696174Y-102955352D01*
X140696172Y-102955354D01*
X140646485Y-103023741D01*
X140580476Y-103114594D01*
X140490485Y-103291213D01*
X140442511Y-103342009D01*
X140374690Y-103358804D01*
X140308555Y-103336267D01*
X140269515Y-103291213D01*
X140221615Y-103197204D01*
X140179524Y-103114595D01*
X140063828Y-102955354D01*
X139924646Y-102816172D01*
X139765405Y-102700476D01*
X139590029Y-102611117D01*
X139402826Y-102550290D01*
X139208422Y-102519500D01*
X139208417Y-102519500D01*
X139011583Y-102519500D01*
X139011578Y-102519500D01*
X138817173Y-102550290D01*
X138629970Y-102611117D01*
X138454594Y-102700476D01*
X138391700Y-102746172D01*
X138295354Y-102816172D01*
X138295352Y-102816174D01*
X138295351Y-102816174D01*
X138156174Y-102955351D01*
X138156174Y-102955352D01*
X138156172Y-102955354D01*
X138106485Y-103023741D01*
X138040476Y-103114594D01*
X137950204Y-103291764D01*
X137902229Y-103342560D01*
X137834408Y-103359355D01*
X137768274Y-103336818D01*
X137729234Y-103291764D01*
X137639096Y-103114858D01*
X137613678Y-103079873D01*
X137613677Y-103079873D01*
X136970000Y-103723551D01*
X136970000Y-103717339D01*
X136942741Y-103615606D01*
X136890080Y-103524394D01*
X136815606Y-103449920D01*
X136724394Y-103397259D01*
X136622661Y-103370000D01*
X136616447Y-103370000D01*
X137260125Y-102726320D01*
X137260125Y-102726319D01*
X137225145Y-102700905D01*
X137049835Y-102611581D01*
X136862705Y-102550778D01*
X136668382Y-102520000D01*
X136471618Y-102520000D01*
X136277294Y-102550778D01*
X136090161Y-102611582D01*
X135914863Y-102700899D01*
X135914859Y-102700902D01*
X135879873Y-102726320D01*
X135879872Y-102726320D01*
X136523554Y-103370000D01*
X136517339Y-103370000D01*
X136415606Y-103397259D01*
X136324394Y-103449920D01*
X136249920Y-103524394D01*
X136197259Y-103615606D01*
X136170000Y-103717339D01*
X136170000Y-103723552D01*
X135526320Y-103079872D01*
X135526320Y-103079873D01*
X135500902Y-103114859D01*
X135410765Y-103291764D01*
X135362790Y-103342560D01*
X135294969Y-103359355D01*
X135228835Y-103336818D01*
X135189795Y-103291763D01*
X135099525Y-103114596D01*
X135061004Y-103061577D01*
X134983828Y-102955354D01*
X134844646Y-102816172D01*
X134685405Y-102700476D01*
X134510029Y-102611117D01*
X134322826Y-102550290D01*
X134128422Y-102519500D01*
X134128417Y-102519500D01*
X133931583Y-102519500D01*
X133931578Y-102519500D01*
X133737173Y-102550290D01*
X133549970Y-102611117D01*
X133374594Y-102700476D01*
X133311700Y-102746172D01*
X133215354Y-102816172D01*
X133215352Y-102816174D01*
X133215351Y-102816174D01*
X133076174Y-102955351D01*
X133076174Y-102955352D01*
X133076172Y-102955354D01*
X133026485Y-103023741D01*
X132960476Y-103114594D01*
X132871117Y-103289970D01*
X132810290Y-103477173D01*
X132779500Y-103671577D01*
X123750000Y-103671577D01*
X123750000Y-103450000D01*
X122930330Y-103450000D01*
X122950075Y-103430255D01*
X122999444Y-103344745D01*
X123025000Y-103249370D01*
X123025000Y-103150630D01*
X122999444Y-103055255D01*
X122950075Y-102969745D01*
X122930330Y-102950000D01*
X123749999Y-102950000D01*
X123749999Y-102525028D01*
X123749998Y-102525013D01*
X123739505Y-102422302D01*
X123684358Y-102255880D01*
X123684356Y-102255875D01*
X123592315Y-102106654D01*
X123468345Y-101982684D01*
X123319124Y-101890643D01*
X123319119Y-101890641D01*
X123152697Y-101835494D01*
X123152690Y-101835493D01*
X123049986Y-101825000D01*
X122900000Y-101825000D01*
X122900000Y-102919670D01*
X122880255Y-102899925D01*
X122794745Y-102850556D01*
X122699370Y-102825000D01*
X122600630Y-102825000D01*
X122505255Y-102850556D01*
X122419745Y-102899925D01*
X122400000Y-102919670D01*
X122400000Y-101825000D01*
X122250027Y-101825000D01*
X122250012Y-101825001D01*
X122147302Y-101835494D01*
X121980880Y-101890641D01*
X121980875Y-101890643D01*
X121831654Y-101982684D01*
X121707684Y-102106654D01*
X121668053Y-102170907D01*
X121616105Y-102217631D01*
X121547142Y-102228853D01*
X121483060Y-102201010D01*
X121474833Y-102193491D01*
X121366930Y-102085588D01*
X121366928Y-102085586D01*
X121226788Y-101983768D01*
X121072445Y-101905127D01*
X120907701Y-101851598D01*
X120907699Y-101851597D01*
X120907698Y-101851597D01*
X120776271Y-101830781D01*
X120736611Y-101824500D01*
X120563389Y-101824500D01*
X120523728Y-101830781D01*
X120392302Y-101851597D01*
X120227552Y-101905128D01*
X120073211Y-101983768D01*
X119993256Y-102041859D01*
X119933072Y-102085586D01*
X119933070Y-102085588D01*
X119933069Y-102085588D01*
X119810588Y-102208069D01*
X119810581Y-102208078D01*
X119750317Y-102291023D01*
X119694987Y-102333689D01*
X119625374Y-102339667D01*
X119563579Y-102307061D01*
X119549683Y-102291023D01*
X119489418Y-102208078D01*
X119489414Y-102208072D01*
X119366928Y-102085586D01*
X119226788Y-101983768D01*
X119072445Y-101905127D01*
X118907701Y-101851598D01*
X118907699Y-101851597D01*
X118907698Y-101851597D01*
X118776271Y-101830781D01*
X118736611Y-101824500D01*
X118563389Y-101824500D01*
X118523728Y-101830781D01*
X118392302Y-101851597D01*
X118227552Y-101905128D01*
X118073211Y-101983768D01*
X117993256Y-102041859D01*
X117933072Y-102085586D01*
X117933070Y-102085588D01*
X117933069Y-102085588D01*
X117810588Y-102208069D01*
X117810581Y-102208078D01*
X117750317Y-102291023D01*
X117694987Y-102333689D01*
X117625374Y-102339667D01*
X117563579Y-102307061D01*
X117549683Y-102291023D01*
X117489418Y-102208078D01*
X117489414Y-102208072D01*
X117366928Y-102085586D01*
X117226788Y-101983768D01*
X117072445Y-101905127D01*
X116907701Y-101851598D01*
X116907699Y-101851597D01*
X116907698Y-101851597D01*
X116776271Y-101830781D01*
X116736611Y-101824500D01*
X116563389Y-101824500D01*
X116523728Y-101830781D01*
X116392302Y-101851597D01*
X116227552Y-101905128D01*
X116073211Y-101983768D01*
X115993256Y-102041859D01*
X115933072Y-102085586D01*
X115933070Y-102085588D01*
X115933069Y-102085588D01*
X115810588Y-102208069D01*
X115810581Y-102208078D01*
X115750317Y-102291023D01*
X115694987Y-102333689D01*
X115625374Y-102339667D01*
X115563579Y-102307061D01*
X115549683Y-102291023D01*
X115489418Y-102208078D01*
X115489414Y-102208072D01*
X115366928Y-102085586D01*
X115226788Y-101983768D01*
X115072445Y-101905127D01*
X114907701Y-101851598D01*
X114907699Y-101851597D01*
X114907698Y-101851597D01*
X114776271Y-101830781D01*
X114736611Y-101824500D01*
X114563389Y-101824500D01*
X114523728Y-101830781D01*
X114392302Y-101851597D01*
X114227552Y-101905128D01*
X114073211Y-101983768D01*
X113993256Y-102041859D01*
X113933072Y-102085586D01*
X113933070Y-102085588D01*
X113933069Y-102085588D01*
X113810588Y-102208069D01*
X113810581Y-102208078D01*
X113750317Y-102291023D01*
X113694987Y-102333689D01*
X113625374Y-102339667D01*
X113563579Y-102307061D01*
X113549683Y-102291023D01*
X113489418Y-102208078D01*
X113489414Y-102208072D01*
X113366928Y-102085586D01*
X113226788Y-101983768D01*
X113072445Y-101905127D01*
X112907701Y-101851598D01*
X112907699Y-101851597D01*
X112907698Y-101851597D01*
X112776271Y-101830781D01*
X112736611Y-101824500D01*
X112563389Y-101824500D01*
X112523728Y-101830781D01*
X112392302Y-101851597D01*
X112227552Y-101905128D01*
X112073211Y-101983768D01*
X111993256Y-102041859D01*
X111933072Y-102085586D01*
X111933070Y-102085588D01*
X111933069Y-102085588D01*
X111810588Y-102208069D01*
X111810588Y-102208070D01*
X111810586Y-102208072D01*
X111775855Y-102255875D01*
X111708768Y-102348211D01*
X111630128Y-102502552D01*
X111630127Y-102502554D01*
X111630127Y-102502555D01*
X111629464Y-102504595D01*
X111576597Y-102667302D01*
X111549500Y-102838389D01*
X99624757Y-102838389D01*
X99543657Y-102757289D01*
X99543656Y-102757288D01*
X99394334Y-102665186D01*
X99394333Y-102665185D01*
X99388878Y-102661821D01*
X99342154Y-102609873D01*
X99330931Y-102540910D01*
X99358775Y-102476828D01*
X99366272Y-102468623D01*
X99505104Y-102329792D01*
X99558808Y-102255875D01*
X99630048Y-102157820D01*
X99630047Y-102157820D01*
X99630051Y-102157816D01*
X99726557Y-101968412D01*
X99792246Y-101766243D01*
X99825500Y-101556287D01*
X99825500Y-101343713D01*
X99792246Y-101133757D01*
X99726557Y-100931588D01*
X99630051Y-100742184D01*
X99630049Y-100742181D01*
X99630048Y-100742179D01*
X99505109Y-100570213D01*
X99354786Y-100419890D01*
X99182820Y-100294951D01*
X98993414Y-100198444D01*
X98993413Y-100198443D01*
X98993412Y-100198443D01*
X98791243Y-100132754D01*
X98791241Y-100132753D01*
X98791240Y-100132753D01*
X98629957Y-100107208D01*
X98581287Y-100099500D01*
X98068713Y-100099500D01*
X98020042Y-100107208D01*
X97858760Y-100132753D01*
X97656585Y-100198444D01*
X97467179Y-100294951D01*
X97295213Y-100419890D01*
X97144890Y-100570213D01*
X97019951Y-100742179D01*
X96923444Y-100931585D01*
X96857753Y-101133760D01*
X96824500Y-101343713D01*
X95485240Y-101343713D01*
X95400234Y-82302538D01*
X95419619Y-82235413D01*
X95437579Y-82213289D01*
X103208976Y-74621577D01*
X132779500Y-74621577D01*
X132779500Y-74818422D01*
X132810290Y-75012826D01*
X132871117Y-75200029D01*
X132911852Y-75279975D01*
X132960476Y-75375405D01*
X133076172Y-75534646D01*
X133215354Y-75673828D01*
X133374595Y-75789524D01*
X133457455Y-75831743D01*
X133549970Y-75878882D01*
X133549972Y-75878882D01*
X133549975Y-75878884D01*
X133650317Y-75911487D01*
X133737173Y-75939709D01*
X133931578Y-75970500D01*
X133931583Y-75970500D01*
X134128422Y-75970500D01*
X134322826Y-75939709D01*
X134324328Y-75939221D01*
X134510025Y-75878884D01*
X134685405Y-75789524D01*
X134844646Y-75673828D01*
X134983828Y-75534646D01*
X135099524Y-75375405D01*
X135188884Y-75200025D01*
X135188884Y-75200022D01*
X135189795Y-75198236D01*
X135237769Y-75147440D01*
X135305590Y-75130644D01*
X135371725Y-75153181D01*
X135410765Y-75198235D01*
X135500905Y-75375145D01*
X135526319Y-75410125D01*
X135526320Y-75410125D01*
X136170000Y-74766445D01*
X136170000Y-74772661D01*
X136197259Y-74874394D01*
X136249920Y-74965606D01*
X136324394Y-75040080D01*
X136415606Y-75092741D01*
X136517339Y-75120000D01*
X136523553Y-75120000D01*
X135879873Y-75763677D01*
X135879873Y-75763678D01*
X135914858Y-75789096D01*
X136090164Y-75878418D01*
X136277294Y-75939221D01*
X136471618Y-75970000D01*
X136668382Y-75970000D01*
X136862705Y-75939221D01*
X137049835Y-75878418D01*
X137225143Y-75789095D01*
X137260125Y-75763678D01*
X137260126Y-75763678D01*
X136616448Y-75120000D01*
X136622661Y-75120000D01*
X136724394Y-75092741D01*
X136815606Y-75040080D01*
X136890080Y-74965606D01*
X136942741Y-74874394D01*
X136970000Y-74772661D01*
X136970000Y-74766448D01*
X137613678Y-75410126D01*
X137613678Y-75410125D01*
X137639097Y-75375141D01*
X137729234Y-75198236D01*
X137777208Y-75147439D01*
X137845029Y-75130644D01*
X137911164Y-75153181D01*
X137950204Y-75198235D01*
X137951115Y-75200024D01*
X137951116Y-75200025D01*
X138040476Y-75375405D01*
X138156172Y-75534646D01*
X138295354Y-75673828D01*
X138454595Y-75789524D01*
X138537455Y-75831743D01*
X138629970Y-75878882D01*
X138629972Y-75878882D01*
X138629975Y-75878884D01*
X138730317Y-75911487D01*
X138817173Y-75939709D01*
X139011578Y-75970500D01*
X139011583Y-75970500D01*
X139208422Y-75970500D01*
X139402826Y-75939709D01*
X139404328Y-75939221D01*
X139590025Y-75878884D01*
X139765405Y-75789524D01*
X139924646Y-75673828D01*
X140063828Y-75534646D01*
X140179524Y-75375405D01*
X140268884Y-75200025D01*
X140269515Y-75198787D01*
X140317489Y-75147990D01*
X140385310Y-75131195D01*
X140451445Y-75153732D01*
X140490485Y-75198787D01*
X140580474Y-75375403D01*
X140605702Y-75410125D01*
X140696172Y-75534646D01*
X140835354Y-75673828D01*
X140994595Y-75789524D01*
X141077455Y-75831743D01*
X141169970Y-75878882D01*
X141169972Y-75878882D01*
X141169975Y-75878884D01*
X141270317Y-75911487D01*
X141357173Y-75939709D01*
X141551578Y-75970500D01*
X141551583Y-75970500D01*
X141748422Y-75970500D01*
X141942826Y-75939709D01*
X141944328Y-75939221D01*
X142130025Y-75878884D01*
X142305405Y-75789524D01*
X142464646Y-75673828D01*
X142603828Y-75534646D01*
X142719524Y-75375405D01*
X142808884Y-75200025D01*
X142809515Y-75198787D01*
X142857489Y-75147990D01*
X142925310Y-75131195D01*
X142991445Y-75153732D01*
X143030485Y-75198787D01*
X143120474Y-75375403D01*
X143145702Y-75410125D01*
X143236172Y-75534646D01*
X143375354Y-75673828D01*
X143534595Y-75789524D01*
X143617455Y-75831743D01*
X143709970Y-75878882D01*
X143709972Y-75878882D01*
X143709975Y-75878884D01*
X143810317Y-75911487D01*
X143897173Y-75939709D01*
X144091578Y-75970500D01*
X144091583Y-75970500D01*
X144288422Y-75970500D01*
X144482826Y-75939709D01*
X144484328Y-75939221D01*
X144670025Y-75878884D01*
X144845405Y-75789524D01*
X145004646Y-75673828D01*
X145143828Y-75534646D01*
X145259524Y-75375405D01*
X145348884Y-75200025D01*
X145349515Y-75198787D01*
X145397489Y-75147990D01*
X145465310Y-75131195D01*
X145531445Y-75153732D01*
X145570485Y-75198787D01*
X145660474Y-75375403D01*
X145685702Y-75410125D01*
X145776172Y-75534646D01*
X145915354Y-75673828D01*
X146074595Y-75789524D01*
X146157455Y-75831743D01*
X146249970Y-75878882D01*
X146249972Y-75878882D01*
X146249975Y-75878884D01*
X146350317Y-75911487D01*
X146437173Y-75939709D01*
X146631578Y-75970500D01*
X146631583Y-75970500D01*
X146828422Y-75970500D01*
X147022826Y-75939709D01*
X147024328Y-75939221D01*
X147210025Y-75878884D01*
X147385405Y-75789524D01*
X147544646Y-75673828D01*
X147683828Y-75534646D01*
X147799524Y-75375405D01*
X147888884Y-75200025D01*
X147889515Y-75198787D01*
X147937489Y-75147990D01*
X148005310Y-75131195D01*
X148071445Y-75153732D01*
X148110485Y-75198787D01*
X148200474Y-75375403D01*
X148225702Y-75410125D01*
X148316172Y-75534646D01*
X148455354Y-75673828D01*
X148614595Y-75789524D01*
X148697455Y-75831743D01*
X148789970Y-75878882D01*
X148789972Y-75878882D01*
X148789975Y-75878884D01*
X148890317Y-75911487D01*
X148977173Y-75939709D01*
X149171578Y-75970500D01*
X149171583Y-75970500D01*
X149368422Y-75970500D01*
X149562826Y-75939709D01*
X149564328Y-75939221D01*
X149750025Y-75878884D01*
X149925405Y-75789524D01*
X150084646Y-75673828D01*
X150223828Y-75534646D01*
X150339524Y-75375405D01*
X150428884Y-75200025D01*
X150489709Y-75012826D01*
X150497188Y-74965606D01*
X150520500Y-74818422D01*
X150520500Y-74621577D01*
X150489709Y-74427173D01*
X150444984Y-74289525D01*
X150428884Y-74239975D01*
X150428882Y-74239972D01*
X150428882Y-74239970D01*
X150381743Y-74147455D01*
X150339524Y-74064595D01*
X150223828Y-73905354D01*
X150084646Y-73766172D01*
X149925405Y-73650476D01*
X149750029Y-73561117D01*
X149562826Y-73500290D01*
X149368422Y-73469500D01*
X149368417Y-73469500D01*
X149171583Y-73469500D01*
X149171578Y-73469500D01*
X148977173Y-73500290D01*
X148789970Y-73561117D01*
X148614594Y-73650476D01*
X148523741Y-73716485D01*
X148455354Y-73766172D01*
X148455352Y-73766174D01*
X148455351Y-73766174D01*
X148316174Y-73905351D01*
X148316174Y-73905352D01*
X148316172Y-73905354D01*
X148287593Y-73944690D01*
X148200476Y-74064594D01*
X148110485Y-74241213D01*
X148062511Y-74292009D01*
X147994690Y-74308804D01*
X147928555Y-74286267D01*
X147889515Y-74241213D01*
X147843281Y-74150474D01*
X147799524Y-74064595D01*
X147683828Y-73905354D01*
X147544646Y-73766172D01*
X147385405Y-73650476D01*
X147210029Y-73561117D01*
X147022826Y-73500290D01*
X146828422Y-73469500D01*
X146828417Y-73469500D01*
X146631583Y-73469500D01*
X146631578Y-73469500D01*
X146437173Y-73500290D01*
X146249970Y-73561117D01*
X146074594Y-73650476D01*
X145983741Y-73716485D01*
X145915354Y-73766172D01*
X145915352Y-73766174D01*
X145915351Y-73766174D01*
X145776174Y-73905351D01*
X145776174Y-73905352D01*
X145776172Y-73905354D01*
X145747593Y-73944690D01*
X145660476Y-74064594D01*
X145570485Y-74241213D01*
X145522511Y-74292009D01*
X145454690Y-74308804D01*
X145388555Y-74286267D01*
X145349515Y-74241213D01*
X145303281Y-74150474D01*
X145259524Y-74064595D01*
X145143828Y-73905354D01*
X145004646Y-73766172D01*
X144845405Y-73650476D01*
X144670029Y-73561117D01*
X144482826Y-73500290D01*
X144288422Y-73469500D01*
X144288417Y-73469500D01*
X144091583Y-73469500D01*
X144091578Y-73469500D01*
X143897173Y-73500290D01*
X143709970Y-73561117D01*
X143534594Y-73650476D01*
X143443741Y-73716485D01*
X143375354Y-73766172D01*
X143375352Y-73766174D01*
X143375351Y-73766174D01*
X143236174Y-73905351D01*
X143236174Y-73905352D01*
X143236172Y-73905354D01*
X143207593Y-73944690D01*
X143120476Y-74064594D01*
X143030485Y-74241213D01*
X142982511Y-74292009D01*
X142914690Y-74308804D01*
X142848555Y-74286267D01*
X142809515Y-74241213D01*
X142763281Y-74150474D01*
X142719524Y-74064595D01*
X142603828Y-73905354D01*
X142464646Y-73766172D01*
X142305405Y-73650476D01*
X142130029Y-73561117D01*
X141942826Y-73500290D01*
X141748422Y-73469500D01*
X141748417Y-73469500D01*
X141551583Y-73469500D01*
X141551578Y-73469500D01*
X141357173Y-73500290D01*
X141169970Y-73561117D01*
X140994594Y-73650476D01*
X140903741Y-73716485D01*
X140835354Y-73766172D01*
X140835352Y-73766174D01*
X140835351Y-73766174D01*
X140696174Y-73905351D01*
X140696174Y-73905352D01*
X140696172Y-73905354D01*
X140667593Y-73944690D01*
X140580476Y-74064594D01*
X140490485Y-74241213D01*
X140442511Y-74292009D01*
X140374690Y-74308804D01*
X140308555Y-74286267D01*
X140269515Y-74241213D01*
X140223281Y-74150474D01*
X140179524Y-74064595D01*
X140063828Y-73905354D01*
X139924646Y-73766172D01*
X139765405Y-73650476D01*
X139590029Y-73561117D01*
X139402826Y-73500290D01*
X139208422Y-73469500D01*
X139208417Y-73469500D01*
X139011583Y-73469500D01*
X139011578Y-73469500D01*
X138817173Y-73500290D01*
X138629970Y-73561117D01*
X138454594Y-73650476D01*
X138363741Y-73716485D01*
X138295354Y-73766172D01*
X138295352Y-73766174D01*
X138295351Y-73766174D01*
X138156174Y-73905351D01*
X138156174Y-73905352D01*
X138156172Y-73905354D01*
X138127593Y-73944690D01*
X138040476Y-74064594D01*
X137950204Y-74241764D01*
X137902229Y-74292560D01*
X137834408Y-74309355D01*
X137768274Y-74286818D01*
X137729234Y-74241764D01*
X137639096Y-74064858D01*
X137613678Y-74029873D01*
X137613677Y-74029873D01*
X136970000Y-74673551D01*
X136970000Y-74667339D01*
X136942741Y-74565606D01*
X136890080Y-74474394D01*
X136815606Y-74399920D01*
X136724394Y-74347259D01*
X136622661Y-74320000D01*
X136616447Y-74320000D01*
X137260125Y-73676320D01*
X137260125Y-73676319D01*
X137225145Y-73650905D01*
X137049835Y-73561581D01*
X136862705Y-73500778D01*
X136668382Y-73470000D01*
X136471618Y-73470000D01*
X136277294Y-73500778D01*
X136090161Y-73561582D01*
X135914863Y-73650899D01*
X135914859Y-73650902D01*
X135879873Y-73676320D01*
X135879872Y-73676320D01*
X136523554Y-74320000D01*
X136517339Y-74320000D01*
X136415606Y-74347259D01*
X136324394Y-74399920D01*
X136249920Y-74474394D01*
X136197259Y-74565606D01*
X136170000Y-74667339D01*
X136170000Y-74673552D01*
X135526320Y-74029872D01*
X135526320Y-74029873D01*
X135500902Y-74064859D01*
X135410765Y-74241764D01*
X135362790Y-74292560D01*
X135294969Y-74309355D01*
X135228835Y-74286818D01*
X135189795Y-74241763D01*
X135099525Y-74064596D01*
X135074296Y-74029872D01*
X134983828Y-73905354D01*
X134844646Y-73766172D01*
X134685405Y-73650476D01*
X134510029Y-73561117D01*
X134322826Y-73500290D01*
X134128422Y-73469500D01*
X134128417Y-73469500D01*
X133931583Y-73469500D01*
X133931578Y-73469500D01*
X133737173Y-73500290D01*
X133549970Y-73561117D01*
X133374594Y-73650476D01*
X133283741Y-73716485D01*
X133215354Y-73766172D01*
X133215352Y-73766174D01*
X133215351Y-73766174D01*
X133076174Y-73905351D01*
X133076174Y-73905352D01*
X133076172Y-73905354D01*
X133047593Y-73944690D01*
X132960476Y-74064594D01*
X132871117Y-74239970D01*
X132810290Y-74427173D01*
X132779500Y-74621577D01*
X103208976Y-74621577D01*
X110403180Y-67593713D01*
X112549500Y-67593713D01*
X112549500Y-68056286D01*
X112578347Y-68238422D01*
X112582754Y-68266243D01*
X112636880Y-68432826D01*
X112648444Y-68468414D01*
X112744951Y-68657820D01*
X112869890Y-68829786D01*
X113020213Y-68980109D01*
X113192179Y-69105048D01*
X113192181Y-69105049D01*
X113192184Y-69105051D01*
X113381588Y-69201557D01*
X113583757Y-69267246D01*
X113793713Y-69300500D01*
X113793714Y-69300500D01*
X114006286Y-69300500D01*
X114006287Y-69300500D01*
X114216243Y-69267246D01*
X114418412Y-69201557D01*
X114607816Y-69105051D01*
X114655405Y-69070476D01*
X114779786Y-68980109D01*
X114779788Y-68980106D01*
X114779792Y-68980104D01*
X114930104Y-68829792D01*
X115049683Y-68665204D01*
X115105011Y-68622540D01*
X115174624Y-68616561D01*
X115236420Y-68649166D01*
X115250313Y-68665199D01*
X115277552Y-68702690D01*
X115369896Y-68829792D01*
X115520213Y-68980109D01*
X115692179Y-69105048D01*
X115692181Y-69105049D01*
X115692184Y-69105051D01*
X115881588Y-69201557D01*
X116083757Y-69267246D01*
X116293713Y-69300500D01*
X116293714Y-69300500D01*
X116506286Y-69300500D01*
X116506287Y-69300500D01*
X116716243Y-69267246D01*
X116918412Y-69201557D01*
X117107816Y-69105051D01*
X117155405Y-69070476D01*
X117279786Y-68980109D01*
X117279788Y-68980106D01*
X117279792Y-68980104D01*
X117430104Y-68829792D01*
X117549683Y-68665204D01*
X117605011Y-68622540D01*
X117674624Y-68616561D01*
X117736420Y-68649166D01*
X117750313Y-68665199D01*
X117777552Y-68702690D01*
X117869896Y-68829792D01*
X118020213Y-68980109D01*
X118192179Y-69105048D01*
X118192181Y-69105049D01*
X118192184Y-69105051D01*
X118381588Y-69201557D01*
X118583757Y-69267246D01*
X118793713Y-69300500D01*
X118793714Y-69300500D01*
X119006286Y-69300500D01*
X119006287Y-69300500D01*
X119216243Y-69267246D01*
X119418412Y-69201557D01*
X119607816Y-69105051D01*
X119665141Y-69063402D01*
X119779784Y-68980110D01*
X119779784Y-68980109D01*
X119779792Y-68980104D01*
X119918967Y-68840928D01*
X119980286Y-68807446D01*
X120049978Y-68812430D01*
X120105912Y-68854301D01*
X120112184Y-68863515D01*
X120207684Y-69018345D01*
X120331654Y-69142315D01*
X120480875Y-69234356D01*
X120480880Y-69234358D01*
X120647302Y-69289505D01*
X120647309Y-69289506D01*
X120750019Y-69299999D01*
X121149999Y-69299999D01*
X121150000Y-69299998D01*
X121150000Y-68229145D01*
X121216657Y-68267630D01*
X121337465Y-68300000D01*
X121462535Y-68300000D01*
X121583343Y-68267630D01*
X121650000Y-68229145D01*
X121650000Y-69299999D01*
X122049972Y-69299999D01*
X122049986Y-69299998D01*
X122152697Y-69289505D01*
X122319119Y-69234358D01*
X122319124Y-69234356D01*
X122468345Y-69142315D01*
X122592315Y-69018345D01*
X122684356Y-68869124D01*
X122684358Y-68869119D01*
X122739505Y-68702697D01*
X122739506Y-68702690D01*
X122749999Y-68599986D01*
X122750000Y-68599973D01*
X122750000Y-68075000D01*
X121804146Y-68075000D01*
X121842630Y-68008343D01*
X121875000Y-67887535D01*
X121875000Y-67762465D01*
X121842630Y-67641657D01*
X121804146Y-67575000D01*
X122749999Y-67575000D01*
X122749999Y-67050028D01*
X122749998Y-67050013D01*
X122739505Y-66947302D01*
X122684358Y-66780880D01*
X122684356Y-66780875D01*
X122592315Y-66631654D01*
X122468345Y-66507684D01*
X122319124Y-66415643D01*
X122319119Y-66415641D01*
X122152697Y-66360494D01*
X122152690Y-66360493D01*
X122049986Y-66350000D01*
X121650000Y-66350000D01*
X121650000Y-67420854D01*
X121583343Y-67382370D01*
X121462535Y-67350000D01*
X121337465Y-67350000D01*
X121216657Y-67382370D01*
X121150000Y-67420854D01*
X121150000Y-66350000D01*
X120750028Y-66350000D01*
X120750012Y-66350001D01*
X120647302Y-66360494D01*
X120480880Y-66415641D01*
X120480875Y-66415643D01*
X120331654Y-66507684D01*
X120207683Y-66631655D01*
X120207680Y-66631659D01*
X120112183Y-66786484D01*
X120060235Y-66833209D01*
X119991273Y-66844430D01*
X119927191Y-66816587D01*
X119918964Y-66809068D01*
X119779786Y-66669890D01*
X119607820Y-66544951D01*
X119418414Y-66448444D01*
X119418413Y-66448443D01*
X119418412Y-66448443D01*
X119216243Y-66382754D01*
X119216241Y-66382753D01*
X119216240Y-66382753D01*
X119054957Y-66357208D01*
X119006287Y-66349500D01*
X118793713Y-66349500D01*
X118745042Y-66357208D01*
X118583760Y-66382753D01*
X118381585Y-66448444D01*
X118192179Y-66544951D01*
X118020213Y-66669890D01*
X117869894Y-66820209D01*
X117869890Y-66820214D01*
X117750318Y-66984793D01*
X117694989Y-67027459D01*
X117625375Y-67033438D01*
X117563580Y-67000833D01*
X117549682Y-66984793D01*
X117430109Y-66820214D01*
X117430105Y-66820209D01*
X117279786Y-66669890D01*
X117107820Y-66544951D01*
X116918414Y-66448444D01*
X116918413Y-66448443D01*
X116918412Y-66448443D01*
X116716243Y-66382754D01*
X116716241Y-66382753D01*
X116716240Y-66382753D01*
X116554957Y-66357208D01*
X116506287Y-66349500D01*
X116293713Y-66349500D01*
X116245042Y-66357208D01*
X116083760Y-66382753D01*
X115881585Y-66448444D01*
X115692179Y-66544951D01*
X115520213Y-66669890D01*
X115369894Y-66820209D01*
X115369890Y-66820214D01*
X115250318Y-66984793D01*
X115194989Y-67027459D01*
X115125375Y-67033438D01*
X115063580Y-67000833D01*
X115049682Y-66984793D01*
X114930109Y-66820214D01*
X114930105Y-66820209D01*
X114779786Y-66669890D01*
X114607820Y-66544951D01*
X114418414Y-66448444D01*
X114418413Y-66448443D01*
X114418412Y-66448443D01*
X114216243Y-66382754D01*
X114216241Y-66382753D01*
X114216240Y-66382753D01*
X114054957Y-66357208D01*
X114006287Y-66349500D01*
X113793713Y-66349500D01*
X113745042Y-66357208D01*
X113583760Y-66382753D01*
X113381585Y-66448444D01*
X113192179Y-66544951D01*
X113020213Y-66669890D01*
X112869890Y-66820213D01*
X112744951Y-66992179D01*
X112648444Y-67181585D01*
X112582753Y-67383760D01*
X112549500Y-67593713D01*
X110403180Y-67593713D01*
X121314022Y-56935145D01*
X121375731Y-56902382D01*
X121400290Y-56899849D01*
X159687221Y-56785645D01*
X159754316Y-56805129D01*
X159800228Y-56857796D01*
X159811206Y-56919373D01*
X159809872Y-56936320D01*
X160453554Y-57580000D01*
X160447339Y-57580000D01*
X160345606Y-57607259D01*
X160254394Y-57659920D01*
X160179920Y-57734394D01*
X160127259Y-57825606D01*
X160100000Y-57927339D01*
X160100000Y-57933552D01*
X159456320Y-57289872D01*
X159456320Y-57289873D01*
X159430902Y-57324859D01*
X159430899Y-57324863D01*
X159341582Y-57500161D01*
X159280778Y-57687294D01*
X159250000Y-57881617D01*
X159250000Y-58078382D01*
X159280778Y-58272705D01*
X159341581Y-58459835D01*
X159430905Y-58635145D01*
X159456319Y-58670125D01*
X159456320Y-58670125D01*
X160100000Y-58026445D01*
X160100000Y-58032661D01*
X160127259Y-58134394D01*
X160179920Y-58225606D01*
X160254394Y-58300080D01*
X160345606Y-58352741D01*
X160447339Y-58380000D01*
X160453553Y-58380000D01*
X159809873Y-59023677D01*
X159809873Y-59023678D01*
X159844858Y-59049096D01*
X160021764Y-59139234D01*
X160072560Y-59187209D01*
X160089355Y-59255030D01*
X160066818Y-59321164D01*
X160021764Y-59360204D01*
X159844594Y-59450476D01*
X159753741Y-59516485D01*
X159685354Y-59566172D01*
X159685352Y-59566174D01*
X159685351Y-59566174D01*
X159546174Y-59705351D01*
X159546174Y-59705352D01*
X159546172Y-59705354D01*
X159496485Y-59773741D01*
X159430476Y-59864594D01*
X159341117Y-60039970D01*
X159280290Y-60227173D01*
X159249500Y-60421577D01*
X159249500Y-60618422D01*
X159280290Y-60812826D01*
X159341117Y-61000029D01*
X159392310Y-61100500D01*
X159430476Y-61175405D01*
X159546172Y-61334646D01*
X159685354Y-61473828D01*
X159844595Y-61589524D01*
X159967992Y-61652397D01*
X160021213Y-61679515D01*
X160072009Y-61727489D01*
X160088804Y-61795310D01*
X160066267Y-61861445D01*
X160021213Y-61900485D01*
X159844594Y-61990476D01*
X159753741Y-62056485D01*
X159685354Y-62106172D01*
X159685352Y-62106174D01*
X159685351Y-62106174D01*
X159546174Y-62245351D01*
X159546174Y-62245352D01*
X159546172Y-62245354D01*
X159496485Y-62313741D01*
X159430476Y-62404594D01*
X159341117Y-62579970D01*
X159280290Y-62767173D01*
X159249500Y-62961577D01*
X159249500Y-63158422D01*
X159280290Y-63352826D01*
X159341117Y-63540029D01*
X159430476Y-63715405D01*
X159546172Y-63874646D01*
X159685354Y-64013828D01*
X159844595Y-64129524D01*
X159967992Y-64192397D01*
X160021213Y-64219515D01*
X160072009Y-64267489D01*
X160088804Y-64335310D01*
X160066267Y-64401445D01*
X160021213Y-64440485D01*
X159844594Y-64530476D01*
X159753741Y-64596485D01*
X159685354Y-64646172D01*
X159685352Y-64646174D01*
X159685351Y-64646174D01*
X159546174Y-64785351D01*
X159546174Y-64785352D01*
X159546172Y-64785354D01*
X159496485Y-64853741D01*
X159430476Y-64944594D01*
X159341117Y-65119970D01*
X159280290Y-65307173D01*
X159249500Y-65501577D01*
X159249500Y-65698422D01*
X159280290Y-65892826D01*
X159341117Y-66080029D01*
X159430476Y-66255405D01*
X159546172Y-66414646D01*
X159685354Y-66553828D01*
X159844595Y-66669524D01*
X159967992Y-66732397D01*
X160021213Y-66759515D01*
X160072009Y-66807489D01*
X160088804Y-66875310D01*
X160066267Y-66941445D01*
X160021213Y-66980485D01*
X159844594Y-67070476D01*
X159753741Y-67136485D01*
X159685354Y-67186172D01*
X159685352Y-67186174D01*
X159685351Y-67186174D01*
X159546174Y-67325351D01*
X159546174Y-67325352D01*
X159546172Y-67325354D01*
X159528266Y-67350000D01*
X159430476Y-67484594D01*
X159341117Y-67659970D01*
X159280290Y-67847173D01*
X159249500Y-68041577D01*
X159249500Y-68238422D01*
X159280290Y-68432826D01*
X159341117Y-68620029D01*
X159383239Y-68702697D01*
X159430476Y-68795405D01*
X159546172Y-68954646D01*
X159685354Y-69093828D01*
X159844595Y-69209524D01*
X159893331Y-69234356D01*
X160021213Y-69299515D01*
X160072009Y-69347489D01*
X160088804Y-69415310D01*
X160066267Y-69481445D01*
X160021213Y-69520485D01*
X159844594Y-69610476D01*
X159776466Y-69659975D01*
X159685354Y-69726172D01*
X159685352Y-69726174D01*
X159685351Y-69726174D01*
X159546174Y-69865351D01*
X159546174Y-69865352D01*
X159546172Y-69865354D01*
X159496485Y-69933741D01*
X159430476Y-70024594D01*
X159341117Y-70199970D01*
X159280290Y-70387173D01*
X159249500Y-70581577D01*
X159249500Y-70778422D01*
X159280290Y-70972826D01*
X159341117Y-71160029D01*
X159366337Y-71209525D01*
X159430476Y-71335405D01*
X159546172Y-71494646D01*
X159685354Y-71633828D01*
X159844595Y-71749524D01*
X159967992Y-71812397D01*
X160021213Y-71839515D01*
X160072009Y-71887489D01*
X160088804Y-71955310D01*
X160066267Y-72021445D01*
X160021213Y-72060485D01*
X159844594Y-72150476D01*
X159776466Y-72199975D01*
X159685354Y-72266172D01*
X159685352Y-72266174D01*
X159685351Y-72266174D01*
X159546174Y-72405351D01*
X159546174Y-72405352D01*
X159546172Y-72405354D01*
X159496485Y-72473741D01*
X159430476Y-72564594D01*
X159341117Y-72739970D01*
X159280290Y-72927173D01*
X159249500Y-73121577D01*
X159249500Y-73318422D01*
X159280290Y-73512826D01*
X159341117Y-73700029D01*
X159366337Y-73749525D01*
X159430476Y-73875405D01*
X159546172Y-74034646D01*
X159685354Y-74173828D01*
X159844595Y-74289524D01*
X159883516Y-74309355D01*
X160021213Y-74379515D01*
X160072009Y-74427489D01*
X160088804Y-74495310D01*
X160066267Y-74561445D01*
X160021213Y-74600485D01*
X159844594Y-74690476D01*
X159776466Y-74739975D01*
X159685354Y-74806172D01*
X159685352Y-74806174D01*
X159685351Y-74806174D01*
X159546174Y-74945351D01*
X159546174Y-74945352D01*
X159546172Y-74945354D01*
X159531458Y-74965606D01*
X159430476Y-75104594D01*
X159341117Y-75279970D01*
X159280290Y-75467173D01*
X159249500Y-75661577D01*
X159249500Y-75858422D01*
X159280290Y-76052826D01*
X159341117Y-76240029D01*
X159366337Y-76289525D01*
X159430476Y-76415405D01*
X159546172Y-76574646D01*
X159685354Y-76713828D01*
X159844595Y-76829524D01*
X159967992Y-76892397D01*
X160021213Y-76919515D01*
X160072009Y-76967489D01*
X160088804Y-77035310D01*
X160066267Y-77101445D01*
X160021213Y-77140485D01*
X159844594Y-77230476D01*
X159776466Y-77279975D01*
X159685354Y-77346172D01*
X159685352Y-77346174D01*
X159685351Y-77346174D01*
X159546174Y-77485351D01*
X159546174Y-77485352D01*
X159546172Y-77485354D01*
X159496485Y-77553741D01*
X159430476Y-77644594D01*
X159341117Y-77819970D01*
X159280290Y-78007173D01*
X159249500Y-78201577D01*
X159249500Y-78398422D01*
X159280290Y-78592826D01*
X159341117Y-78780029D01*
X159366337Y-78829525D01*
X159430476Y-78955405D01*
X159546172Y-79114646D01*
X159685354Y-79253828D01*
X159844595Y-79369524D01*
X159967992Y-79432397D01*
X160021213Y-79459515D01*
X160072009Y-79507489D01*
X160088804Y-79575310D01*
X160066267Y-79641445D01*
X160021213Y-79680485D01*
X159844594Y-79770476D01*
X159776466Y-79819975D01*
X159685354Y-79886172D01*
X159685352Y-79886174D01*
X159685351Y-79886174D01*
X159546174Y-80025351D01*
X159546174Y-80025352D01*
X159546172Y-80025354D01*
X159496485Y-80093741D01*
X159430476Y-80184594D01*
X159341117Y-80359970D01*
X159280290Y-80547173D01*
X159249500Y-80741577D01*
X159249500Y-80938422D01*
X159280290Y-81132826D01*
X159341117Y-81320029D01*
X159366337Y-81369525D01*
X159430476Y-81495405D01*
X159546172Y-81654646D01*
X159685354Y-81793828D01*
X159844595Y-81909524D01*
X159967992Y-81972397D01*
X160021213Y-81999515D01*
X160072009Y-82047489D01*
X160088804Y-82115310D01*
X160066267Y-82181445D01*
X160021213Y-82220485D01*
X159844594Y-82310476D01*
X159776466Y-82359975D01*
X159685354Y-82426172D01*
X159685352Y-82426174D01*
X159685351Y-82426174D01*
X159546174Y-82565351D01*
X159546174Y-82565352D01*
X159546172Y-82565354D01*
X159496485Y-82633741D01*
X159430476Y-82724594D01*
X159341117Y-82899970D01*
X159280290Y-83087173D01*
X159249500Y-83281577D01*
X159249500Y-83478422D01*
X159280290Y-83672826D01*
X159341117Y-83860029D01*
X159366337Y-83909525D01*
X159430476Y-84035405D01*
X159546172Y-84194646D01*
X159685354Y-84333828D01*
X159844595Y-84449524D01*
X159967992Y-84512397D01*
X160021213Y-84539515D01*
X160072009Y-84587489D01*
X160088804Y-84655310D01*
X160066267Y-84721445D01*
X160021213Y-84760485D01*
X159844594Y-84850476D01*
X159776466Y-84899975D01*
X159685354Y-84966172D01*
X159685352Y-84966174D01*
X159685351Y-84966174D01*
X159546174Y-85105351D01*
X159546174Y-85105352D01*
X159546172Y-85105354D01*
X159496485Y-85173741D01*
X159430476Y-85264594D01*
X159341117Y-85439970D01*
X159280290Y-85627173D01*
X159249500Y-85821577D01*
X159249500Y-86018422D01*
X159280290Y-86212826D01*
X159341117Y-86400029D01*
X159366337Y-86449525D01*
X159430476Y-86575405D01*
X159546172Y-86734646D01*
X159685354Y-86873828D01*
X159844595Y-86989524D01*
X159967992Y-87052397D01*
X160021213Y-87079515D01*
X160072009Y-87127489D01*
X160088804Y-87195310D01*
X160066267Y-87261445D01*
X160021213Y-87300485D01*
X159844594Y-87390476D01*
X159776466Y-87439975D01*
X159685354Y-87506172D01*
X159685352Y-87506174D01*
X159685351Y-87506174D01*
X159546174Y-87645351D01*
X159546174Y-87645352D01*
X159546172Y-87645354D01*
X159496485Y-87713741D01*
X159430476Y-87804594D01*
X159341117Y-87979970D01*
X159280290Y-88167173D01*
X159249500Y-88361577D01*
X159249500Y-88558422D01*
X159280290Y-88752826D01*
X159341117Y-88940029D01*
X159366337Y-88989525D01*
X159430476Y-89115405D01*
X159546172Y-89274646D01*
X159685354Y-89413828D01*
X159844595Y-89529524D01*
X159967992Y-89592397D01*
X160021213Y-89619515D01*
X160072009Y-89667489D01*
X160088804Y-89735310D01*
X160066267Y-89801445D01*
X160021213Y-89840485D01*
X159844594Y-89930476D01*
X159776466Y-89979975D01*
X159685354Y-90046172D01*
X159685352Y-90046174D01*
X159685351Y-90046174D01*
X159546174Y-90185351D01*
X159546174Y-90185352D01*
X159546172Y-90185354D01*
X159496485Y-90253741D01*
X159430476Y-90344594D01*
X159341117Y-90519970D01*
X159280290Y-90707173D01*
X159249500Y-90901577D01*
X159249500Y-91098422D01*
X159280290Y-91292826D01*
X159341117Y-91480029D01*
X159366337Y-91529525D01*
X159430476Y-91655405D01*
X159546172Y-91814646D01*
X159685354Y-91953828D01*
X159844595Y-92069524D01*
X159967992Y-92132397D01*
X160021213Y-92159515D01*
X160072009Y-92207489D01*
X160088804Y-92275310D01*
X160066267Y-92341445D01*
X160021213Y-92380485D01*
X159844594Y-92470476D01*
X159776466Y-92519975D01*
X159685354Y-92586172D01*
X159685352Y-92586174D01*
X159685351Y-92586174D01*
X159546174Y-92725351D01*
X159546174Y-92725352D01*
X159546172Y-92725354D01*
X159496485Y-92793741D01*
X159430476Y-92884594D01*
X159341117Y-93059970D01*
X159280290Y-93247173D01*
X159249500Y-93441577D01*
X159249500Y-93638422D01*
X159280290Y-93832826D01*
X159341117Y-94020029D01*
X159366337Y-94069525D01*
X159430476Y-94195405D01*
X159546172Y-94354646D01*
X159685354Y-94493828D01*
X159844595Y-94609524D01*
X159967992Y-94672397D01*
X160021213Y-94699515D01*
X160072009Y-94747489D01*
X160088804Y-94815310D01*
X160066267Y-94881445D01*
X160021213Y-94920485D01*
X159844594Y-95010476D01*
X159776466Y-95059975D01*
X159685354Y-95126172D01*
X159685352Y-95126174D01*
X159685351Y-95126174D01*
X159546174Y-95265351D01*
X159546174Y-95265352D01*
X159546172Y-95265354D01*
X159496485Y-95333741D01*
X159430476Y-95424594D01*
X159341117Y-95599970D01*
X159280290Y-95787173D01*
X159249500Y-95981577D01*
X159249500Y-96178422D01*
X159280290Y-96372826D01*
X159341117Y-96560029D01*
X159366337Y-96609525D01*
X159430476Y-96735405D01*
X159546172Y-96894646D01*
X159685354Y-97033828D01*
X159844595Y-97149524D01*
X159967992Y-97212397D01*
X160021213Y-97239515D01*
X160072009Y-97287489D01*
X160088804Y-97355310D01*
X160066267Y-97421445D01*
X160021213Y-97460485D01*
X159844594Y-97550476D01*
X159776466Y-97599975D01*
X159685354Y-97666172D01*
X159685352Y-97666174D01*
X159685351Y-97666174D01*
X159546174Y-97805351D01*
X159546174Y-97805352D01*
X159546172Y-97805354D01*
X159496485Y-97873741D01*
X159430476Y-97964594D01*
X159341117Y-98139970D01*
X159280290Y-98327173D01*
X159249500Y-98521577D01*
X159249500Y-98718422D01*
X159280290Y-98912826D01*
X159341117Y-99100029D01*
X159366337Y-99149525D01*
X159430476Y-99275405D01*
X159546172Y-99434646D01*
X159685354Y-99573828D01*
X159844595Y-99689524D01*
X159967992Y-99752397D01*
X160021213Y-99779515D01*
X160072009Y-99827489D01*
X160088804Y-99895310D01*
X160066267Y-99961445D01*
X160021213Y-100000485D01*
X159844594Y-100090476D01*
X159753741Y-100156485D01*
X159685354Y-100206172D01*
X159685352Y-100206174D01*
X159685351Y-100206174D01*
X159546174Y-100345351D01*
X159546174Y-100345352D01*
X159546172Y-100345354D01*
X159525073Y-100374394D01*
X159430476Y-100504594D01*
X159341117Y-100679970D01*
X159280290Y-100867173D01*
X159249500Y-101061577D01*
X159249500Y-101258422D01*
X159280290Y-101452826D01*
X159341117Y-101640029D01*
X159366119Y-101689097D01*
X159430476Y-101815405D01*
X159546172Y-101974646D01*
X159685354Y-102113828D01*
X159844595Y-102229524D01*
X159896322Y-102255880D01*
X160021213Y-102319515D01*
X160072009Y-102367489D01*
X160088804Y-102435310D01*
X160066267Y-102501445D01*
X160021213Y-102540485D01*
X159844594Y-102630476D01*
X159776466Y-102679975D01*
X159685354Y-102746172D01*
X159685352Y-102746174D01*
X159685351Y-102746174D01*
X159546174Y-102885351D01*
X159546174Y-102885352D01*
X159546172Y-102885354D01*
X159499204Y-102950000D01*
X159430476Y-103044594D01*
X159341117Y-103219970D01*
X159280290Y-103407173D01*
X159249500Y-103601577D01*
X159249500Y-103798422D01*
X159280290Y-103992826D01*
X159341117Y-104180029D01*
X159409590Y-104314414D01*
X159430476Y-104355405D01*
X159546172Y-104514646D01*
X159685354Y-104653828D01*
X159844595Y-104769524D01*
X159931251Y-104813677D01*
X160021213Y-104859515D01*
X160072009Y-104907489D01*
X160088804Y-104975310D01*
X160066267Y-105041445D01*
X160021213Y-105080485D01*
X159844594Y-105170476D01*
X159756045Y-105234812D01*
X159685354Y-105286172D01*
X159685352Y-105286174D01*
X159685351Y-105286174D01*
X159546174Y-105425351D01*
X159546174Y-105425352D01*
X159546172Y-105425354D01*
X159527659Y-105450835D01*
X159430476Y-105584594D01*
X159341117Y-105759970D01*
X159280290Y-105947173D01*
X159249500Y-106141577D01*
X159249500Y-106338422D01*
X159280290Y-106532826D01*
X159341117Y-106720029D01*
X159430476Y-106895405D01*
X159546172Y-107054646D01*
X159685354Y-107193828D01*
X159844595Y-107309524D01*
X159967992Y-107372397D01*
X160021213Y-107399515D01*
X160072009Y-107447489D01*
X160088804Y-107515310D01*
X160066267Y-107581445D01*
X160021213Y-107620485D01*
X159844594Y-107710476D01*
X159753741Y-107776485D01*
X159685354Y-107826172D01*
X159685352Y-107826174D01*
X159685351Y-107826174D01*
X159546174Y-107965351D01*
X159546174Y-107965352D01*
X159546172Y-107965354D01*
X159496485Y-108033741D01*
X159430476Y-108124594D01*
X159341117Y-108299970D01*
X159280290Y-108487173D01*
X159249500Y-108681577D01*
X159249500Y-108878422D01*
X159280290Y-109072826D01*
X159341117Y-109260029D01*
X159430476Y-109435405D01*
X159546172Y-109594646D01*
X159685354Y-109733828D01*
X159844595Y-109849524D01*
X159967992Y-109912397D01*
X160021213Y-109939515D01*
X160072009Y-109987489D01*
X160088804Y-110055310D01*
X160066267Y-110121445D01*
X160021213Y-110160485D01*
X159844594Y-110250476D01*
X159753741Y-110316485D01*
X159685354Y-110366172D01*
X159685352Y-110366174D01*
X159685351Y-110366174D01*
X159546174Y-110505351D01*
X159546174Y-110505352D01*
X159546172Y-110505354D01*
X159496485Y-110573741D01*
X159430476Y-110664594D01*
X159341117Y-110839970D01*
X159280290Y-111027173D01*
X159249500Y-111221577D01*
X159249500Y-111418422D01*
X159280290Y-111612826D01*
X159341117Y-111800029D01*
X159430343Y-111975143D01*
X159430476Y-111975405D01*
X159546172Y-112134646D01*
X159685354Y-112273828D01*
X159844595Y-112389524D01*
X159927455Y-112431743D01*
X160019970Y-112478882D01*
X160019972Y-112478882D01*
X160019975Y-112478884D01*
X160109781Y-112508064D01*
X160207173Y-112539709D01*
X160401578Y-112570500D01*
X160401583Y-112570500D01*
X160598422Y-112570500D01*
X160792826Y-112539709D01*
X160794328Y-112539221D01*
X160980025Y-112478884D01*
X161155405Y-112389524D01*
X161314646Y-112273828D01*
X161453828Y-112134646D01*
X161569524Y-111975405D01*
X161658884Y-111800025D01*
X161719709Y-111612826D01*
X161727188Y-111565606D01*
X161750500Y-111418422D01*
X161750500Y-111221577D01*
X161719709Y-111027173D01*
X161658882Y-110839970D01*
X161611743Y-110747455D01*
X161569524Y-110664595D01*
X161453828Y-110505354D01*
X161314646Y-110366172D01*
X161190975Y-110276319D01*
X161155403Y-110250474D01*
X160978787Y-110160485D01*
X160927990Y-110112511D01*
X160911195Y-110044690D01*
X160933732Y-109978555D01*
X160978787Y-109939515D01*
X161155403Y-109849525D01*
X161155402Y-109849525D01*
X161155405Y-109849524D01*
X161314646Y-109733828D01*
X161453828Y-109594646D01*
X161569524Y-109435405D01*
X161658884Y-109260025D01*
X161719709Y-109072826D01*
X161750500Y-108878422D01*
X161750500Y-108681577D01*
X161719709Y-108487173D01*
X161658882Y-108299970D01*
X161569523Y-108124594D01*
X161453828Y-107965354D01*
X161314646Y-107826172D01*
X161235025Y-107768324D01*
X161155403Y-107710474D01*
X160978787Y-107620485D01*
X160927990Y-107572511D01*
X160911195Y-107504690D01*
X160933732Y-107438555D01*
X160978787Y-107399515D01*
X161155403Y-107309525D01*
X161155402Y-107309525D01*
X161155405Y-107309524D01*
X161314646Y-107193828D01*
X161453828Y-107054646D01*
X161569524Y-106895405D01*
X161658884Y-106720025D01*
X161719709Y-106532826D01*
X161750500Y-106338422D01*
X161750500Y-106141577D01*
X161719709Y-105947173D01*
X161658882Y-105759970D01*
X161569523Y-105584594D01*
X161453828Y-105425354D01*
X161314646Y-105286172D01*
X161235025Y-105228324D01*
X161155403Y-105170474D01*
X160978787Y-105080485D01*
X160927990Y-105032511D01*
X160911195Y-104964690D01*
X160933732Y-104898555D01*
X160978787Y-104859515D01*
X161155403Y-104769525D01*
X161155402Y-104769525D01*
X161155405Y-104769524D01*
X161314646Y-104653828D01*
X161453828Y-104514646D01*
X161569524Y-104355405D01*
X161658884Y-104180025D01*
X161719709Y-103992826D01*
X161722588Y-103974646D01*
X161750500Y-103798422D01*
X161750500Y-103601577D01*
X161719709Y-103407173D01*
X161682031Y-103291213D01*
X161658884Y-103219975D01*
X161658882Y-103219972D01*
X161658882Y-103219970D01*
X161605325Y-103114859D01*
X161569524Y-103044595D01*
X161453828Y-102885354D01*
X161314646Y-102746172D01*
X161223527Y-102679970D01*
X161155403Y-102630474D01*
X160978787Y-102540485D01*
X160927990Y-102492511D01*
X160911195Y-102424690D01*
X160933732Y-102358555D01*
X160978787Y-102319515D01*
X161155403Y-102229525D01*
X161155402Y-102229525D01*
X161155405Y-102229524D01*
X161314646Y-102113828D01*
X161453828Y-101974646D01*
X161569524Y-101815405D01*
X161658884Y-101640025D01*
X161719709Y-101452826D01*
X161736991Y-101343713D01*
X161750500Y-101258422D01*
X161750500Y-101061577D01*
X161719709Y-100867173D01*
X161658882Y-100679970D01*
X161578197Y-100521617D01*
X161569524Y-100504595D01*
X161453828Y-100345354D01*
X161314646Y-100206172D01*
X161223790Y-100140161D01*
X161155403Y-100090474D01*
X160978787Y-100000485D01*
X160927990Y-99952511D01*
X160911195Y-99884690D01*
X160933732Y-99818555D01*
X160978787Y-99779515D01*
X161155403Y-99689525D01*
X161155402Y-99689525D01*
X161155405Y-99689524D01*
X161314646Y-99573828D01*
X161453828Y-99434646D01*
X161569524Y-99275405D01*
X161658884Y-99100025D01*
X161719709Y-98912826D01*
X161722588Y-98894646D01*
X161750500Y-98718422D01*
X161750500Y-98521577D01*
X161719709Y-98327173D01*
X161671376Y-98178422D01*
X161658884Y-98139975D01*
X161658882Y-98139972D01*
X161658882Y-98139970D01*
X161611743Y-98047455D01*
X161569524Y-97964595D01*
X161453828Y-97805354D01*
X161314646Y-97666172D01*
X161223527Y-97599970D01*
X161155403Y-97550474D01*
X160978787Y-97460485D01*
X160927990Y-97412511D01*
X160911195Y-97344690D01*
X160933732Y-97278555D01*
X160978787Y-97239515D01*
X161155403Y-97149525D01*
X161155402Y-97149525D01*
X161155405Y-97149524D01*
X161314646Y-97033828D01*
X161453828Y-96894646D01*
X161569524Y-96735405D01*
X161658884Y-96560025D01*
X161719709Y-96372826D01*
X161722588Y-96354646D01*
X161750500Y-96178422D01*
X161750500Y-95981577D01*
X161719709Y-95787173D01*
X161671376Y-95638422D01*
X161658884Y-95599975D01*
X161658882Y-95599972D01*
X161658882Y-95599970D01*
X161611743Y-95507455D01*
X161569524Y-95424595D01*
X161453828Y-95265354D01*
X161314646Y-95126172D01*
X161223527Y-95059970D01*
X161155403Y-95010474D01*
X160978787Y-94920485D01*
X160927990Y-94872511D01*
X160911195Y-94804690D01*
X160933732Y-94738555D01*
X160978787Y-94699515D01*
X161155403Y-94609525D01*
X161155402Y-94609525D01*
X161155405Y-94609524D01*
X161314646Y-94493828D01*
X161453828Y-94354646D01*
X161569524Y-94195405D01*
X161658884Y-94020025D01*
X161719709Y-93832826D01*
X161722588Y-93814646D01*
X161750500Y-93638422D01*
X161750500Y-93441577D01*
X161719709Y-93247173D01*
X161671376Y-93098422D01*
X161658884Y-93059975D01*
X161658882Y-93059972D01*
X161658882Y-93059970D01*
X161611743Y-92967455D01*
X161569524Y-92884595D01*
X161453828Y-92725354D01*
X161314646Y-92586172D01*
X161223527Y-92519970D01*
X161155403Y-92470474D01*
X160978787Y-92380485D01*
X160927990Y-92332511D01*
X160911195Y-92264690D01*
X160933732Y-92198555D01*
X160978787Y-92159515D01*
X161155403Y-92069525D01*
X161155402Y-92069525D01*
X161155405Y-92069524D01*
X161314646Y-91953828D01*
X161453828Y-91814646D01*
X161569524Y-91655405D01*
X161658884Y-91480025D01*
X161719709Y-91292826D01*
X161722588Y-91274646D01*
X161750500Y-91098422D01*
X161750500Y-90901577D01*
X161719709Y-90707173D01*
X161671376Y-90558422D01*
X161658884Y-90519975D01*
X161658882Y-90519972D01*
X161658882Y-90519970D01*
X161611743Y-90427455D01*
X161569524Y-90344595D01*
X161453828Y-90185354D01*
X161314646Y-90046172D01*
X161223527Y-89979970D01*
X161155403Y-89930474D01*
X160978787Y-89840485D01*
X160927990Y-89792511D01*
X160911195Y-89724690D01*
X160933732Y-89658555D01*
X160978787Y-89619515D01*
X161155403Y-89529525D01*
X161155402Y-89529525D01*
X161155405Y-89529524D01*
X161314646Y-89413828D01*
X161453828Y-89274646D01*
X161569524Y-89115405D01*
X161658884Y-88940025D01*
X161719709Y-88752826D01*
X161722588Y-88734646D01*
X161750500Y-88558422D01*
X161750500Y-88361577D01*
X161719709Y-88167173D01*
X161671376Y-88018422D01*
X161658884Y-87979975D01*
X161658882Y-87979972D01*
X161658882Y-87979970D01*
X161611743Y-87887455D01*
X161569524Y-87804595D01*
X161453828Y-87645354D01*
X161314646Y-87506172D01*
X161223527Y-87439970D01*
X161155403Y-87390474D01*
X160978787Y-87300485D01*
X160927990Y-87252511D01*
X160911195Y-87184690D01*
X160933732Y-87118555D01*
X160978787Y-87079515D01*
X161155403Y-86989525D01*
X161155402Y-86989525D01*
X161155405Y-86989524D01*
X161314646Y-86873828D01*
X161453828Y-86734646D01*
X161569524Y-86575405D01*
X161658884Y-86400025D01*
X161719709Y-86212826D01*
X161722588Y-86194646D01*
X161750500Y-86018422D01*
X161750500Y-85821577D01*
X161719709Y-85627173D01*
X161671376Y-85478422D01*
X161658884Y-85439975D01*
X161658882Y-85439972D01*
X161658882Y-85439970D01*
X161611743Y-85347455D01*
X161569524Y-85264595D01*
X161453828Y-85105354D01*
X161314646Y-84966172D01*
X161223527Y-84899970D01*
X161155403Y-84850474D01*
X160978787Y-84760485D01*
X160927990Y-84712511D01*
X160911195Y-84644690D01*
X160933732Y-84578555D01*
X160978787Y-84539515D01*
X161155403Y-84449525D01*
X161155402Y-84449525D01*
X161155405Y-84449524D01*
X161314646Y-84333828D01*
X161453828Y-84194646D01*
X161569524Y-84035405D01*
X161658884Y-83860025D01*
X161719709Y-83672826D01*
X161722588Y-83654646D01*
X161750500Y-83478422D01*
X161750500Y-83281577D01*
X161719709Y-83087173D01*
X161671376Y-82938422D01*
X161658884Y-82899975D01*
X161658882Y-82899972D01*
X161658882Y-82899970D01*
X161611743Y-82807455D01*
X161569524Y-82724595D01*
X161453828Y-82565354D01*
X161314646Y-82426172D01*
X161223527Y-82359970D01*
X161155403Y-82310474D01*
X160978787Y-82220485D01*
X160927990Y-82172511D01*
X160911195Y-82104690D01*
X160933732Y-82038555D01*
X160978787Y-81999515D01*
X161155403Y-81909525D01*
X161155402Y-81909525D01*
X161155405Y-81909524D01*
X161314646Y-81793828D01*
X161453828Y-81654646D01*
X161569524Y-81495405D01*
X161658884Y-81320025D01*
X161719709Y-81132826D01*
X161722588Y-81114646D01*
X161750500Y-80938422D01*
X161750500Y-80741577D01*
X161719709Y-80547173D01*
X161671376Y-80398422D01*
X161658884Y-80359975D01*
X161658882Y-80359972D01*
X161658882Y-80359970D01*
X161611743Y-80267455D01*
X161569524Y-80184595D01*
X161453828Y-80025354D01*
X161314646Y-79886172D01*
X161223527Y-79819970D01*
X161155403Y-79770474D01*
X160978787Y-79680485D01*
X160927990Y-79632511D01*
X160911195Y-79564690D01*
X160933732Y-79498555D01*
X160978787Y-79459515D01*
X161155403Y-79369525D01*
X161155402Y-79369525D01*
X161155405Y-79369524D01*
X161314646Y-79253828D01*
X161453828Y-79114646D01*
X161569524Y-78955405D01*
X161658884Y-78780025D01*
X161719709Y-78592826D01*
X161722588Y-78574646D01*
X161750500Y-78398422D01*
X161750500Y-78201577D01*
X161719709Y-78007173D01*
X161671376Y-77858422D01*
X161658884Y-77819975D01*
X161658882Y-77819972D01*
X161658882Y-77819970D01*
X161611743Y-77727455D01*
X161569524Y-77644595D01*
X161453828Y-77485354D01*
X161314646Y-77346172D01*
X161223527Y-77279970D01*
X161155403Y-77230474D01*
X160978787Y-77140485D01*
X160927990Y-77092511D01*
X160911195Y-77024690D01*
X160933732Y-76958555D01*
X160978787Y-76919515D01*
X161155403Y-76829525D01*
X161155402Y-76829525D01*
X161155405Y-76829524D01*
X161314646Y-76713828D01*
X161453828Y-76574646D01*
X161569524Y-76415405D01*
X161658884Y-76240025D01*
X161719709Y-76052826D01*
X161732748Y-75970500D01*
X161750500Y-75858422D01*
X161750500Y-75661577D01*
X161719709Y-75467173D01*
X161671376Y-75318422D01*
X161658884Y-75279975D01*
X161658882Y-75279972D01*
X161658882Y-75279970D01*
X161594560Y-75153732D01*
X161569524Y-75104595D01*
X161453828Y-74945354D01*
X161314646Y-74806172D01*
X161223527Y-74739970D01*
X161155403Y-74690474D01*
X160978787Y-74600485D01*
X160927990Y-74552511D01*
X160911195Y-74484690D01*
X160933732Y-74418555D01*
X160978787Y-74379515D01*
X161155403Y-74289525D01*
X161155402Y-74289525D01*
X161155405Y-74289524D01*
X161314646Y-74173828D01*
X161453828Y-74034646D01*
X161569524Y-73875405D01*
X161658884Y-73700025D01*
X161719709Y-73512826D01*
X161721694Y-73500291D01*
X161750500Y-73318422D01*
X161750500Y-73121577D01*
X161719709Y-72927173D01*
X161671376Y-72778422D01*
X161658884Y-72739975D01*
X161658882Y-72739972D01*
X161658882Y-72739970D01*
X161611743Y-72647455D01*
X161569524Y-72564595D01*
X161453828Y-72405354D01*
X161314646Y-72266172D01*
X161223527Y-72199970D01*
X161155403Y-72150474D01*
X160978787Y-72060485D01*
X160927990Y-72012511D01*
X160911195Y-71944690D01*
X160933732Y-71878555D01*
X160978787Y-71839515D01*
X161155403Y-71749525D01*
X161155402Y-71749525D01*
X161155405Y-71749524D01*
X161314646Y-71633828D01*
X161453828Y-71494646D01*
X161569524Y-71335405D01*
X161658884Y-71160025D01*
X161719709Y-70972826D01*
X161722588Y-70954646D01*
X161750500Y-70778422D01*
X161750500Y-70581577D01*
X161719709Y-70387173D01*
X161671376Y-70238422D01*
X161658884Y-70199975D01*
X161658882Y-70199972D01*
X161658882Y-70199970D01*
X161604381Y-70093006D01*
X161569524Y-70024595D01*
X161453828Y-69865354D01*
X161314646Y-69726172D01*
X161223527Y-69659970D01*
X161155403Y-69610474D01*
X160978787Y-69520485D01*
X160927990Y-69472511D01*
X160911195Y-69404690D01*
X160933732Y-69338555D01*
X160978787Y-69299515D01*
X161155403Y-69209525D01*
X161155402Y-69209525D01*
X161155405Y-69209524D01*
X161314646Y-69093828D01*
X161453828Y-68954646D01*
X161569524Y-68795405D01*
X161658884Y-68620025D01*
X161719709Y-68432826D01*
X161750500Y-68238422D01*
X161750500Y-68041577D01*
X161719709Y-67847173D01*
X161658882Y-67659970D01*
X161569523Y-67484594D01*
X161453828Y-67325354D01*
X161314646Y-67186172D01*
X161235025Y-67128324D01*
X161155403Y-67070474D01*
X160978787Y-66980485D01*
X160927990Y-66932511D01*
X160911195Y-66864690D01*
X160933732Y-66798555D01*
X160978787Y-66759515D01*
X161155403Y-66669525D01*
X161155402Y-66669525D01*
X161155405Y-66669524D01*
X161314646Y-66553828D01*
X161453828Y-66414646D01*
X161569524Y-66255405D01*
X161658884Y-66080025D01*
X161719709Y-65892826D01*
X161750500Y-65698422D01*
X161750500Y-65501577D01*
X161719709Y-65307173D01*
X161658882Y-65119970D01*
X161569523Y-64944594D01*
X161453828Y-64785354D01*
X161314646Y-64646172D01*
X161235025Y-64588324D01*
X161155403Y-64530474D01*
X160978787Y-64440485D01*
X160927990Y-64392511D01*
X160911195Y-64324690D01*
X160933732Y-64258555D01*
X160978787Y-64219515D01*
X161155403Y-64129525D01*
X161155402Y-64129525D01*
X161155405Y-64129524D01*
X161314646Y-64013828D01*
X161453828Y-63874646D01*
X161569524Y-63715405D01*
X161658884Y-63540025D01*
X161719709Y-63352826D01*
X161750500Y-63158422D01*
X161750500Y-62961577D01*
X161719709Y-62767173D01*
X161658882Y-62579970D01*
X161569523Y-62404594D01*
X161453828Y-62245354D01*
X161314646Y-62106172D01*
X161235025Y-62048324D01*
X161155403Y-61990474D01*
X160978787Y-61900485D01*
X160927990Y-61852511D01*
X160911195Y-61784690D01*
X160933732Y-61718555D01*
X160978787Y-61679515D01*
X161155403Y-61589525D01*
X161155402Y-61589525D01*
X161155405Y-61589524D01*
X161314646Y-61473828D01*
X161453828Y-61334646D01*
X161569524Y-61175405D01*
X161658884Y-61000025D01*
X161719709Y-60812826D01*
X161723018Y-60791936D01*
X161750500Y-60618422D01*
X161750500Y-60421577D01*
X161719709Y-60227173D01*
X161691487Y-60140317D01*
X161658884Y-60039975D01*
X161658882Y-60039972D01*
X161658882Y-60039970D01*
X161569523Y-59864594D01*
X161453828Y-59705354D01*
X161314646Y-59566172D01*
X161155405Y-59450476D01*
X160980025Y-59361116D01*
X160980024Y-59361115D01*
X160978235Y-59360204D01*
X160927439Y-59312230D01*
X160910644Y-59244409D01*
X160933181Y-59178274D01*
X160978236Y-59139234D01*
X161155141Y-59049097D01*
X161190125Y-59023678D01*
X161190126Y-59023678D01*
X160546448Y-58380000D01*
X160552661Y-58380000D01*
X160654394Y-58352741D01*
X160745606Y-58300080D01*
X160820080Y-58225606D01*
X160872741Y-58134394D01*
X160900000Y-58032661D01*
X160900000Y-58026447D01*
X161543678Y-58670126D01*
X161543678Y-58670125D01*
X161569095Y-58635143D01*
X161658418Y-58459835D01*
X161719221Y-58272705D01*
X161750000Y-58078382D01*
X161750000Y-57881617D01*
X161719221Y-57687294D01*
X161658418Y-57500164D01*
X161569096Y-57324858D01*
X161543678Y-57289873D01*
X161543677Y-57289873D01*
X160900000Y-57933551D01*
X160900000Y-57927339D01*
X160872741Y-57825606D01*
X160820080Y-57734394D01*
X160745606Y-57659920D01*
X160654394Y-57607259D01*
X160552661Y-57580000D01*
X160546447Y-57580000D01*
X161190125Y-56936320D01*
X161188410Y-56914529D01*
X161202774Y-56846152D01*
X161251824Y-56796395D01*
X161311656Y-56780800D01*
X185138901Y-56709727D01*
X185205998Y-56729211D01*
X185251910Y-56781878D01*
X185262060Y-56851007D01*
X185233225Y-56914649D01*
X185212156Y-56934044D01*
X185085352Y-57026173D01*
X184946174Y-57165351D01*
X184946174Y-57165352D01*
X184946172Y-57165354D01*
X184896485Y-57233741D01*
X184830476Y-57324594D01*
X184741117Y-57499970D01*
X184680290Y-57687173D01*
X184649500Y-57881577D01*
X184649500Y-58078422D01*
X184680290Y-58272826D01*
X184741117Y-58460029D01*
X184830343Y-58635143D01*
X184830476Y-58635405D01*
X184946172Y-58794646D01*
X185085354Y-58933828D01*
X185244595Y-59049524D01*
X185367992Y-59112397D01*
X185421213Y-59139515D01*
X185472009Y-59187489D01*
X185488804Y-59255310D01*
X185466267Y-59321445D01*
X185421213Y-59360485D01*
X185244594Y-59450476D01*
X185153741Y-59516485D01*
X185085354Y-59566172D01*
X185085352Y-59566174D01*
X185085351Y-59566174D01*
X184946174Y-59705351D01*
X184946174Y-59705352D01*
X184946172Y-59705354D01*
X184896485Y-59773741D01*
X184830476Y-59864594D01*
X184741117Y-60039970D01*
X184680290Y-60227173D01*
X184649500Y-60421577D01*
X184649500Y-60618422D01*
X184680290Y-60812826D01*
X184741117Y-61000029D01*
X184792310Y-61100500D01*
X184830476Y-61175405D01*
X184946172Y-61334646D01*
X185085354Y-61473828D01*
X185244595Y-61589524D01*
X185367992Y-61652397D01*
X185421213Y-61679515D01*
X185472009Y-61727489D01*
X185488804Y-61795310D01*
X185466267Y-61861445D01*
X185421213Y-61900485D01*
X185244594Y-61990476D01*
X185153741Y-62056485D01*
X185085354Y-62106172D01*
X185085352Y-62106174D01*
X185085351Y-62106174D01*
X184946174Y-62245351D01*
X184946174Y-62245352D01*
X184946172Y-62245354D01*
X184896485Y-62313741D01*
X184830476Y-62404594D01*
X184741117Y-62579970D01*
X184680290Y-62767173D01*
X184649500Y-62961577D01*
X184649500Y-63158422D01*
X184680290Y-63352826D01*
X184741117Y-63540029D01*
X184830476Y-63715405D01*
X184946172Y-63874646D01*
X185085354Y-64013828D01*
X185244595Y-64129524D01*
X185367992Y-64192397D01*
X185421213Y-64219515D01*
X185472009Y-64267489D01*
X185488804Y-64335310D01*
X185466267Y-64401445D01*
X185421213Y-64440485D01*
X185244594Y-64530476D01*
X185153741Y-64596485D01*
X185085354Y-64646172D01*
X185085352Y-64646174D01*
X185085351Y-64646174D01*
X184946174Y-64785351D01*
X184946174Y-64785352D01*
X184946172Y-64785354D01*
X184896485Y-64853741D01*
X184830476Y-64944594D01*
X184741117Y-65119970D01*
X184680290Y-65307173D01*
X184649500Y-65501577D01*
X184649500Y-65698422D01*
X184680290Y-65892826D01*
X184741117Y-66080029D01*
X184830476Y-66255405D01*
X184946172Y-66414646D01*
X185085354Y-66553828D01*
X185244595Y-66669524D01*
X185367992Y-66732397D01*
X185421213Y-66759515D01*
X185472009Y-66807489D01*
X185488804Y-66875310D01*
X185466267Y-66941445D01*
X185421213Y-66980485D01*
X185244594Y-67070476D01*
X185153741Y-67136485D01*
X185085354Y-67186172D01*
X185085352Y-67186174D01*
X185085351Y-67186174D01*
X184946174Y-67325351D01*
X184946174Y-67325352D01*
X184946172Y-67325354D01*
X184928266Y-67350000D01*
X184830476Y-67484594D01*
X184741117Y-67659970D01*
X184680290Y-67847173D01*
X184649500Y-68041577D01*
X184649500Y-68238422D01*
X184680290Y-68432826D01*
X184741117Y-68620029D01*
X184783239Y-68702697D01*
X184830476Y-68795405D01*
X184946172Y-68954646D01*
X185085354Y-69093828D01*
X185244595Y-69209524D01*
X185293331Y-69234356D01*
X185421213Y-69299515D01*
X185472009Y-69347489D01*
X185488804Y-69415310D01*
X185466267Y-69481445D01*
X185421213Y-69520485D01*
X185244594Y-69610476D01*
X185176466Y-69659975D01*
X185085354Y-69726172D01*
X185085352Y-69726174D01*
X185085351Y-69726174D01*
X184946174Y-69865351D01*
X184946174Y-69865352D01*
X184946172Y-69865354D01*
X184896485Y-69933741D01*
X184830476Y-70024594D01*
X184741117Y-70199970D01*
X184680290Y-70387173D01*
X184649500Y-70581577D01*
X184649500Y-70778422D01*
X184680290Y-70972826D01*
X184741117Y-71160029D01*
X184766337Y-71209525D01*
X184830476Y-71335405D01*
X184946172Y-71494646D01*
X185085354Y-71633828D01*
X185244595Y-71749524D01*
X185367992Y-71812397D01*
X185421213Y-71839515D01*
X185472009Y-71887489D01*
X185488804Y-71955310D01*
X185466267Y-72021445D01*
X185421213Y-72060485D01*
X185244594Y-72150476D01*
X185176466Y-72199975D01*
X185085354Y-72266172D01*
X185085352Y-72266174D01*
X185085351Y-72266174D01*
X184946174Y-72405351D01*
X184946174Y-72405352D01*
X184946172Y-72405354D01*
X184896485Y-72473741D01*
X184830476Y-72564594D01*
X184741117Y-72739970D01*
X184680290Y-72927173D01*
X184649500Y-73121577D01*
X184649500Y-73318422D01*
X184680290Y-73512826D01*
X184741117Y-73700029D01*
X184766337Y-73749525D01*
X184830476Y-73875405D01*
X184946172Y-74034646D01*
X185085354Y-74173828D01*
X185244595Y-74289524D01*
X185283516Y-74309355D01*
X185421213Y-74379515D01*
X185472009Y-74427489D01*
X185488804Y-74495310D01*
X185466267Y-74561445D01*
X185421213Y-74600485D01*
X185244594Y-74690476D01*
X185176466Y-74739975D01*
X185085354Y-74806172D01*
X185085352Y-74806174D01*
X185085351Y-74806174D01*
X184946174Y-74945351D01*
X184946174Y-74945352D01*
X184946172Y-74945354D01*
X184931458Y-74965606D01*
X184830476Y-75104594D01*
X184741117Y-75279970D01*
X184680290Y-75467173D01*
X184649500Y-75661577D01*
X184649500Y-75858422D01*
X184680290Y-76052826D01*
X184741117Y-76240029D01*
X184766337Y-76289525D01*
X184830476Y-76415405D01*
X184946172Y-76574646D01*
X185085354Y-76713828D01*
X185244595Y-76829524D01*
X185367992Y-76892397D01*
X185421213Y-76919515D01*
X185472009Y-76967489D01*
X185488804Y-77035310D01*
X185466267Y-77101445D01*
X185421213Y-77140485D01*
X185244594Y-77230476D01*
X185176466Y-77279975D01*
X185085354Y-77346172D01*
X185085352Y-77346174D01*
X185085351Y-77346174D01*
X184946174Y-77485351D01*
X184946174Y-77485352D01*
X184946172Y-77485354D01*
X184896485Y-77553741D01*
X184830476Y-77644594D01*
X184741117Y-77819970D01*
X184680290Y-78007173D01*
X184649500Y-78201577D01*
X184649500Y-78398422D01*
X184680290Y-78592826D01*
X184741117Y-78780029D01*
X184766337Y-78829525D01*
X184830476Y-78955405D01*
X184946172Y-79114646D01*
X185085354Y-79253828D01*
X185244595Y-79369524D01*
X185367992Y-79432397D01*
X185421213Y-79459515D01*
X185472009Y-79507489D01*
X185488804Y-79575310D01*
X185466267Y-79641445D01*
X185421213Y-79680485D01*
X185244594Y-79770476D01*
X185176466Y-79819975D01*
X185085354Y-79886172D01*
X185085352Y-79886174D01*
X185085351Y-79886174D01*
X184946174Y-80025351D01*
X184946174Y-80025352D01*
X184946172Y-80025354D01*
X184896485Y-80093741D01*
X184830476Y-80184594D01*
X184741117Y-80359970D01*
X184680290Y-80547173D01*
X184649500Y-80741577D01*
X184649500Y-80938422D01*
X184680290Y-81132826D01*
X184741117Y-81320029D01*
X184766337Y-81369525D01*
X184830476Y-81495405D01*
X184946172Y-81654646D01*
X185085354Y-81793828D01*
X185244595Y-81909524D01*
X185367992Y-81972397D01*
X185421213Y-81999515D01*
X185472009Y-82047489D01*
X185488804Y-82115310D01*
X185466267Y-82181445D01*
X185421213Y-82220485D01*
X185244594Y-82310476D01*
X185176466Y-82359975D01*
X185085354Y-82426172D01*
X185085352Y-82426174D01*
X185085351Y-82426174D01*
X184946174Y-82565351D01*
X184946174Y-82565352D01*
X184946172Y-82565354D01*
X184896485Y-82633741D01*
X184830476Y-82724594D01*
X184741117Y-82899970D01*
X184680290Y-83087173D01*
X184649500Y-83281577D01*
X184649500Y-83478422D01*
X184680290Y-83672826D01*
X184741117Y-83860029D01*
X184766337Y-83909525D01*
X184830476Y-84035405D01*
X184946172Y-84194646D01*
X185085354Y-84333828D01*
X185244595Y-84449524D01*
X185367992Y-84512397D01*
X185421213Y-84539515D01*
X185472009Y-84587489D01*
X185488804Y-84655310D01*
X185466267Y-84721445D01*
X185421213Y-84760485D01*
X185244594Y-84850476D01*
X185176466Y-84899975D01*
X185085354Y-84966172D01*
X185085352Y-84966174D01*
X185085351Y-84966174D01*
X184946174Y-85105351D01*
X184946174Y-85105352D01*
X184946172Y-85105354D01*
X184896485Y-85173741D01*
X184830476Y-85264594D01*
X184741117Y-85439970D01*
X184680290Y-85627173D01*
X184649500Y-85821577D01*
X184649500Y-86018422D01*
X184680290Y-86212826D01*
X184741117Y-86400029D01*
X184766337Y-86449525D01*
X184830476Y-86575405D01*
X184946172Y-86734646D01*
X185085354Y-86873828D01*
X185244595Y-86989524D01*
X185367992Y-87052397D01*
X185421213Y-87079515D01*
X185472009Y-87127489D01*
X185488804Y-87195310D01*
X185466267Y-87261445D01*
X185421213Y-87300485D01*
X185244594Y-87390476D01*
X185176466Y-87439975D01*
X185085354Y-87506172D01*
X185085352Y-87506174D01*
X185085351Y-87506174D01*
X184946174Y-87645351D01*
X184946174Y-87645352D01*
X184946172Y-87645354D01*
X184896485Y-87713741D01*
X184830476Y-87804594D01*
X184741117Y-87979970D01*
X184680290Y-88167173D01*
X184649500Y-88361577D01*
X184649500Y-88558422D01*
X184680290Y-88752826D01*
X184741117Y-88940029D01*
X184766337Y-88989525D01*
X184830476Y-89115405D01*
X184946172Y-89274646D01*
X185085354Y-89413828D01*
X185244595Y-89529524D01*
X185367992Y-89592397D01*
X185421213Y-89619515D01*
X185472009Y-89667489D01*
X185488804Y-89735310D01*
X185466267Y-89801445D01*
X185421213Y-89840485D01*
X185244594Y-89930476D01*
X185176466Y-89979975D01*
X185085354Y-90046172D01*
X185085352Y-90046174D01*
X185085351Y-90046174D01*
X184946174Y-90185351D01*
X184946174Y-90185352D01*
X184946172Y-90185354D01*
X184896485Y-90253741D01*
X184830476Y-90344594D01*
X184741117Y-90519970D01*
X184680290Y-90707173D01*
X184649500Y-90901577D01*
X184649500Y-91098422D01*
X184680290Y-91292826D01*
X184741117Y-91480029D01*
X184766337Y-91529525D01*
X184830476Y-91655405D01*
X184946172Y-91814646D01*
X185085354Y-91953828D01*
X185244595Y-92069524D01*
X185367992Y-92132397D01*
X185421213Y-92159515D01*
X185472009Y-92207489D01*
X185488804Y-92275310D01*
X185466267Y-92341445D01*
X185421213Y-92380485D01*
X185244594Y-92470476D01*
X185176466Y-92519975D01*
X185085354Y-92586172D01*
X185085352Y-92586174D01*
X185085351Y-92586174D01*
X184946174Y-92725351D01*
X184946174Y-92725352D01*
X184946172Y-92725354D01*
X184896485Y-92793741D01*
X184830476Y-92884594D01*
X184741117Y-93059970D01*
X184680290Y-93247173D01*
X184649500Y-93441577D01*
X184649500Y-93638422D01*
X184680290Y-93832826D01*
X184741117Y-94020029D01*
X184766337Y-94069525D01*
X184830476Y-94195405D01*
X184946172Y-94354646D01*
X185085354Y-94493828D01*
X185244595Y-94609524D01*
X185367992Y-94672397D01*
X185421213Y-94699515D01*
X185472009Y-94747489D01*
X185488804Y-94815310D01*
X185466267Y-94881445D01*
X185421213Y-94920485D01*
X185244594Y-95010476D01*
X185176466Y-95059975D01*
X185085354Y-95126172D01*
X185085352Y-95126174D01*
X185085351Y-95126174D01*
X184946174Y-95265351D01*
X184946174Y-95265352D01*
X184946172Y-95265354D01*
X184896485Y-95333741D01*
X184830476Y-95424594D01*
X184741117Y-95599970D01*
X184680290Y-95787173D01*
X184649500Y-95981577D01*
X184649500Y-96178422D01*
X184680290Y-96372826D01*
X184741117Y-96560029D01*
X184766337Y-96609525D01*
X184830476Y-96735405D01*
X184946172Y-96894646D01*
X185085354Y-97033828D01*
X185244595Y-97149524D01*
X185367992Y-97212397D01*
X185421213Y-97239515D01*
X185472009Y-97287489D01*
X185488804Y-97355310D01*
X185466267Y-97421445D01*
X185421213Y-97460485D01*
X185244594Y-97550476D01*
X185176466Y-97599975D01*
X185085354Y-97666172D01*
X185085352Y-97666174D01*
X185085351Y-97666174D01*
X184946174Y-97805351D01*
X184946174Y-97805352D01*
X184946172Y-97805354D01*
X184896485Y-97873741D01*
X184830476Y-97964594D01*
X184741117Y-98139970D01*
X184680290Y-98327173D01*
X184649500Y-98521577D01*
X184649500Y-98718422D01*
X184680290Y-98912826D01*
X184741117Y-99100029D01*
X184766337Y-99149525D01*
X184830476Y-99275405D01*
X184946172Y-99434646D01*
X185085354Y-99573828D01*
X185244595Y-99689524D01*
X185367992Y-99752397D01*
X185421213Y-99779515D01*
X185472009Y-99827489D01*
X185488804Y-99895310D01*
X185466267Y-99961445D01*
X185421213Y-100000485D01*
X185244594Y-100090476D01*
X185153741Y-100156485D01*
X185085354Y-100206172D01*
X185085352Y-100206174D01*
X185085351Y-100206174D01*
X184946174Y-100345351D01*
X184946174Y-100345352D01*
X184946172Y-100345354D01*
X184925073Y-100374394D01*
X184830476Y-100504594D01*
X184741117Y-100679970D01*
X184680290Y-100867173D01*
X184649500Y-101061577D01*
X184649500Y-101258422D01*
X184680290Y-101452826D01*
X184741117Y-101640029D01*
X184766119Y-101689097D01*
X184830476Y-101815405D01*
X184946172Y-101974646D01*
X185085354Y-102113828D01*
X185244595Y-102229524D01*
X185296322Y-102255880D01*
X185421213Y-102319515D01*
X185472009Y-102367489D01*
X185488804Y-102435310D01*
X185466267Y-102501445D01*
X185421213Y-102540485D01*
X185244594Y-102630476D01*
X185176466Y-102679975D01*
X185085354Y-102746172D01*
X185085352Y-102746174D01*
X185085351Y-102746174D01*
X184946174Y-102885351D01*
X184946174Y-102885352D01*
X184946172Y-102885354D01*
X184899204Y-102950000D01*
X184830476Y-103044594D01*
X184741117Y-103219970D01*
X184680290Y-103407173D01*
X184649500Y-103601577D01*
X184649500Y-103798422D01*
X184680290Y-103992826D01*
X184741117Y-104180029D01*
X184809590Y-104314414D01*
X184830476Y-104355405D01*
X184946172Y-104514646D01*
X185085354Y-104653828D01*
X185244595Y-104769524D01*
X185331251Y-104813677D01*
X185421213Y-104859515D01*
X185472009Y-104907489D01*
X185488804Y-104975310D01*
X185466267Y-105041445D01*
X185421213Y-105080485D01*
X185244594Y-105170476D01*
X185156045Y-105234812D01*
X185085354Y-105286172D01*
X185085352Y-105286174D01*
X185085351Y-105286174D01*
X184946174Y-105425351D01*
X184946174Y-105425352D01*
X184946172Y-105425354D01*
X184927659Y-105450835D01*
X184830476Y-105584594D01*
X184741117Y-105759970D01*
X184680290Y-105947173D01*
X184649500Y-106141577D01*
X184649500Y-106338422D01*
X184680290Y-106532826D01*
X184741117Y-106720029D01*
X184830476Y-106895405D01*
X184946172Y-107054646D01*
X185085354Y-107193828D01*
X185244595Y-107309524D01*
X185367992Y-107372397D01*
X185421213Y-107399515D01*
X185472009Y-107447489D01*
X185488804Y-107515310D01*
X185466267Y-107581445D01*
X185421213Y-107620485D01*
X185244594Y-107710476D01*
X185153741Y-107776485D01*
X185085354Y-107826172D01*
X185085352Y-107826174D01*
X185085351Y-107826174D01*
X184946174Y-107965351D01*
X184946174Y-107965352D01*
X184946172Y-107965354D01*
X184896485Y-108033741D01*
X184830476Y-108124594D01*
X184741117Y-108299970D01*
X184680290Y-108487173D01*
X184649500Y-108681577D01*
X184649500Y-108878422D01*
X184680290Y-109072826D01*
X184741117Y-109260029D01*
X184830476Y-109435405D01*
X184946172Y-109594646D01*
X185085354Y-109733828D01*
X185204784Y-109820600D01*
X185244596Y-109849525D01*
X185421763Y-109939795D01*
X185472560Y-109987769D01*
X185489355Y-110055590D01*
X185466818Y-110121725D01*
X185421764Y-110160765D01*
X185244859Y-110250902D01*
X185209873Y-110276320D01*
X185209872Y-110276320D01*
X185853554Y-110920000D01*
X185847339Y-110920000D01*
X185745606Y-110947259D01*
X185654394Y-110999920D01*
X185579920Y-111074394D01*
X185527259Y-111165606D01*
X185500000Y-111267339D01*
X185500000Y-111273552D01*
X184856320Y-110629872D01*
X184856320Y-110629873D01*
X184830902Y-110664859D01*
X184830899Y-110664863D01*
X184741582Y-110840161D01*
X184680778Y-111027294D01*
X184650000Y-111221617D01*
X184650000Y-111418382D01*
X184680778Y-111612705D01*
X184741581Y-111799835D01*
X184830905Y-111975145D01*
X184856319Y-112010125D01*
X184856320Y-112010125D01*
X185500000Y-111366445D01*
X185500000Y-111372661D01*
X185527259Y-111474394D01*
X185579920Y-111565606D01*
X185654394Y-111640080D01*
X185745606Y-111692741D01*
X185847339Y-111720000D01*
X185853553Y-111720000D01*
X185209873Y-112363677D01*
X185209873Y-112363678D01*
X185244858Y-112389096D01*
X185420164Y-112478418D01*
X185607294Y-112539221D01*
X185801618Y-112570000D01*
X185998382Y-112570000D01*
X186192705Y-112539221D01*
X186379835Y-112478418D01*
X186555143Y-112389095D01*
X186590125Y-112363678D01*
X186590126Y-112363678D01*
X185946448Y-111720000D01*
X185952661Y-111720000D01*
X186054394Y-111692741D01*
X186145606Y-111640080D01*
X186220080Y-111565606D01*
X186272741Y-111474394D01*
X186300000Y-111372661D01*
X186300000Y-111366448D01*
X186943678Y-112010126D01*
X186943678Y-112010125D01*
X186969095Y-111975143D01*
X187058418Y-111799835D01*
X187119221Y-111612705D01*
X187150000Y-111418382D01*
X187150000Y-111221617D01*
X187119221Y-111027294D01*
X187058418Y-110840164D01*
X186969096Y-110664858D01*
X186943678Y-110629873D01*
X186943677Y-110629873D01*
X186300000Y-111273551D01*
X186300000Y-111267339D01*
X186272741Y-111165606D01*
X186220080Y-111074394D01*
X186145606Y-110999920D01*
X186054394Y-110947259D01*
X185952661Y-110920000D01*
X185946447Y-110920000D01*
X186590125Y-110276320D01*
X186590125Y-110276319D01*
X186555145Y-110250905D01*
X186378235Y-110160765D01*
X186327439Y-110112790D01*
X186310644Y-110044969D01*
X186333182Y-109978834D01*
X186378236Y-109939795D01*
X186380022Y-109938884D01*
X186380025Y-109938884D01*
X186555405Y-109849524D01*
X186714646Y-109733828D01*
X186853828Y-109594646D01*
X186969524Y-109435405D01*
X187058884Y-109260025D01*
X187119709Y-109072826D01*
X187150500Y-108878422D01*
X187150500Y-108681577D01*
X187119709Y-108487173D01*
X187058882Y-108299970D01*
X186969523Y-108124594D01*
X186853828Y-107965354D01*
X186714646Y-107826172D01*
X186635025Y-107768324D01*
X186555403Y-107710474D01*
X186378787Y-107620485D01*
X186327990Y-107572511D01*
X186311195Y-107504690D01*
X186333732Y-107438555D01*
X186378787Y-107399515D01*
X186555403Y-107309525D01*
X186555402Y-107309525D01*
X186555405Y-107309524D01*
X186714646Y-107193828D01*
X186853828Y-107054646D01*
X186969524Y-106895405D01*
X187058884Y-106720025D01*
X187119709Y-106532826D01*
X187150500Y-106338422D01*
X187150500Y-106141577D01*
X187119709Y-105947173D01*
X187058882Y-105759970D01*
X186969523Y-105584594D01*
X186853828Y-105425354D01*
X186714646Y-105286172D01*
X186635025Y-105228324D01*
X186555403Y-105170474D01*
X186378787Y-105080485D01*
X186327990Y-105032511D01*
X186311195Y-104964690D01*
X186333732Y-104898555D01*
X186378787Y-104859515D01*
X186555403Y-104769525D01*
X186555402Y-104769525D01*
X186555405Y-104769524D01*
X186714646Y-104653828D01*
X186853828Y-104514646D01*
X186969524Y-104355405D01*
X187058884Y-104180025D01*
X187119709Y-103992826D01*
X187122588Y-103974646D01*
X187150500Y-103798422D01*
X187150500Y-103601577D01*
X187119709Y-103407173D01*
X187082031Y-103291213D01*
X187058884Y-103219975D01*
X187058882Y-103219972D01*
X187058882Y-103219970D01*
X187004381Y-103113006D01*
X186987498Y-103079872D01*
X186969524Y-103044595D01*
X186853828Y-102885354D01*
X186714646Y-102746172D01*
X186623527Y-102679970D01*
X186555403Y-102630474D01*
X186378787Y-102540485D01*
X186327990Y-102492511D01*
X186311195Y-102424690D01*
X186333732Y-102358555D01*
X186378787Y-102319515D01*
X186555403Y-102229525D01*
X186555402Y-102229525D01*
X186555405Y-102229524D01*
X186714646Y-102113828D01*
X186853828Y-101974646D01*
X186969524Y-101815405D01*
X187058884Y-101640025D01*
X187119709Y-101452826D01*
X187136991Y-101343713D01*
X187150500Y-101258422D01*
X187150500Y-101061577D01*
X187119709Y-100867173D01*
X187058882Y-100679970D01*
X187004401Y-100573046D01*
X187004400Y-100573044D01*
X186969525Y-100504596D01*
X186907986Y-100419896D01*
X186853828Y-100345354D01*
X186714646Y-100206172D01*
X186623790Y-100140161D01*
X186555403Y-100090474D01*
X186378787Y-100000485D01*
X186327990Y-99952511D01*
X186311195Y-99884690D01*
X186333732Y-99818555D01*
X186378787Y-99779515D01*
X186555403Y-99689525D01*
X186555402Y-99689525D01*
X186555405Y-99689524D01*
X186714646Y-99573828D01*
X186853828Y-99434646D01*
X186969524Y-99275405D01*
X187058884Y-99100025D01*
X187119709Y-98912826D01*
X187122588Y-98894646D01*
X187150500Y-98718422D01*
X187150500Y-98521577D01*
X187119709Y-98327173D01*
X187071376Y-98178422D01*
X187058884Y-98139975D01*
X187058882Y-98139972D01*
X187058882Y-98139970D01*
X187011743Y-98047455D01*
X186969524Y-97964595D01*
X186853828Y-97805354D01*
X186714646Y-97666172D01*
X186623527Y-97599970D01*
X186555403Y-97550474D01*
X186378787Y-97460485D01*
X186327990Y-97412511D01*
X186311195Y-97344690D01*
X186333732Y-97278555D01*
X186378787Y-97239515D01*
X186555403Y-97149525D01*
X186555402Y-97149525D01*
X186555405Y-97149524D01*
X186714646Y-97033828D01*
X186853828Y-96894646D01*
X186969524Y-96735405D01*
X187058884Y-96560025D01*
X187119709Y-96372826D01*
X187122588Y-96354646D01*
X187150500Y-96178422D01*
X187150500Y-95981577D01*
X187119709Y-95787173D01*
X187071376Y-95638422D01*
X187058884Y-95599975D01*
X187058882Y-95599972D01*
X187058882Y-95599970D01*
X187011743Y-95507455D01*
X186969524Y-95424595D01*
X186853828Y-95265354D01*
X186714646Y-95126172D01*
X186623527Y-95059970D01*
X186555403Y-95010474D01*
X186378787Y-94920485D01*
X186327990Y-94872511D01*
X186311195Y-94804690D01*
X186333732Y-94738555D01*
X186378787Y-94699515D01*
X186555403Y-94609525D01*
X186555402Y-94609525D01*
X186555405Y-94609524D01*
X186714646Y-94493828D01*
X186853828Y-94354646D01*
X186969524Y-94195405D01*
X187058884Y-94020025D01*
X187119709Y-93832826D01*
X187122588Y-93814646D01*
X187150500Y-93638422D01*
X187150500Y-93441577D01*
X187119709Y-93247173D01*
X187071376Y-93098422D01*
X187058884Y-93059975D01*
X187058882Y-93059972D01*
X187058882Y-93059970D01*
X187011743Y-92967455D01*
X186969524Y-92884595D01*
X186853828Y-92725354D01*
X186714646Y-92586172D01*
X186623527Y-92519970D01*
X186555403Y-92470474D01*
X186378787Y-92380485D01*
X186327990Y-92332511D01*
X186311195Y-92264690D01*
X186333732Y-92198555D01*
X186378787Y-92159515D01*
X186555403Y-92069525D01*
X186555402Y-92069525D01*
X186555405Y-92069524D01*
X186714646Y-91953828D01*
X186853828Y-91814646D01*
X186969524Y-91655405D01*
X187058884Y-91480025D01*
X187119709Y-91292826D01*
X187122588Y-91274646D01*
X187150500Y-91098422D01*
X187150500Y-90901577D01*
X187119709Y-90707173D01*
X187071376Y-90558422D01*
X187058884Y-90519975D01*
X187058882Y-90519972D01*
X187058882Y-90519970D01*
X187011743Y-90427455D01*
X186969524Y-90344595D01*
X186853828Y-90185354D01*
X186714646Y-90046172D01*
X186623527Y-89979970D01*
X186555403Y-89930474D01*
X186378787Y-89840485D01*
X186327990Y-89792511D01*
X186311195Y-89724690D01*
X186333732Y-89658555D01*
X186378787Y-89619515D01*
X186555403Y-89529525D01*
X186555402Y-89529525D01*
X186555405Y-89529524D01*
X186714646Y-89413828D01*
X186853828Y-89274646D01*
X186969524Y-89115405D01*
X187058884Y-88940025D01*
X187119709Y-88752826D01*
X187122588Y-88734646D01*
X187150500Y-88558422D01*
X187150500Y-88361577D01*
X187119709Y-88167173D01*
X187071376Y-88018422D01*
X187058884Y-87979975D01*
X187058882Y-87979972D01*
X187058882Y-87979970D01*
X187011743Y-87887455D01*
X186969524Y-87804595D01*
X186853828Y-87645354D01*
X186714646Y-87506172D01*
X186623527Y-87439970D01*
X186555403Y-87390474D01*
X186378787Y-87300485D01*
X186327990Y-87252511D01*
X186311195Y-87184690D01*
X186333732Y-87118555D01*
X186378787Y-87079515D01*
X186555403Y-86989525D01*
X186555402Y-86989525D01*
X186555405Y-86989524D01*
X186714646Y-86873828D01*
X186853828Y-86734646D01*
X186969524Y-86575405D01*
X187058884Y-86400025D01*
X187119709Y-86212826D01*
X187122588Y-86194646D01*
X187150500Y-86018422D01*
X187150500Y-85821577D01*
X187119709Y-85627173D01*
X187071376Y-85478422D01*
X187058884Y-85439975D01*
X187058882Y-85439972D01*
X187058882Y-85439970D01*
X187011743Y-85347455D01*
X186969524Y-85264595D01*
X186853828Y-85105354D01*
X186714646Y-84966172D01*
X186623527Y-84899970D01*
X186555403Y-84850474D01*
X186378787Y-84760485D01*
X186327990Y-84712511D01*
X186311195Y-84644690D01*
X186333732Y-84578555D01*
X186378787Y-84539515D01*
X186555403Y-84449525D01*
X186555402Y-84449525D01*
X186555405Y-84449524D01*
X186714646Y-84333828D01*
X186853828Y-84194646D01*
X186969524Y-84035405D01*
X187058884Y-83860025D01*
X187119709Y-83672826D01*
X187122588Y-83654646D01*
X187150500Y-83478422D01*
X187150500Y-83281577D01*
X187119709Y-83087173D01*
X187071376Y-82938422D01*
X187058884Y-82899975D01*
X187058882Y-82899972D01*
X187058882Y-82899970D01*
X187011743Y-82807455D01*
X186969524Y-82724595D01*
X186853828Y-82565354D01*
X186714646Y-82426172D01*
X186623527Y-82359970D01*
X186555403Y-82310474D01*
X186378787Y-82220485D01*
X186327990Y-82172511D01*
X186311195Y-82104690D01*
X186333732Y-82038555D01*
X186378787Y-81999515D01*
X186555403Y-81909525D01*
X186555402Y-81909525D01*
X186555405Y-81909524D01*
X186714646Y-81793828D01*
X186853828Y-81654646D01*
X186969524Y-81495405D01*
X187058884Y-81320025D01*
X187119709Y-81132826D01*
X187122588Y-81114646D01*
X187150500Y-80938422D01*
X187150500Y-80741577D01*
X187119709Y-80547173D01*
X187071376Y-80398422D01*
X187058884Y-80359975D01*
X187058882Y-80359972D01*
X187058882Y-80359970D01*
X187011743Y-80267455D01*
X186969524Y-80184595D01*
X186853828Y-80025354D01*
X186714646Y-79886172D01*
X186623527Y-79819970D01*
X186555403Y-79770474D01*
X186378787Y-79680485D01*
X186327990Y-79632511D01*
X186311195Y-79564690D01*
X186333732Y-79498555D01*
X186378787Y-79459515D01*
X186555403Y-79369525D01*
X186555402Y-79369525D01*
X186555405Y-79369524D01*
X186714646Y-79253828D01*
X186853828Y-79114646D01*
X186969524Y-78955405D01*
X187058884Y-78780025D01*
X187119709Y-78592826D01*
X187122588Y-78574646D01*
X187150500Y-78398422D01*
X187150500Y-78201577D01*
X187119709Y-78007173D01*
X187071376Y-77858422D01*
X187058884Y-77819975D01*
X187058882Y-77819972D01*
X187058882Y-77819970D01*
X187011743Y-77727455D01*
X186969524Y-77644595D01*
X186853828Y-77485354D01*
X186714646Y-77346172D01*
X186623527Y-77279970D01*
X186555403Y-77230474D01*
X186378787Y-77140485D01*
X186327990Y-77092511D01*
X186311195Y-77024690D01*
X186333732Y-76958555D01*
X186378787Y-76919515D01*
X186555403Y-76829525D01*
X186555402Y-76829525D01*
X186555405Y-76829524D01*
X186714646Y-76713828D01*
X186853828Y-76574646D01*
X186969524Y-76415405D01*
X187058884Y-76240025D01*
X187119709Y-76052826D01*
X187132748Y-75970500D01*
X187150500Y-75858422D01*
X187150500Y-75661577D01*
X187119709Y-75467173D01*
X187071376Y-75318422D01*
X187058884Y-75279975D01*
X187058882Y-75279972D01*
X187058882Y-75279970D01*
X186994560Y-75153732D01*
X186969524Y-75104595D01*
X186853828Y-74945354D01*
X186714646Y-74806172D01*
X186623527Y-74739970D01*
X186555403Y-74690474D01*
X186378787Y-74600485D01*
X186327990Y-74552511D01*
X186311195Y-74484690D01*
X186333732Y-74418555D01*
X186378787Y-74379515D01*
X186555403Y-74289525D01*
X186555402Y-74289525D01*
X186555405Y-74289524D01*
X186714646Y-74173828D01*
X186853828Y-74034646D01*
X186969524Y-73875405D01*
X187058884Y-73700025D01*
X187119709Y-73512826D01*
X187121694Y-73500291D01*
X187150500Y-73318422D01*
X187150500Y-73121577D01*
X187119709Y-72927173D01*
X187071376Y-72778422D01*
X187058884Y-72739975D01*
X187058882Y-72739972D01*
X187058882Y-72739970D01*
X187011743Y-72647455D01*
X186969524Y-72564595D01*
X186853828Y-72405354D01*
X186714646Y-72266172D01*
X186623527Y-72199970D01*
X186555403Y-72150474D01*
X186378787Y-72060485D01*
X186327990Y-72012511D01*
X186311195Y-71944690D01*
X186333732Y-71878555D01*
X186378787Y-71839515D01*
X186555403Y-71749525D01*
X186555402Y-71749525D01*
X186555405Y-71749524D01*
X186714646Y-71633828D01*
X186853828Y-71494646D01*
X186969524Y-71335405D01*
X187058884Y-71160025D01*
X187119709Y-70972826D01*
X187122588Y-70954646D01*
X187150500Y-70778422D01*
X187150500Y-70581577D01*
X187119709Y-70387173D01*
X187071376Y-70238422D01*
X187058884Y-70199975D01*
X187058882Y-70199972D01*
X187058882Y-70199970D01*
X187004381Y-70093006D01*
X186999592Y-70083607D01*
X186978177Y-70041577D01*
X195679500Y-70041577D01*
X195679500Y-70238422D01*
X195710290Y-70432826D01*
X195771117Y-70620029D01*
X195851820Y-70778417D01*
X195860476Y-70795405D01*
X195976172Y-70954646D01*
X196115354Y-71093828D01*
X196274595Y-71209524D01*
X196397992Y-71272397D01*
X196451213Y-71299515D01*
X196502009Y-71347489D01*
X196518804Y-71415310D01*
X196496267Y-71481445D01*
X196451213Y-71520485D01*
X196274594Y-71610476D01*
X196183741Y-71676485D01*
X196115354Y-71726172D01*
X196115352Y-71726174D01*
X196115351Y-71726174D01*
X195976174Y-71865351D01*
X195976174Y-71865352D01*
X195976172Y-71865354D01*
X195928840Y-71930500D01*
X195860476Y-72024594D01*
X195771117Y-72199970D01*
X195710290Y-72387173D01*
X195679500Y-72581577D01*
X195679500Y-72778422D01*
X195710290Y-72972826D01*
X195771117Y-73160029D01*
X195851820Y-73318417D01*
X195860476Y-73335405D01*
X195976172Y-73494646D01*
X196115354Y-73633828D01*
X196274595Y-73749524D01*
X196307269Y-73766172D01*
X196451213Y-73839515D01*
X196502009Y-73887489D01*
X196518804Y-73955310D01*
X196496267Y-74021445D01*
X196451213Y-74060485D01*
X196274594Y-74150476D01*
X196183741Y-74216485D01*
X196115354Y-74266172D01*
X196115352Y-74266174D01*
X196115351Y-74266174D01*
X195976174Y-74405351D01*
X195976174Y-74405352D01*
X195976172Y-74405354D01*
X195928840Y-74470500D01*
X195860476Y-74564594D01*
X195771117Y-74739970D01*
X195710290Y-74927173D01*
X195679500Y-75121577D01*
X195679500Y-75318422D01*
X195710290Y-75512826D01*
X195771117Y-75700029D01*
X195851820Y-75858417D01*
X195860476Y-75875405D01*
X195976172Y-76034646D01*
X196115354Y-76173828D01*
X196274595Y-76289524D01*
X196397992Y-76352397D01*
X196451213Y-76379515D01*
X196502009Y-76427489D01*
X196518804Y-76495310D01*
X196496267Y-76561445D01*
X196451213Y-76600485D01*
X196274594Y-76690476D01*
X196183741Y-76756485D01*
X196115354Y-76806172D01*
X196115352Y-76806174D01*
X196115351Y-76806174D01*
X195976174Y-76945351D01*
X195976174Y-76945352D01*
X195976172Y-76945354D01*
X195928840Y-77010500D01*
X195860476Y-77104594D01*
X195771117Y-77279970D01*
X195710290Y-77467173D01*
X195679500Y-77661577D01*
X195679500Y-77858422D01*
X195710290Y-78052826D01*
X195771117Y-78240029D01*
X195851820Y-78398417D01*
X195860476Y-78415405D01*
X195976172Y-78574646D01*
X196115354Y-78713828D01*
X196274595Y-78829524D01*
X196397992Y-78892397D01*
X196451213Y-78919515D01*
X196502009Y-78967489D01*
X196518804Y-79035310D01*
X196496267Y-79101445D01*
X196451213Y-79140485D01*
X196274594Y-79230476D01*
X196183741Y-79296485D01*
X196115354Y-79346172D01*
X196115352Y-79346174D01*
X196115351Y-79346174D01*
X195976174Y-79485351D01*
X195976174Y-79485352D01*
X195976172Y-79485354D01*
X195928840Y-79550500D01*
X195860476Y-79644594D01*
X195771117Y-79819970D01*
X195710290Y-80007173D01*
X195679500Y-80201577D01*
X195679500Y-80398422D01*
X195710290Y-80592826D01*
X195771117Y-80780029D01*
X195851820Y-80938417D01*
X195860476Y-80955405D01*
X195976172Y-81114646D01*
X196115354Y-81253828D01*
X196274595Y-81369524D01*
X196397992Y-81432397D01*
X196451213Y-81459515D01*
X196502009Y-81507489D01*
X196518804Y-81575310D01*
X196496267Y-81641445D01*
X196451213Y-81680485D01*
X196274594Y-81770476D01*
X196183741Y-81836485D01*
X196115354Y-81886172D01*
X196115352Y-81886174D01*
X196115351Y-81886174D01*
X195976174Y-82025351D01*
X195976174Y-82025352D01*
X195976172Y-82025354D01*
X195928840Y-82090500D01*
X195860476Y-82184594D01*
X195771117Y-82359970D01*
X195710290Y-82547173D01*
X195679500Y-82741577D01*
X195679500Y-82938422D01*
X195710290Y-83132826D01*
X195771117Y-83320029D01*
X195851820Y-83478417D01*
X195860476Y-83495405D01*
X195976172Y-83654646D01*
X196115354Y-83793828D01*
X196274595Y-83909524D01*
X196397992Y-83972397D01*
X196451213Y-83999515D01*
X196502009Y-84047489D01*
X196518804Y-84115310D01*
X196496267Y-84181445D01*
X196451213Y-84220485D01*
X196274594Y-84310476D01*
X196183741Y-84376485D01*
X196115354Y-84426172D01*
X196115352Y-84426174D01*
X196115351Y-84426174D01*
X195976174Y-84565351D01*
X195976174Y-84565352D01*
X195976172Y-84565354D01*
X195928840Y-84630500D01*
X195860476Y-84724594D01*
X195771117Y-84899970D01*
X195710290Y-85087173D01*
X195679500Y-85281577D01*
X195679500Y-85478422D01*
X195710290Y-85672826D01*
X195771117Y-85860029D01*
X195851820Y-86018417D01*
X195860476Y-86035405D01*
X195976172Y-86194646D01*
X196115354Y-86333828D01*
X196274595Y-86449524D01*
X196397992Y-86512397D01*
X196451213Y-86539515D01*
X196502009Y-86587489D01*
X196518804Y-86655310D01*
X196496267Y-86721445D01*
X196451213Y-86760485D01*
X196274594Y-86850476D01*
X196183741Y-86916485D01*
X196115354Y-86966172D01*
X196115352Y-86966174D01*
X196115351Y-86966174D01*
X195976174Y-87105351D01*
X195976174Y-87105352D01*
X195976172Y-87105354D01*
X195928840Y-87170500D01*
X195860476Y-87264594D01*
X195771117Y-87439970D01*
X195710290Y-87627173D01*
X195679500Y-87821577D01*
X195679500Y-88018422D01*
X195710290Y-88212826D01*
X195771117Y-88400029D01*
X195851820Y-88558417D01*
X195860476Y-88575405D01*
X195976172Y-88734646D01*
X196115354Y-88873828D01*
X196274595Y-88989524D01*
X196397992Y-89052397D01*
X196451213Y-89079515D01*
X196502009Y-89127489D01*
X196518804Y-89195310D01*
X196496267Y-89261445D01*
X196451213Y-89300485D01*
X196274594Y-89390476D01*
X196183741Y-89456485D01*
X196115354Y-89506172D01*
X196115352Y-89506174D01*
X196115351Y-89506174D01*
X195976174Y-89645351D01*
X195976174Y-89645352D01*
X195976172Y-89645354D01*
X195928840Y-89710500D01*
X195860476Y-89804594D01*
X195771117Y-89979970D01*
X195710290Y-90167173D01*
X195679500Y-90361577D01*
X195679500Y-90558422D01*
X195710290Y-90752826D01*
X195771117Y-90940029D01*
X195851820Y-91098417D01*
X195860476Y-91115405D01*
X195976172Y-91274646D01*
X196115354Y-91413828D01*
X196274595Y-91529524D01*
X196397992Y-91592397D01*
X196451213Y-91619515D01*
X196502009Y-91667489D01*
X196518804Y-91735310D01*
X196496267Y-91801445D01*
X196451213Y-91840485D01*
X196274594Y-91930476D01*
X196183741Y-91996485D01*
X196115354Y-92046172D01*
X196115352Y-92046174D01*
X196115351Y-92046174D01*
X195976174Y-92185351D01*
X195976174Y-92185352D01*
X195976172Y-92185354D01*
X195928840Y-92250500D01*
X195860476Y-92344594D01*
X195771117Y-92519970D01*
X195710290Y-92707173D01*
X195679500Y-92901577D01*
X195679500Y-93098422D01*
X195710290Y-93292826D01*
X195771117Y-93480029D01*
X195851820Y-93638417D01*
X195860476Y-93655405D01*
X195976172Y-93814646D01*
X196115354Y-93953828D01*
X196274595Y-94069524D01*
X196397992Y-94132397D01*
X196451213Y-94159515D01*
X196502009Y-94207489D01*
X196518804Y-94275310D01*
X196496267Y-94341445D01*
X196451213Y-94380485D01*
X196274594Y-94470476D01*
X196183741Y-94536485D01*
X196115354Y-94586172D01*
X196115352Y-94586174D01*
X196115351Y-94586174D01*
X195976174Y-94725351D01*
X195976174Y-94725352D01*
X195976172Y-94725354D01*
X195928840Y-94790500D01*
X195860476Y-94884594D01*
X195771117Y-95059970D01*
X195710290Y-95247173D01*
X195679500Y-95441577D01*
X195679500Y-95638422D01*
X195710290Y-95832826D01*
X195771117Y-96020029D01*
X195851820Y-96178417D01*
X195860476Y-96195405D01*
X195976172Y-96354646D01*
X196115354Y-96493828D01*
X196274595Y-96609524D01*
X196397992Y-96672397D01*
X196451213Y-96699515D01*
X196502009Y-96747489D01*
X196518804Y-96815310D01*
X196496267Y-96881445D01*
X196451213Y-96920485D01*
X196274594Y-97010476D01*
X196183741Y-97076485D01*
X196115354Y-97126172D01*
X196115352Y-97126174D01*
X196115351Y-97126174D01*
X195976174Y-97265351D01*
X195976174Y-97265352D01*
X195976172Y-97265354D01*
X195928840Y-97330500D01*
X195860476Y-97424594D01*
X195771117Y-97599970D01*
X195710290Y-97787173D01*
X195679500Y-97981577D01*
X195679500Y-98178422D01*
X195710290Y-98372826D01*
X195771117Y-98560029D01*
X195851820Y-98718417D01*
X195860476Y-98735405D01*
X195976172Y-98894646D01*
X196115354Y-99033828D01*
X196234784Y-99120600D01*
X196274596Y-99149525D01*
X196451763Y-99239795D01*
X196502560Y-99287769D01*
X196519355Y-99355590D01*
X196496818Y-99421725D01*
X196451764Y-99460765D01*
X196274859Y-99550902D01*
X196239873Y-99576320D01*
X196239872Y-99576320D01*
X196883554Y-100220000D01*
X196877339Y-100220000D01*
X196775606Y-100247259D01*
X196684394Y-100299920D01*
X196609920Y-100374394D01*
X196557259Y-100465606D01*
X196530000Y-100567339D01*
X196530000Y-100573552D01*
X195886320Y-99929872D01*
X195886320Y-99929873D01*
X195860902Y-99964859D01*
X195860899Y-99964863D01*
X195771582Y-100140161D01*
X195710778Y-100327294D01*
X195680000Y-100521617D01*
X195680000Y-100718382D01*
X195710778Y-100912705D01*
X195771581Y-101099835D01*
X195860905Y-101275145D01*
X195886319Y-101310125D01*
X195886320Y-101310125D01*
X196530000Y-100666445D01*
X196530000Y-100672661D01*
X196557259Y-100774394D01*
X196609920Y-100865606D01*
X196684394Y-100940080D01*
X196775606Y-100992741D01*
X196877339Y-101020000D01*
X196883553Y-101020000D01*
X196239873Y-101663677D01*
X196239873Y-101663678D01*
X196274858Y-101689096D01*
X196451764Y-101779234D01*
X196502560Y-101827209D01*
X196519355Y-101895030D01*
X196496818Y-101961164D01*
X196451764Y-102000204D01*
X196274594Y-102090476D01*
X196183741Y-102156485D01*
X196115354Y-102206172D01*
X196115352Y-102206174D01*
X196115351Y-102206174D01*
X195976174Y-102345351D01*
X195976174Y-102345352D01*
X195976172Y-102345354D01*
X195928840Y-102410500D01*
X195860476Y-102504594D01*
X195771117Y-102679970D01*
X195710290Y-102867173D01*
X195679500Y-103061577D01*
X195679500Y-103258422D01*
X195710290Y-103452826D01*
X195771117Y-103640029D01*
X195851820Y-103798417D01*
X195860476Y-103815405D01*
X195976172Y-103974646D01*
X196115354Y-104113828D01*
X196274595Y-104229524D01*
X196314831Y-104250025D01*
X196449970Y-104318882D01*
X196449972Y-104318882D01*
X196449975Y-104318884D01*
X196550317Y-104351487D01*
X196637173Y-104379709D01*
X196831578Y-104410500D01*
X196831583Y-104410500D01*
X197028422Y-104410500D01*
X197222826Y-104379709D01*
X197410025Y-104318884D01*
X197585405Y-104229524D01*
X197744646Y-104113828D01*
X197883828Y-103974646D01*
X197999524Y-103815405D01*
X198088884Y-103640025D01*
X198149709Y-103452826D01*
X198155471Y-103416446D01*
X198180500Y-103258422D01*
X198180500Y-103061577D01*
X198149709Y-102867173D01*
X198103942Y-102726319D01*
X198088884Y-102679975D01*
X198088882Y-102679972D01*
X198088882Y-102679970D01*
X198022807Y-102550291D01*
X197999524Y-102504595D01*
X197883828Y-102345354D01*
X197744646Y-102206172D01*
X197585405Y-102090476D01*
X197410025Y-102001116D01*
X197410024Y-102001115D01*
X197408235Y-102000204D01*
X197357439Y-101952230D01*
X197340644Y-101884409D01*
X197363181Y-101818274D01*
X197408236Y-101779234D01*
X197585141Y-101689097D01*
X197620125Y-101663678D01*
X197620126Y-101663678D01*
X196976448Y-101020000D01*
X196982661Y-101020000D01*
X197084394Y-100992741D01*
X197175606Y-100940080D01*
X197250080Y-100865606D01*
X197302741Y-100774394D01*
X197330000Y-100672661D01*
X197330000Y-100666448D01*
X197973678Y-101310126D01*
X197973678Y-101310125D01*
X197999095Y-101275143D01*
X198088418Y-101099835D01*
X198149221Y-100912705D01*
X198180000Y-100718382D01*
X198180000Y-100521617D01*
X198149221Y-100327294D01*
X198088418Y-100140164D01*
X197999096Y-99964858D01*
X197973678Y-99929873D01*
X197973677Y-99929873D01*
X197330000Y-100573551D01*
X197330000Y-100567339D01*
X197302741Y-100465606D01*
X197250080Y-100374394D01*
X197175606Y-100299920D01*
X197084394Y-100247259D01*
X196982661Y-100220000D01*
X196976447Y-100220000D01*
X197620125Y-99576320D01*
X197620125Y-99576319D01*
X197585145Y-99550905D01*
X197408235Y-99460765D01*
X197357439Y-99412790D01*
X197340644Y-99344969D01*
X197363182Y-99278834D01*
X197408236Y-99239795D01*
X197410022Y-99238884D01*
X197410025Y-99238884D01*
X197585405Y-99149524D01*
X197744646Y-99033828D01*
X197883828Y-98894646D01*
X197999524Y-98735405D01*
X198088884Y-98560025D01*
X198149709Y-98372826D01*
X198180500Y-98178422D01*
X198180500Y-97981577D01*
X198149709Y-97787173D01*
X198088882Y-97599970D01*
X198018132Y-97461116D01*
X197999524Y-97424595D01*
X197883828Y-97265354D01*
X197744646Y-97126172D01*
X197665025Y-97068324D01*
X197585403Y-97010474D01*
X197408787Y-96920485D01*
X197357990Y-96872511D01*
X197341195Y-96804690D01*
X197363732Y-96738555D01*
X197408787Y-96699515D01*
X197585403Y-96609525D01*
X197585402Y-96609525D01*
X197585405Y-96609524D01*
X197744646Y-96493828D01*
X197883828Y-96354646D01*
X197999524Y-96195405D01*
X198088884Y-96020025D01*
X198149709Y-95832826D01*
X198180500Y-95638422D01*
X198180500Y-95441577D01*
X198149709Y-95247173D01*
X198088882Y-95059970D01*
X198018132Y-94921116D01*
X197999524Y-94884595D01*
X197883828Y-94725354D01*
X197744646Y-94586172D01*
X197665025Y-94528324D01*
X197585403Y-94470474D01*
X197408787Y-94380485D01*
X197357990Y-94332511D01*
X197341195Y-94264690D01*
X197363732Y-94198555D01*
X197408787Y-94159515D01*
X197585403Y-94069525D01*
X197585402Y-94069525D01*
X197585405Y-94069524D01*
X197744646Y-93953828D01*
X197883828Y-93814646D01*
X197999524Y-93655405D01*
X198088884Y-93480025D01*
X198149709Y-93292826D01*
X198180500Y-93098422D01*
X198180500Y-92901577D01*
X198149709Y-92707173D01*
X198088882Y-92519970D01*
X198018132Y-92381116D01*
X197999524Y-92344595D01*
X197883828Y-92185354D01*
X197744646Y-92046172D01*
X197665025Y-91988324D01*
X197585403Y-91930474D01*
X197408787Y-91840485D01*
X197357990Y-91792511D01*
X197341195Y-91724690D01*
X197363732Y-91658555D01*
X197408787Y-91619515D01*
X197585403Y-91529525D01*
X197585402Y-91529525D01*
X197585405Y-91529524D01*
X197744646Y-91413828D01*
X197883828Y-91274646D01*
X197999524Y-91115405D01*
X198088884Y-90940025D01*
X198149709Y-90752826D01*
X198180500Y-90558422D01*
X198180500Y-90361577D01*
X198149709Y-90167173D01*
X198088882Y-89979970D01*
X198018132Y-89841116D01*
X197999524Y-89804595D01*
X197883828Y-89645354D01*
X197744646Y-89506172D01*
X197665025Y-89448324D01*
X197585403Y-89390474D01*
X197408787Y-89300485D01*
X197357990Y-89252511D01*
X197341195Y-89184690D01*
X197363732Y-89118555D01*
X197408787Y-89079515D01*
X197585403Y-88989525D01*
X197585402Y-88989525D01*
X197585405Y-88989524D01*
X197744646Y-88873828D01*
X197883828Y-88734646D01*
X197999524Y-88575405D01*
X198088884Y-88400025D01*
X198149709Y-88212826D01*
X198180500Y-88018422D01*
X198180500Y-87821577D01*
X198149709Y-87627173D01*
X198088882Y-87439970D01*
X198018132Y-87301116D01*
X197999524Y-87264595D01*
X197883828Y-87105354D01*
X197744646Y-86966172D01*
X197665025Y-86908324D01*
X197585403Y-86850474D01*
X197408787Y-86760485D01*
X197357990Y-86712511D01*
X197341195Y-86644690D01*
X197363732Y-86578555D01*
X197408787Y-86539515D01*
X197585403Y-86449525D01*
X197585402Y-86449525D01*
X197585405Y-86449524D01*
X197744646Y-86333828D01*
X197883828Y-86194646D01*
X197999524Y-86035405D01*
X198088884Y-85860025D01*
X198149709Y-85672826D01*
X198180500Y-85478422D01*
X198180500Y-85281577D01*
X198149709Y-85087173D01*
X198088882Y-84899970D01*
X198018132Y-84761116D01*
X197999524Y-84724595D01*
X197883828Y-84565354D01*
X197744646Y-84426172D01*
X197665025Y-84368324D01*
X197585403Y-84310474D01*
X197408787Y-84220485D01*
X197357990Y-84172511D01*
X197341195Y-84104690D01*
X197363732Y-84038555D01*
X197408787Y-83999515D01*
X197585403Y-83909525D01*
X197585402Y-83909525D01*
X197585405Y-83909524D01*
X197744646Y-83793828D01*
X197883828Y-83654646D01*
X197999524Y-83495405D01*
X198088884Y-83320025D01*
X198149709Y-83132826D01*
X198180500Y-82938422D01*
X198180500Y-82741577D01*
X198149709Y-82547173D01*
X198088882Y-82359970D01*
X198018132Y-82221116D01*
X197999524Y-82184595D01*
X197883828Y-82025354D01*
X197744646Y-81886172D01*
X197665025Y-81828324D01*
X197585403Y-81770474D01*
X197408787Y-81680485D01*
X197357990Y-81632511D01*
X197341195Y-81564690D01*
X197363732Y-81498555D01*
X197408787Y-81459515D01*
X197585403Y-81369525D01*
X197585402Y-81369525D01*
X197585405Y-81369524D01*
X197744646Y-81253828D01*
X197883828Y-81114646D01*
X197999524Y-80955405D01*
X198088884Y-80780025D01*
X198149709Y-80592826D01*
X198180500Y-80398422D01*
X198180500Y-80201577D01*
X198149709Y-80007173D01*
X198088882Y-79819970D01*
X198018132Y-79681116D01*
X197999524Y-79644595D01*
X197883828Y-79485354D01*
X197744646Y-79346172D01*
X197665025Y-79288324D01*
X197585403Y-79230474D01*
X197408787Y-79140485D01*
X197357990Y-79092511D01*
X197341195Y-79024690D01*
X197363732Y-78958555D01*
X197408787Y-78919515D01*
X197585403Y-78829525D01*
X197585402Y-78829525D01*
X197585405Y-78829524D01*
X197744646Y-78713828D01*
X197883828Y-78574646D01*
X197999524Y-78415405D01*
X198088884Y-78240025D01*
X198149709Y-78052826D01*
X198180500Y-77858422D01*
X198180500Y-77661577D01*
X198149709Y-77467173D01*
X198088882Y-77279970D01*
X198018132Y-77141116D01*
X197999524Y-77104595D01*
X197883828Y-76945354D01*
X197744646Y-76806172D01*
X197665025Y-76748324D01*
X197585403Y-76690474D01*
X197408787Y-76600485D01*
X197357990Y-76552511D01*
X197341195Y-76484690D01*
X197363732Y-76418555D01*
X197408787Y-76379515D01*
X197585403Y-76289525D01*
X197585402Y-76289525D01*
X197585405Y-76289524D01*
X197744646Y-76173828D01*
X197883828Y-76034646D01*
X197999524Y-75875405D01*
X198088884Y-75700025D01*
X198149709Y-75512826D01*
X198180500Y-75318422D01*
X198180500Y-75121577D01*
X198149709Y-74927173D01*
X198114373Y-74818422D01*
X198088884Y-74739975D01*
X198088882Y-74739972D01*
X198088882Y-74739970D01*
X198041743Y-74647455D01*
X197999524Y-74564595D01*
X197883828Y-74405354D01*
X197744646Y-74266172D01*
X197665025Y-74208324D01*
X197585403Y-74150474D01*
X197408787Y-74060485D01*
X197357990Y-74012511D01*
X197341195Y-73944690D01*
X197363732Y-73878555D01*
X197408787Y-73839515D01*
X197585403Y-73749525D01*
X197585402Y-73749525D01*
X197585405Y-73749524D01*
X197744646Y-73633828D01*
X197883828Y-73494646D01*
X197999524Y-73335405D01*
X198088884Y-73160025D01*
X198149709Y-72972826D01*
X198180500Y-72778422D01*
X198180500Y-72581577D01*
X198149709Y-72387173D01*
X198088882Y-72199970D01*
X198018132Y-72061116D01*
X197999524Y-72024595D01*
X197883828Y-71865354D01*
X197744646Y-71726172D01*
X197665025Y-71668324D01*
X197585403Y-71610474D01*
X197408787Y-71520485D01*
X197357990Y-71472511D01*
X197341195Y-71404690D01*
X197363732Y-71338555D01*
X197408787Y-71299515D01*
X197585403Y-71209525D01*
X197585402Y-71209525D01*
X197585405Y-71209524D01*
X197744646Y-71093828D01*
X197883828Y-70954646D01*
X197999524Y-70795405D01*
X198088884Y-70620025D01*
X198149709Y-70432826D01*
X198180500Y-70238422D01*
X198180500Y-70041577D01*
X198149709Y-69847173D01*
X198088882Y-69659970D01*
X198018132Y-69521116D01*
X197999524Y-69484595D01*
X197883828Y-69325354D01*
X197744646Y-69186172D01*
X197585405Y-69070476D01*
X197410029Y-68981117D01*
X197222826Y-68920290D01*
X197028422Y-68889500D01*
X197028417Y-68889500D01*
X196831583Y-68889500D01*
X196831578Y-68889500D01*
X196637173Y-68920290D01*
X196449970Y-68981117D01*
X196274594Y-69070476D01*
X196183741Y-69136485D01*
X196115354Y-69186172D01*
X196115352Y-69186174D01*
X196115351Y-69186174D01*
X195976174Y-69325351D01*
X195976174Y-69325352D01*
X195976172Y-69325354D01*
X195928840Y-69390500D01*
X195860476Y-69484594D01*
X195771117Y-69659970D01*
X195710290Y-69847173D01*
X195679500Y-70041577D01*
X186978177Y-70041577D01*
X186969524Y-70024595D01*
X186853828Y-69865354D01*
X186714646Y-69726172D01*
X186623527Y-69659970D01*
X186555403Y-69610474D01*
X186378787Y-69520485D01*
X186327990Y-69472511D01*
X186311195Y-69404690D01*
X186333732Y-69338555D01*
X186378787Y-69299515D01*
X186555403Y-69209525D01*
X186555402Y-69209525D01*
X186555405Y-69209524D01*
X186714646Y-69093828D01*
X186853828Y-68954646D01*
X186969524Y-68795405D01*
X187058884Y-68620025D01*
X187119709Y-68432826D01*
X187150500Y-68238422D01*
X187150500Y-68041577D01*
X187119709Y-67847173D01*
X187058882Y-67659970D01*
X186969523Y-67484594D01*
X186853828Y-67325354D01*
X186714646Y-67186172D01*
X186635025Y-67128324D01*
X186555403Y-67070474D01*
X186378787Y-66980485D01*
X186327990Y-66932511D01*
X186311195Y-66864690D01*
X186333732Y-66798555D01*
X186378787Y-66759515D01*
X186555403Y-66669525D01*
X186555402Y-66669525D01*
X186555405Y-66669524D01*
X186714646Y-66553828D01*
X186853828Y-66414646D01*
X186969524Y-66255405D01*
X187058884Y-66080025D01*
X187119709Y-65892826D01*
X187150500Y-65698422D01*
X187150500Y-65501577D01*
X187119709Y-65307173D01*
X187058882Y-65119970D01*
X186969523Y-64944594D01*
X186853828Y-64785354D01*
X186714646Y-64646172D01*
X186635025Y-64588324D01*
X186555403Y-64530474D01*
X186378787Y-64440485D01*
X186327990Y-64392511D01*
X186311195Y-64324690D01*
X186333732Y-64258555D01*
X186378787Y-64219515D01*
X186555403Y-64129525D01*
X186555402Y-64129525D01*
X186555405Y-64129524D01*
X186714646Y-64013828D01*
X186853828Y-63874646D01*
X186969524Y-63715405D01*
X187058884Y-63540025D01*
X187119709Y-63352826D01*
X187150500Y-63158422D01*
X187150500Y-62961577D01*
X187119709Y-62767173D01*
X187058882Y-62579970D01*
X186969523Y-62404594D01*
X186853828Y-62245354D01*
X186714646Y-62106172D01*
X186635025Y-62048324D01*
X186555403Y-61990474D01*
X186378787Y-61900485D01*
X186327990Y-61852511D01*
X186311195Y-61784690D01*
X186333732Y-61718555D01*
X186378787Y-61679515D01*
X186555403Y-61589525D01*
X186555402Y-61589525D01*
X186555405Y-61589524D01*
X186714646Y-61473828D01*
X186853828Y-61334646D01*
X186969524Y-61175405D01*
X187058884Y-61000025D01*
X187119709Y-60812826D01*
X187123018Y-60791936D01*
X187150500Y-60618422D01*
X187150500Y-60421577D01*
X187119709Y-60227173D01*
X187091487Y-60140317D01*
X187058884Y-60039975D01*
X187058882Y-60039972D01*
X187058882Y-60039970D01*
X186969523Y-59864594D01*
X186853828Y-59705354D01*
X186714646Y-59566172D01*
X186635025Y-59508324D01*
X186555403Y-59450474D01*
X186378787Y-59360485D01*
X186327990Y-59312511D01*
X186311195Y-59244690D01*
X186333732Y-59178555D01*
X186378787Y-59139515D01*
X186555403Y-59049525D01*
X186555402Y-59049525D01*
X186555405Y-59049524D01*
X186714646Y-58933828D01*
X186853828Y-58794646D01*
X186969524Y-58635405D01*
X187058884Y-58460025D01*
X187119709Y-58272826D01*
X187127188Y-58225606D01*
X187150500Y-58078422D01*
X187150500Y-57881577D01*
X187119709Y-57687173D01*
X187091487Y-57600317D01*
X187058884Y-57499975D01*
X187058882Y-57499972D01*
X187058882Y-57499970D01*
X187007690Y-57399500D01*
X186969524Y-57324595D01*
X186853828Y-57165354D01*
X186714646Y-57026172D01*
X186581621Y-56929523D01*
X186538957Y-56874194D01*
X186532978Y-56804580D01*
X186565584Y-56742785D01*
X186626423Y-56708428D01*
X186654132Y-56705207D01*
X188348757Y-56700152D01*
X188415853Y-56719636D01*
G37*
%TD.AperFunction*%
%TD*%
M02*
