%TF.GenerationSoftware,KiCad,Pcbnew,10.0.5*%
%TF.CreationDate,2026-08-11T17:44:50+01:00*%
%TF.ProjectId,Internet_Radio,496e7465-726e-4657-945f-526164696f2e,rev?*%
%TF.SameCoordinates,Original*%
%TF.FileFunction,Legend,Top*%
%TF.FilePolarity,Positive*%
%FSLAX46Y46*%
G04 Gerber Fmt 4.6, Leading zero omitted, Abs format (unit mm)*
G04 Created by KiCad (PCBNEW 10.0.5) date 2026-08-11 17:44:50*
%MOMM*%
%LPD*%
G01*
G04 APERTURE LIST*
%ADD10C,0.200000*%
%ADD11C,0.120000*%
G04 APERTURE END LIST*
D10*
X190066471Y-75278574D02*
X189066471Y-75278574D01*
X190637900Y-74921431D02*
X189566471Y-74564288D01*
X189566471Y-74564288D02*
X189566471Y-75492859D01*
X189209328Y-76064287D02*
X189137900Y-76135716D01*
X189137900Y-76135716D02*
X189066471Y-76064287D01*
X189066471Y-76064287D02*
X189137900Y-75992859D01*
X189137900Y-75992859D02*
X189209328Y-76064287D01*
X189209328Y-76064287D02*
X189066471Y-76064287D01*
X190566471Y-77064288D02*
X190566471Y-77207145D01*
X190566471Y-77207145D02*
X190495042Y-77350002D01*
X190495042Y-77350002D02*
X190423614Y-77421431D01*
X190423614Y-77421431D02*
X190280757Y-77492859D01*
X190280757Y-77492859D02*
X189995042Y-77564288D01*
X189995042Y-77564288D02*
X189637900Y-77564288D01*
X189637900Y-77564288D02*
X189352185Y-77492859D01*
X189352185Y-77492859D02*
X189209328Y-77421431D01*
X189209328Y-77421431D02*
X189137900Y-77350002D01*
X189137900Y-77350002D02*
X189066471Y-77207145D01*
X189066471Y-77207145D02*
X189066471Y-77064288D01*
X189066471Y-77064288D02*
X189137900Y-76921431D01*
X189137900Y-76921431D02*
X189209328Y-76850002D01*
X189209328Y-76850002D02*
X189352185Y-76778573D01*
X189352185Y-76778573D02*
X189637900Y-76707145D01*
X189637900Y-76707145D02*
X189995042Y-76707145D01*
X189995042Y-76707145D02*
X190280757Y-76778573D01*
X190280757Y-76778573D02*
X190423614Y-76850002D01*
X190423614Y-76850002D02*
X190495042Y-76921431D01*
X190495042Y-76921431D02*
X190566471Y-77064288D01*
X190566471Y-78135716D02*
X190280757Y-78135716D01*
X190566471Y-78707144D02*
X190280757Y-78707144D01*
X190566471Y-80278573D02*
X190566471Y-81135716D01*
X189066471Y-80707144D02*
X190566471Y-80707144D01*
X189852185Y-82135715D02*
X189852185Y-81635715D01*
X189066471Y-81635715D02*
X190566471Y-81635715D01*
X190566471Y-81635715D02*
X190566471Y-82350001D01*
X190566471Y-82707144D02*
X190566471Y-83564287D01*
X189066471Y-83135715D02*
X190566471Y-83135715D01*
X189137900Y-85135715D02*
X189066471Y-85350001D01*
X189066471Y-85350001D02*
X189066471Y-85707143D01*
X189066471Y-85707143D02*
X189137900Y-85850001D01*
X189137900Y-85850001D02*
X189209328Y-85921429D01*
X189209328Y-85921429D02*
X189352185Y-85992858D01*
X189352185Y-85992858D02*
X189495042Y-85992858D01*
X189495042Y-85992858D02*
X189637900Y-85921429D01*
X189637900Y-85921429D02*
X189709328Y-85850001D01*
X189709328Y-85850001D02*
X189780757Y-85707143D01*
X189780757Y-85707143D02*
X189852185Y-85421429D01*
X189852185Y-85421429D02*
X189923614Y-85278572D01*
X189923614Y-85278572D02*
X189995042Y-85207143D01*
X189995042Y-85207143D02*
X190137900Y-85135715D01*
X190137900Y-85135715D02*
X190280757Y-85135715D01*
X190280757Y-85135715D02*
X190423614Y-85207143D01*
X190423614Y-85207143D02*
X190495042Y-85278572D01*
X190495042Y-85278572D02*
X190566471Y-85421429D01*
X190566471Y-85421429D02*
X190566471Y-85778572D01*
X190566471Y-85778572D02*
X190495042Y-85992858D01*
X189066471Y-86635714D02*
X190566471Y-86635714D01*
X190566471Y-86635714D02*
X190566471Y-87207143D01*
X190566471Y-87207143D02*
X190495042Y-87350000D01*
X190495042Y-87350000D02*
X190423614Y-87421429D01*
X190423614Y-87421429D02*
X190280757Y-87492857D01*
X190280757Y-87492857D02*
X190066471Y-87492857D01*
X190066471Y-87492857D02*
X189923614Y-87421429D01*
X189923614Y-87421429D02*
X189852185Y-87350000D01*
X189852185Y-87350000D02*
X189780757Y-87207143D01*
X189780757Y-87207143D02*
X189780757Y-86635714D01*
X189066471Y-88135714D02*
X190566471Y-88135714D01*
X190066471Y-90635715D02*
X189066471Y-90635715D01*
X190637900Y-90278572D02*
X189566471Y-89921429D01*
X189566471Y-89921429D02*
X189566471Y-90850000D01*
X189923614Y-91635714D02*
X189995042Y-91492857D01*
X189995042Y-91492857D02*
X190066471Y-91421428D01*
X190066471Y-91421428D02*
X190209328Y-91350000D01*
X190209328Y-91350000D02*
X190280757Y-91350000D01*
X190280757Y-91350000D02*
X190423614Y-91421428D01*
X190423614Y-91421428D02*
X190495042Y-91492857D01*
X190495042Y-91492857D02*
X190566471Y-91635714D01*
X190566471Y-91635714D02*
X190566471Y-91921428D01*
X190566471Y-91921428D02*
X190495042Y-92064286D01*
X190495042Y-92064286D02*
X190423614Y-92135714D01*
X190423614Y-92135714D02*
X190280757Y-92207143D01*
X190280757Y-92207143D02*
X190209328Y-92207143D01*
X190209328Y-92207143D02*
X190066471Y-92135714D01*
X190066471Y-92135714D02*
X189995042Y-92064286D01*
X189995042Y-92064286D02*
X189923614Y-91921428D01*
X189923614Y-91921428D02*
X189923614Y-91635714D01*
X189923614Y-91635714D02*
X189852185Y-91492857D01*
X189852185Y-91492857D02*
X189780757Y-91421428D01*
X189780757Y-91421428D02*
X189637900Y-91350000D01*
X189637900Y-91350000D02*
X189352185Y-91350000D01*
X189352185Y-91350000D02*
X189209328Y-91421428D01*
X189209328Y-91421428D02*
X189137900Y-91492857D01*
X189137900Y-91492857D02*
X189066471Y-91635714D01*
X189066471Y-91635714D02*
X189066471Y-91921428D01*
X189066471Y-91921428D02*
X189137900Y-92064286D01*
X189137900Y-92064286D02*
X189209328Y-92135714D01*
X189209328Y-92135714D02*
X189352185Y-92207143D01*
X189352185Y-92207143D02*
X189637900Y-92207143D01*
X189637900Y-92207143D02*
X189780757Y-92135714D01*
X189780757Y-92135714D02*
X189852185Y-92064286D01*
X189852185Y-92064286D02*
X189923614Y-91921428D01*
X190566471Y-93135714D02*
X190566471Y-93278571D01*
X190566471Y-93278571D02*
X190495042Y-93421428D01*
X190495042Y-93421428D02*
X190423614Y-93492857D01*
X190423614Y-93492857D02*
X190280757Y-93564285D01*
X190280757Y-93564285D02*
X189995042Y-93635714D01*
X189995042Y-93635714D02*
X189637900Y-93635714D01*
X189637900Y-93635714D02*
X189352185Y-93564285D01*
X189352185Y-93564285D02*
X189209328Y-93492857D01*
X189209328Y-93492857D02*
X189137900Y-93421428D01*
X189137900Y-93421428D02*
X189066471Y-93278571D01*
X189066471Y-93278571D02*
X189066471Y-93135714D01*
X189066471Y-93135714D02*
X189137900Y-92992857D01*
X189137900Y-92992857D02*
X189209328Y-92921428D01*
X189209328Y-92921428D02*
X189352185Y-92849999D01*
X189352185Y-92849999D02*
X189637900Y-92778571D01*
X189637900Y-92778571D02*
X189995042Y-92778571D01*
X189995042Y-92778571D02*
X190280757Y-92849999D01*
X190280757Y-92849999D02*
X190423614Y-92921428D01*
X190423614Y-92921428D02*
X190495042Y-92992857D01*
X190495042Y-92992857D02*
X190566471Y-93135714D01*
X189066471Y-94135713D02*
X190066471Y-94921428D01*
X190066471Y-94135713D02*
X189066471Y-94921428D01*
X190566471Y-95349999D02*
X190566471Y-96278571D01*
X190566471Y-96278571D02*
X189995042Y-95778571D01*
X189995042Y-95778571D02*
X189995042Y-95992856D01*
X189995042Y-95992856D02*
X189923614Y-96135714D01*
X189923614Y-96135714D02*
X189852185Y-96207142D01*
X189852185Y-96207142D02*
X189709328Y-96278571D01*
X189709328Y-96278571D02*
X189352185Y-96278571D01*
X189352185Y-96278571D02*
X189209328Y-96207142D01*
X189209328Y-96207142D02*
X189137900Y-96135714D01*
X189137900Y-96135714D02*
X189066471Y-95992856D01*
X189066471Y-95992856D02*
X189066471Y-95564285D01*
X189066471Y-95564285D02*
X189137900Y-95421428D01*
X189137900Y-95421428D02*
X189209328Y-95349999D01*
X190423614Y-96849999D02*
X190495042Y-96921427D01*
X190495042Y-96921427D02*
X190566471Y-97064285D01*
X190566471Y-97064285D02*
X190566471Y-97421427D01*
X190566471Y-97421427D02*
X190495042Y-97564285D01*
X190495042Y-97564285D02*
X190423614Y-97635713D01*
X190423614Y-97635713D02*
X190280757Y-97707142D01*
X190280757Y-97707142D02*
X190137900Y-97707142D01*
X190137900Y-97707142D02*
X189923614Y-97635713D01*
X189923614Y-97635713D02*
X189066471Y-96778570D01*
X189066471Y-96778570D02*
X189066471Y-97707142D01*
X190566471Y-98635713D02*
X190566471Y-98778570D01*
X190566471Y-98778570D02*
X190495042Y-98921427D01*
X190495042Y-98921427D02*
X190423614Y-98992856D01*
X190423614Y-98992856D02*
X190280757Y-99064284D01*
X190280757Y-99064284D02*
X189995042Y-99135713D01*
X189995042Y-99135713D02*
X189637900Y-99135713D01*
X189637900Y-99135713D02*
X189352185Y-99064284D01*
X189352185Y-99064284D02*
X189209328Y-98992856D01*
X189209328Y-98992856D02*
X189137900Y-98921427D01*
X189137900Y-98921427D02*
X189066471Y-98778570D01*
X189066471Y-98778570D02*
X189066471Y-98635713D01*
X189066471Y-98635713D02*
X189137900Y-98492856D01*
X189137900Y-98492856D02*
X189209328Y-98421427D01*
X189209328Y-98421427D02*
X189352185Y-98349998D01*
X189352185Y-98349998D02*
X189637900Y-98278570D01*
X189637900Y-98278570D02*
X189995042Y-98278570D01*
X189995042Y-98278570D02*
X190280757Y-98349998D01*
X190280757Y-98349998D02*
X190423614Y-98421427D01*
X190423614Y-98421427D02*
X190495042Y-98492856D01*
X190495042Y-98492856D02*
X190566471Y-98635713D01*
%TO.C,J1*%
D11*
X92080000Y-56150000D02*
X200180000Y-56150000D01*
X200180000Y-117150000D01*
X92080000Y-117150000D01*
X92080000Y-56150000D01*
%TD*%
M02*
