%TF.GenerationSoftware,KiCad,Pcbnew,10.0.5*%
%TF.CreationDate,2026-08-11T17:44:50+01:00*%
%TF.ProjectId,Internet_Radio,496e7465-726e-4657-945f-526164696f2e,rev?*%
%TF.SameCoordinates,Original*%
%TF.FileFunction,Copper,L2,Bot*%
%TF.FilePolarity,Positive*%
%FSLAX46Y46*%
G04 Gerber Fmt 4.6, Leading zero omitted, Abs format (unit mm)*
G04 Created by KiCad (PCBNEW 10.0.5) date 2026-08-11 17:44:50*
%MOMM*%
%LPD*%
G01*
G04 APERTURE LIST*
G04 Aperture macros list*
%AMRoundRect*
0 Rectangle with rounded corners*
0 $1 Rounding radius*
0 $2 $3 $4 $5 $6 $7 $8 $9 X,Y pos of 4 corners*
0 Add a 4 corners polygon primitive as box body*
4,1,4,$2,$3,$4,$5,$6,$7,$8,$9,$2,$3,0*
0 Add four circle primitives for the rounded corners*
1,1,$1+$1,$2,$3*
1,1,$1+$1,$4,$5*
1,1,$1+$1,$6,$7*
1,1,$1+$1,$8,$9*
0 Add four rect primitives between the rounded corners*
20,1,$1+$1,$2,$3,$4,$5,0*
20,1,$1+$1,$4,$5,$6,$7,0*
20,1,$1+$1,$6,$7,$8,$9,0*
20,1,$1+$1,$8,$9,$2,$3,0*%
G04 Aperture macros list end*
%TA.AperFunction,ComponentPad*%
%ADD10C,1.500000*%
%TD*%
%TA.AperFunction,ComponentPad*%
%ADD11RoundRect,0.250000X0.350000X0.625000X-0.350000X0.625000X-0.350000X-0.625000X0.350000X-0.625000X0*%
%TD*%
%TA.AperFunction,ComponentPad*%
%ADD12O,1.200000X1.750000*%
%TD*%
%TA.AperFunction,SMDPad,CuDef*%
%ADD13RoundRect,0.200000X0.275000X-0.200000X0.275000X0.200000X-0.275000X0.200000X-0.275000X-0.200000X0*%
%TD*%
%TA.AperFunction,ComponentPad*%
%ADD14RoundRect,0.250000X0.600000X0.725000X-0.600000X0.725000X-0.600000X-0.725000X0.600000X-0.725000X0*%
%TD*%
%TA.AperFunction,ComponentPad*%
%ADD15O,1.700000X1.950000*%
%TD*%
%TA.AperFunction,ComponentPad*%
%ADD16RoundRect,0.250000X0.750000X-0.600000X0.750000X0.600000X-0.750000X0.600000X-0.750000X-0.600000X0*%
%TD*%
%TA.AperFunction,ComponentPad*%
%ADD17O,2.000000X1.700000*%
%TD*%
%TA.AperFunction,HeatsinkPad*%
%ADD18C,1.500000*%
%TD*%
%TA.AperFunction,Conductor*%
%ADD19C,0.200000*%
%TD*%
G04 APERTURE END LIST*
D10*
%TO.P,J1,1,T_IRQ_1*%
%TO.N,unconnected-(J1-T_IRQ-Pad1)*%
X196930000Y-70140000D03*
%TO.P,J1,2,T_DO_2*%
%TO.N,/GPIO13*%
X196930000Y-72680000D03*
%TO.P,J1,3,T_DIN_3*%
%TO.N,/GPIO11*%
X196930000Y-75220000D03*
%TO.P,J1,4,T_CS_4*%
%TO.N,/GPIO14*%
X196930000Y-77760000D03*
%TO.P,J1,5,T_CLK_5*%
%TO.N,/GPIO12*%
X196930000Y-80300000D03*
%TO.P,J1,6,MISO(SDO)_6*%
%TO.N,unconnected-(J1-MISO(SDO)-Pad6)*%
X196930000Y-82840000D03*
%TO.P,J1,7,LED_7*%
%TO.N,/3V3*%
X196930000Y-85380000D03*
%TO.P,J1,8,SCK_8*%
%TO.N,/GPIO12*%
X196930000Y-87920000D03*
%TO.P,J1,9,MOSI(SDI)_9*%
%TO.N,/GPIO11*%
X196930000Y-90460000D03*
%TO.P,J1,10,DC/RS_10*%
%TO.N,/GPIO9*%
X196930000Y-93000000D03*
%TO.P,J1,11,RESET_11*%
%TO.N,/GPIO8*%
X196930000Y-95540000D03*
%TO.P,J1,12,CS_12*%
%TO.N,/GPIO10*%
X196930000Y-98080000D03*
%TO.P,J1,13,GND_13*%
%TO.N,/GND*%
X196930000Y-100620000D03*
%TO.P,J1,14,VCC_14*%
%TO.N,/3V3*%
X196930000Y-103160000D03*
%TD*%
D11*
%TO.P,J2,1,Pin_1_1*%
%TO.N,/GND*%
X122650000Y-103200000D03*
D12*
%TO.P,J2,2,Pin_2_2*%
%TO.N,/D+*%
X120650000Y-103200000D03*
%TO.P,J2,3,Pin_3_3*%
%TO.N,/D-*%
X118650000Y-103200000D03*
%TO.P,J2,4,Pin_4_4*%
%TO.N,/CC2*%
X116650000Y-103200000D03*
%TO.P,J2,5,Pin_5_5*%
%TO.N,/CC1*%
X114650000Y-103200000D03*
%TO.P,J2,6,Pin_6_6*%
%TO.N,/+5V*%
X112650000Y-103200000D03*
%TD*%
D10*
%TO.P,U4,1,LRC_1*%
%TO.N,/GPIO7*%
X149270000Y-103770000D03*
%TO.P,U4,2,BCLK_2*%
%TO.N,/GPIO6*%
X146730000Y-103770000D03*
%TO.P,U4,3,DIN_3*%
%TO.N,/GPIO5*%
X144190000Y-103770000D03*
%TO.P,U4,4,GAIN_4*%
%TO.N,/3V3*%
X141650000Y-103770000D03*
%TO.P,U4,5,SD_5*%
%TO.N,unconnected-(U4-SD-Pad5)*%
X139110000Y-103770000D03*
%TO.P,U4,6,GND_6*%
%TO.N,/GND*%
X136570000Y-103770000D03*
%TO.P,U4,7,Vin_7*%
%TO.N,/+5V_SW*%
X134030000Y-103770000D03*
%TD*%
%TO.P,U3,1,LRC_1*%
%TO.N,/GPIO7*%
X149270000Y-74720000D03*
%TO.P,U3,2,BCLK_2*%
%TO.N,/GPIO6*%
X146730000Y-74720000D03*
%TO.P,U3,3,DIN_3*%
%TO.N,/GPIO5*%
X144190000Y-74720000D03*
%TO.P,U3,4,GAIN_4*%
%TO.N,/3V3*%
X141650000Y-74720000D03*
%TO.P,U3,5,SD_5*%
%TO.N,unconnected-(U3-SD-Pad5)*%
X139110000Y-74720000D03*
%TO.P,U3,6,GND_6*%
%TO.N,/GND*%
X136570000Y-74720000D03*
%TO.P,U3,7,Vin_7*%
%TO.N,/+5V_SW*%
X134030000Y-74720000D03*
%TD*%
D13*
%TO.P,R1,1*%
%TO.N,/CC1*%
X114650000Y-98725000D03*
%TO.P,R1,2*%
%TO.N,/GND*%
X114650000Y-97075000D03*
%TD*%
D14*
%TO.P,J4,1,Pin_1_1*%
%TO.N,/GND*%
X121400000Y-67825000D03*
D15*
%TO.P,J4,2,Pin_2_2*%
%TO.N,/D+*%
X118900000Y-67825000D03*
%TO.P,J4,3,Pin_3_3*%
%TO.N,/D-*%
X116400000Y-67825000D03*
%TO.P,J4,4,Pin_4_4*%
%TO.N,/+5V_SW*%
X113900000Y-67825000D03*
%TD*%
D16*
%TO.P,J5,1,Pin_1_1*%
%TO.N,/+5V*%
X98325000Y-103950000D03*
D17*
%TO.P,J5,2,Pin_2_2*%
%TO.N,/+5V_SW*%
X98325000Y-101450000D03*
%TD*%
D13*
%TO.P,R2,1*%
%TO.N,/CC2*%
X116600000Y-98725000D03*
%TO.P,R2,2*%
%TO.N,/GND*%
X116600000Y-97075000D03*
%TD*%
D18*
%TO.P,U1,1,3V3_1*%
%TO.N,/3V3*%
X160500000Y-111320000D03*
%TO.P,U1,2,3V3_2*%
X160500000Y-108780000D03*
%TO.P,U1,3,RST_3*%
%TO.N,unconnected-(U1-RST-Pad3)*%
X160500000Y-106240000D03*
%TO.P,U1,4,GPIO4_4*%
%TO.N,unconnected-(U1-GPIO4-Pad4)*%
X160500000Y-103700000D03*
%TO.P,U1,5,GPIO5_5*%
%TO.N,/GPIO5*%
X160500000Y-101160000D03*
%TO.P,U1,6,GPIO6_6*%
%TO.N,/GPIO6*%
X160500000Y-98620000D03*
%TO.P,U1,7,GPIO7_7*%
%TO.N,/GPIO7*%
X160500000Y-96080000D03*
%TO.P,U1,8,GPIO15_8*%
%TO.N,unconnected-(U1-GPIO15-Pad8)*%
X160500000Y-93540000D03*
%TO.P,U1,9,GPIO16_9*%
%TO.N,unconnected-(U1-GPIO16-Pad9)*%
X160500000Y-91000000D03*
%TO.P,U1,10,GPIO17_10*%
%TO.N,unconnected-(U1-GPIO17-Pad10)*%
X160500000Y-88460000D03*
%TO.P,U1,11,GPIO18_11*%
%TO.N,unconnected-(U1-GPIO18-Pad11)*%
X160500000Y-85920000D03*
%TO.P,U1,12,GPIO8_12*%
%TO.N,/GPIO8*%
X160500000Y-83380000D03*
%TO.P,U1,13,GPIO3_13*%
%TO.N,unconnected-(U1-GPIO3-Pad13)*%
X160500000Y-80840000D03*
%TO.P,U1,14,GPIO46_14*%
%TO.N,unconnected-(U1-GPIO46-Pad14)*%
X160500000Y-78300000D03*
%TO.P,U1,15,GPIO9_15*%
%TO.N,/GPIO9*%
X160500000Y-75760000D03*
%TO.P,U1,16,GPIO10_16*%
%TO.N,/GPIO10*%
X160500000Y-73220000D03*
%TO.P,U1,17,GPIO11_17*%
%TO.N,/GPIO11*%
X160500000Y-70680000D03*
%TO.P,U1,18,GPIO12_18*%
%TO.N,/GPIO12*%
X160500000Y-68140000D03*
%TO.P,U1,19,GPIO13_19*%
%TO.N,/GPIO13*%
X160500000Y-65600000D03*
%TO.P,U1,20,GPIO14_20*%
%TO.N,/GPIO14*%
X160500000Y-63060000D03*
%TO.P,U1,21,5Vin_21*%
%TO.N,/+5V_SW*%
X160500000Y-60520000D03*
%TO.P,U1,22,GND_22*%
%TO.N,/GND*%
X160500000Y-57980000D03*
D10*
%TO.P,U1,23,GND_23*%
X185900000Y-111320000D03*
%TO.P,U1,24,TX_24*%
%TO.N,unconnected-(U1-TX-Pad24)*%
X185900000Y-108780000D03*
%TO.P,U1,25,RX_25*%
%TO.N,unconnected-(U1-RX-Pad25)*%
X185900000Y-106240000D03*
%TO.P,U1,26,GPIO1_26*%
%TO.N,unconnected-(U1-GPIO1-Pad26)*%
X185900000Y-103700000D03*
%TO.P,U1,27,GPIO2_27*%
%TO.N,unconnected-(U1-GPIO2-Pad27)*%
X185900000Y-101160000D03*
%TO.P,U1,28,GPIO42_28*%
%TO.N,unconnected-(U1-GPIO42-Pad28)*%
X185900000Y-98620000D03*
%TO.P,U1,29,GPIO41_29*%
%TO.N,unconnected-(U1-GPIO41-Pad29)*%
X185900000Y-96080000D03*
%TO.P,U1,30,GPIO40_30*%
%TO.N,unconnected-(U1-GPIO40-Pad30)*%
X185900000Y-93540000D03*
%TO.P,U1,31,GPIO39_31*%
%TO.N,unconnected-(U1-GPIO39-Pad31)*%
X185900000Y-91000000D03*
%TO.P,U1,32,GPIO38_32*%
%TO.N,unconnected-(U1-GPIO38-Pad32)*%
X185900000Y-88460000D03*
%TO.P,U1,33,GPIO37_33*%
%TO.N,unconnected-(U1-GPIO37-Pad33)*%
X185900000Y-85920000D03*
%TO.P,U1,34,GPIO36_34*%
%TO.N,unconnected-(U1-GPIO36-Pad34)*%
X185900000Y-83380000D03*
%TO.P,U1,35,GPIO35_35*%
%TO.N,unconnected-(U1-GPIO35-Pad35)*%
X185900000Y-80840000D03*
%TO.P,U1,36,GPIO0_36*%
%TO.N,unconnected-(U1-GPIO0-Pad36)*%
X185900000Y-78300000D03*
%TO.P,U1,37,GPIO45_37*%
%TO.N,unconnected-(U1-GPIO45-Pad37)*%
X185900000Y-75760000D03*
%TO.P,U1,38,GPIO48_38*%
%TO.N,unconnected-(U1-GPIO48-Pad38)*%
X185900000Y-73220000D03*
%TO.P,U1,39,GPIO47_39*%
%TO.N,unconnected-(U1-GPIO47-Pad39)*%
X185900000Y-70680000D03*
%TO.P,U1,40,GPIO21_40*%
%TO.N,unconnected-(U1-GPIO21-Pad40)*%
X185900000Y-68140000D03*
%TO.P,U1,41,GPIO20_41*%
%TO.N,unconnected-(U1-GPIO20-Pad41)*%
X185900000Y-65600000D03*
%TO.P,U1,42,GPIO19_42*%
%TO.N,unconnected-(U1-GPIO19-Pad42)*%
X185900000Y-63060000D03*
%TO.P,U1,43,GND_43*%
%TO.N,unconnected-(U1-GND-Pad43)*%
X185900000Y-60520000D03*
%TO.P,U1,44,GND_44*%
%TO.N,unconnected-(U1-GND-Pad44)*%
X185900000Y-57980000D03*
%TD*%
%TO.N,/GPIO13*%
D19*
X193850000Y-69600000D02*
X164500000Y-69600000D01*
X196930000Y-72680000D02*
X193850000Y-69600000D01*
X164500000Y-69600000D02*
X160500000Y-65600000D01*
%TO.N,/GPIO11*%
X196930000Y-75220000D02*
X195980000Y-74270000D01*
X198380000Y-89010000D02*
X198380000Y-80265075D01*
X164090000Y-74270000D02*
X160500000Y-70680000D01*
X198380000Y-80265075D02*
X196924925Y-78810000D01*
X196924925Y-78810000D02*
X196495075Y-78810000D01*
X195880000Y-76270000D02*
X196930000Y-75220000D01*
X196930000Y-90460000D02*
X198380000Y-89010000D01*
X196495075Y-78810000D02*
X195880000Y-78194925D01*
X195980000Y-74270000D02*
X164090000Y-74270000D01*
X195880000Y-78194925D02*
X195880000Y-76270000D01*
%TO.N,/GPIO14*%
X197980000Y-76710000D02*
X197980000Y-69705075D01*
X196930000Y-77760000D02*
X197980000Y-76710000D01*
X192384925Y-64110000D02*
X161550000Y-64110000D01*
X161550000Y-64110000D02*
X160500000Y-63060000D01*
X197980000Y-69705075D02*
X192384925Y-64110000D01*
%TO.N,/GPIO12*%
X197980000Y-81350000D02*
X196930000Y-80300000D01*
X168114925Y-79350000D02*
X160934925Y-72170000D01*
X160934925Y-72170000D02*
X160065075Y-72170000D01*
X159450000Y-69190000D02*
X160500000Y-68140000D01*
X196930000Y-87920000D02*
X197980000Y-86870000D01*
X159450000Y-71554925D02*
X159450000Y-69190000D01*
X196930000Y-80300000D02*
X195980000Y-79350000D01*
X195980000Y-79350000D02*
X168114925Y-79350000D01*
X160065075Y-72170000D02*
X159450000Y-71554925D01*
X197980000Y-86870000D02*
X197980000Y-81350000D01*
%TO.N,/3V3*%
X195880000Y-86430000D02*
X195880000Y-91334925D01*
X195880000Y-91334925D02*
X196495075Y-91950000D01*
X196495075Y-91950000D02*
X197364925Y-91950000D01*
X146660000Y-108780000D02*
X160500000Y-108780000D01*
X197980000Y-102110000D02*
X196930000Y-103160000D01*
X196930000Y-85380000D02*
X195880000Y-86430000D01*
X160500000Y-111320000D02*
X160500000Y-108780000D01*
X141650000Y-103770000D02*
X141650000Y-74720000D01*
X160500000Y-108780000D02*
X164090000Y-105190000D01*
X197364925Y-91950000D02*
X197980000Y-92565075D01*
X194900000Y-105190000D02*
X164090000Y-105190000D01*
X141650000Y-103770000D02*
X146660000Y-108780000D01*
X196930000Y-103160000D02*
X194900000Y-105190000D01*
X197980000Y-92565075D02*
X197980000Y-102110000D01*
%TO.N,/GPIO9*%
X176790000Y-92050000D02*
X160500000Y-75760000D01*
X196930000Y-93000000D02*
X195980000Y-92050000D01*
X195980000Y-92050000D02*
X176790000Y-92050000D01*
%TO.N,/GPIO8*%
X195980000Y-94590000D02*
X171710000Y-94590000D01*
X171710000Y-94590000D02*
X160500000Y-83380000D01*
X196930000Y-95540000D02*
X195980000Y-94590000D01*
%TO.N,/GPIO10*%
X160065075Y-84430000D02*
X159450000Y-83814925D01*
X160494925Y-84430000D02*
X160065075Y-84430000D01*
X195980000Y-97130000D02*
X173194925Y-97130000D01*
X196930000Y-98080000D02*
X195980000Y-97130000D01*
X159450000Y-83814925D02*
X159450000Y-74270000D01*
X173194925Y-97130000D02*
X160494925Y-84430000D01*
X159450000Y-74270000D02*
X160500000Y-73220000D01*
%TO.N,/GND*%
X116275000Y-104375000D02*
X121475000Y-104375000D01*
X116600000Y-97075000D02*
X114650000Y-97075000D01*
X115550000Y-103650000D02*
X116275000Y-104375000D01*
X114650000Y-97075000D02*
X115550000Y-97975000D01*
X115550000Y-97975000D02*
X115550000Y-103650000D01*
X121475000Y-104375000D02*
X122650000Y-103200000D01*
%TO.N,/D+*%
X118900000Y-67825000D02*
X120650000Y-69575000D01*
X120650000Y-69575000D02*
X120650000Y-103200000D01*
%TO.N,/D-*%
X118650000Y-70075000D02*
X116400000Y-67825000D01*
X118650000Y-103200000D02*
X118650000Y-70075000D01*
%TO.N,/CC2*%
X116650000Y-98775000D02*
X116600000Y-98725000D01*
X116650000Y-103200000D02*
X116650000Y-98775000D01*
%TO.N,/CC1*%
X114650000Y-103200000D02*
X114650000Y-98725000D01*
%TO.N,/+5V*%
X98325000Y-103950000D02*
X111900000Y-103950000D01*
X111900000Y-103950000D02*
X112650000Y-103200000D01*
%TO.N,/GPIO7*%
X149270000Y-103770000D02*
X152810000Y-103770000D01*
X152810000Y-103770000D02*
X160500000Y-96080000D01*
X149270000Y-103770000D02*
X149270000Y-74720000D01*
%TO.N,/GPIO6*%
X146730000Y-103770000D02*
X147780000Y-104820000D01*
X147780000Y-104820000D02*
X154300000Y-104820000D01*
X154300000Y-104820000D02*
X160500000Y-98620000D01*
X146730000Y-74720000D02*
X146730000Y-103770000D01*
%TO.N,/GPIO5*%
X144190000Y-103770000D02*
X145640000Y-105220000D01*
X144190000Y-103770000D02*
X144190000Y-74720000D01*
X145640000Y-105220000D02*
X156440000Y-105220000D01*
X156440000Y-105220000D02*
X160500000Y-101160000D01*
%TO.N,/+5V_SW*%
X121205000Y-60520000D02*
X160500000Y-60520000D01*
X131450000Y-106350000D02*
X134030000Y-103770000D01*
X160360000Y-60380000D02*
X160500000Y-60520000D01*
X134030000Y-103770000D02*
X134030000Y-74720000D01*
X98325000Y-101450000D02*
X97025000Y-102750000D01*
X97025000Y-102750000D02*
X97025000Y-104784744D01*
X98325000Y-101450000D02*
X98325000Y-83400000D01*
X113900000Y-67825000D02*
X121205000Y-60520000D01*
X98590256Y-106350000D02*
X131450000Y-106350000D01*
X98325000Y-83400000D02*
X113900000Y-67825000D01*
X97025000Y-104784744D02*
X98590256Y-106350000D01*
%TD*%
M02*
